<?xml version="1.0" encoding="utf-8"?>
<!-- Generator: Adobe Illustrator 26.5.0, SVG Export Plug-In . SVG Version: 6.00 Build 0)  -->
<svg version="1.1" id="Calque_1" xmlns="http://www.w3.org/2000/svg" xmlns:xlink="http://www.w3.org/1999/xlink" x="0px" y="0px"
	 viewBox="0 0 1024 1024" style="enable-background:new 0 0 1024 1024;" xml:space="preserve">
<style type="text/css">
	.st0{fill:#42A735;}
	.st1{font-family:'Subotype-Steady';}
	.st2{font-size:270px;}
</style>
<path class="st0" d="M881.3,516.8c0-31.8-4.3-62.7-12.3-92c1.1-0.9,2,1.4,3,4.4c1.1,3.7,2.2,8.5,4.2,9.2c0.6-2.3,0.4-5.5-0.3-9
	c-0.7-3.5-1.9-7.2-3.2-10.5l-0.2,1.5c-0.6-1.5-1.3-3.3-2-5.3c-0.3-1-0.7-2.1-1.1-3.2c-0.4-1.1-0.8-2.2-1.2-3.3
	c-1.5-4.5-2.7-9.2-2.6-12.8c2.1,1,2.3-2.3,4.1,2l-1.3-4.2l-1.5-4.1c-0.9-0.8-1.8-1.7-1.2,0.8c-2.7-3.4-3.5-7.4-3.8-10.7
	c0.3-0.4-1.1-3.1-3.4-6.8c-1.2-1.9-2.5-4-4-6.2c-0.7-1.1-1.5-2.3-2.3-3.4c-0.8-1.1-1.7-2.3-2.5-3.4c-3.4-4.5-6.7-9-9.2-12.2
	c-2.6-3.1-4.1-5.1-3.7-5c-1.5-2.5-1.9-4.4-2.4-6.1c3.2,4.5,7.9,10.9,12.2,17.4c2,2.9,3.9,5.8,5.6,8.4c1.7,2.6,3.1,5.1,4.3,7
	c2.4,3.8,3.6,5.7,2.6,3.9c-0.1-1.4-2.4-6-6-12c-3.8-5.9-8.5-13.3-13.9-20.3c-5-7.1-10.7-13.7-14.7-19.1c-4.2-5.2-7-9-6.9-10.3
	c-1.4-1.8-2.9-3.8-4.3-5.1c-1.4-1.2-2.5-1.8-2.9-0.8c-4.1-6.6,4.1-0.2,2-5.5c-0.3,0.1-0.4,0.9-1.5-0.5l-1.6-5.6
	c-1.2-1-2.4-2.1-3.6-3.3c-1.2-1.2-2.4-2.4-3.6-3.7c-2.4-2.6-4.8-5.5-7.2-8.4c-2.6-2.8-5.2-5.5-7.8-8c-1.3-1.2-2.7-2.4-4-3.5
	c-1.4-1-2.8-1.9-4.3-2.7c4,1.1,9.2,1.8,16.2,6.6l0.3,1.7c0.6,0.2,2.2,1.5,3.8,2.5c1.5,1.1,3,1.9,3.6,1.3c-2.1-3.4-4.6-6.2-7.2-8.8
	c-2.7-2.6-5.6-5-9.2-7.3c-0.8-1.4-1.7-3-2.3-4.1c-0.1,0.2-0.2,0.4-0.4,0.6c-1.2-2.7-0.9-2.6,0.3-2.4c0.2,0,0.4,0,0.7,0.1
	c0-3.5-6.2-8.5-13.8-13.5c-7.4-5.2-16.4-10.1-21.3-15.7c-3.9-1.9-0.9,0.5-5.7-1.8c-2.7-2.6-5.2-4.9-7.6-7.2
	c-2.5-2.2-4.9-4.2-7.4-6.3c-2.5-2-4.9-4.1-7.7-6.2c-2.8-2-5.7-4-8.9-6.2c-5.4-0.6-6.1,0.1-2.1,5l-4.9-3.2c-1.6-1-3.3-2-5-3
	c6.1-0.2,1.9-3.9-2.2-7.6c-4.1-3.7-8.3-7.4-1.7-7.3c-2.5-2.9-9.1-6-15.6-7.9c-1.2,1.1-3.1,2.7-10.9-0.3c-10.2-6.1-7.8-4.5-16.4-9.4
	c-1.6-2.6,2.1-2.1,2.2-3.7c-15.1-2.6-11.3-8.1-25.4-11.8c-8.9-1.8-26.5-5.4-27.5-1.9c-11.9-2.3-11.5-4.7-9.9-7.2
	c-3.2-0.8-6.5-1.2-9.8-1.8c8,0.8,16.1,2.5,24.2,4c4.1,0.7,8,1.9,12.1,2.9c4,1.1,8.1,1.9,12.1,3.3c4,1.3,8,2.5,12,3.8
	c2,0.6,4,1.3,5.9,2.1l5.9,2.2c7.9,2.8,15.5,6.3,23.1,9.7c-15.6-9.6-33-18.2-51.3-25.2c-18.3-6.9-37.7-11.6-56.8-14
	c-4.8-0.5-9.6-0.9-14.3-1.2c-2.4-0.2-4.7-0.2-7.1-0.2c-2.3,0-4.7,0-7,0.1c-9.3,0-18.3,1.2-27,2.5c-4.3,0.7-8.5,1.8-12.6,2.9
	c-2,0.6-4.1,1.1-6.1,1.7c-1,0.3-2,0.6-3,0.9c-1,0.4-1.9,0.7-2.9,1.1c-3.8,1.5-7.5,3.1-11,4.9c-1.8,0.9-3.5,1.7-5.2,2.7
	c-1.7,1-3.3,2-4.9,3.1c-2-2.9-8-4.8-15.9-5.6c-7.8-0.5-17.7-0.5-27.2,1c-19.1,2.4-36.8,8.7-36.9,10.4c-3.3,1.9-6.6,3.8-9.9,5.8
	c-3.2,2-6.5,4.1-9.7,6.1c-6.6,3.9-12.8,8.4-19.2,12.5c-40,27.1-77.8,59-110.8,97.7c-32.9,38.6-60.6,84.2-78.2,135.4
	c-1.2,3.6-2.4,7.5-3.8,11.8c-1.2,4.4-2.4,9-3.8,14c-1.4,5-2.4,10.3-3.6,15.9c-0.6,2.8-1.2,5.7-1.7,8.6c-0.5,2.9-0.9,5.9-1.4,9
	c-3.8,24.4-5.5,52.5-4,80.6c1.4,28.1,6.1,56.2,12.5,80.6c6.3,24.4,14.3,45.1,20.1,59.7c1.9,4.2,3.7,8.3,5.6,12.5
	c1,2.1,1.9,4.2,2.9,6.2c1.1,2,2.1,4.1,3.2,6.1c-1.6-3.5-2.9-6-3.9-8.2c-0.9-2.2-1.7-4-2.4-5.7c-0.7-1.8-1.5-3.5-2.4-5.7
	c-0.9-2.2-2.1-4.8-3.4-8.4c1.2,2.1,2.4,4.1,3.7,6.1c1.3,2,2.5,4,3.8,6c1.3,2,2.5,3.9,3.7,5.9c1.2,1.9,2.6,3.8,3.9,5.7
	c2.6,3.7,5.2,7.4,7.8,11c2.7,3.5,5.4,7,8.1,10.5c1.4,1.7,2.6,3.5,4,5.1c1.4,1.6,2.8,3.3,4.2,4.9c2.8,3.2,5.5,6.5,8.3,9.7
	c5.8,6.2,11.2,12.4,17.1,18.1c-1.2-2.8-1.6-4.6-2.5-7.3c-0.9-2.7-2.3-6.3-5.4-12.3l4.6,6.8l2.3,3.4l2.4,3.3c3.5,2,7.5,5.1,11.7,8.7
	c4.4,3.5,9.1,7.6,13.7,11.8c4.8,4,9.5,8,13.9,11.6c4.5,3.4,8.7,6.5,12.1,8.7c-2.2-0.1-1.1,2.2,1.8,5.2c2.9,3,7.4,6.9,11.7,10.5
	l-2.3-4.2c16.4,13.4,35.9,25.6,55.8,35.5c20,9.9,40.2,17.8,58.2,23.6c1.2,0.4,2.4,0.9,3.5,1.3c1.1,0.4,2,0.9,2.9,1.3
	c1.8,0.9,3.1,1.8,4.2,2.6l8.9,2c3,0.6,6,1.1,9,1.6l9,1.5c3,0.5,6,0.8,9,1.2c-1.7,1.6,5.5,3.8,11.1,5.4c5.1,1.3,8.7,2.2,2.7,2.4
	c6.3-0.1,12.5,0.1,18.6,0.3c3.4,0,6.9,0.1,10.3,0.3c3.4,0.1,6.8,0.3,10.2,0.2c13.5,0.1,27-0.6,39.7-3.7c22.9-1.6,46.1-5.4,68.8-11.7
	c22.7-6.3,45-15,66.1-26c42.3-21.8,79.9-52.7,108.9-89l-2.6,0.7c2.6-3.1,4.9-6.4,7.1-9.7c2.2-3.3,4.5-6.5,6.5-9.8
	c4-6.8,8-13.4,11.7-20.5c1.9-3.5,4-6.9,5.8-10.6c1.9-3.6,3.9-7.3,6-11c2.1-3.7,4.1-7.6,6.4-11.5c1.1-2,2.4-3.9,3.5-5.9
	c1.1-2,2.3-4.1,3.5-6.1c3.9-12.3,8.1-26.9,10.9-40.3C873.6,600.3,881.3,559.5,881.3,516.8 M870.2,416.9c1.8,7.2-0.7,4.8-2.2,4.1
	c-0.5-1.6-1-3.3-1.5-4.9C867.5,415.4,868.7,415.4,870.2,416.9"/>
<text transform="matrix(1 0 0 1 14.5826 302.0468)"><tspan x="0" y="0" class="st1 st2">CO2 : RÉDUIRE</tspan><tspan x="270.1" y="324" class="st1 st2">&amp; faire</tspan><tspan x="273.2" y="648" class="st1 st2">réduire</tspan></text>
</svg>
