<?xml version="1.0" encoding="utf-8"?>
<!-- Generator: Adobe Illustrator 26.5.0, SVG Export Plug-In . SVG Version: 6.00 Build 0)  -->
<svg version="1.1" id="Calque_1" xmlns="http://www.w3.org/2000/svg" xmlns:xlink="http://www.w3.org/1999/xlink" x="0px" y="0px"
	 viewBox="0 0 297.6 411" style="enable-background:new 0 0 297.6 411;" xml:space="preserve">
<style type="text/css">
	.st0{fill:#FFFFFF;}
	.st1{fill:#95C11F;}
	.st2{fill:#BE1622;}
	.st3{fill:#DEDC00;}
	.st4{fill:#3AAA35;}
	.st5{fill:#FFE500;stroke:#FFE200;stroke-width:0.1;}
</style>
<rect x="29.8" y="33" class="st0" width="239.6" height="336.9"/>
<g id="Calque_13">
	<g>
		<g>
			<g>
				<g>
					<path class="st1" d="M48.6,284.8c0.5,0,1,0.2,1.4,0.6s0.6,0.8,0.6,1.4s-0.2,1-0.6,1.4c-0.4,0.4-0.8,0.6-1.4,0.6H31.9
						c-0.3,0-0.5,0-0.8-0.1s-0.4-0.2-0.6-0.4c-0.2-0.2-0.3-0.4-0.4-0.6s-0.1-0.5-0.1-0.8v-25.2c0-0.3,0-0.5,0.1-0.8
						c0.1-0.2,0.2-0.4,0.4-0.6s0.4-0.3,0.6-0.4s0.5-0.1,0.8-0.1h16.8c0.5,0,1,0.2,1.4,0.6s0.6,0.8,0.6,1.4s-0.2,1-0.6,1.4
						c-0.4,0.4-0.8,0.6-1.4,0.6H33.8v8.8h10.7c0.5,0,1,0.2,1.4,0.6s0.6,0.8,0.6,1.4s-0.2,1-0.6,1.4c-0.4,0.4-0.8,0.6-1.4,0.6H33.8
						v8.8L48.6,284.8L48.6,284.8z"/>
					<path class="st1" d="M68.2,282.9c0.5,0,1,0.2,1.3,0.5c0.4,0.4,0.5,0.8,0.5,1.4s-0.2,1-0.6,1.4c-1.9,1.6-4.1,2.5-6.6,2.5
						c-2.8,0-5.2-1-7.2-3s-3-4.4-3-7.2s1-5.2,3-7.2s4.4-3,7.2-3c2.5,0,4.8,0.8,6.6,2.5c0.4,0.4,0.7,0.9,0.7,1.4s-0.2,1-0.5,1.4
						s-0.8,0.5-1.3,0.5s-0.9-0.1-1.2-0.4c-0.6-0.5-1.3-0.9-1.9-1.2s-1.4-0.4-2.2-0.4c-0.9,0-1.7,0.2-2.5,0.5s-1.5,0.8-2,1.4
						c-0.6,0.6-1,1.2-1.4,2c-0.3,0.8-0.5,1.6-0.5,2.5s0.2,1.7,0.5,2.5s0.8,1.5,1.4,2c0.6,0.6,1.3,1,2,1.4s1.6,0.5,2.5,0.5
						c0.8,0,1.5-0.1,2.2-0.4s1.3-0.6,1.9-1.2C67.3,283,67.7,282.9,68.2,282.9L68.2,282.9z"/>
					<path class="st1" d="M73.5,286.8v-25.2c0-0.5,0.2-1,0.5-1.4s0.8-0.5,1.3-0.5s1,0.2,1.3,0.5c0.4,0.4,0.5,0.8,0.5,1.4v23.3H78
						c0.5,0,1,0.2,1.3,0.5s0.6,0.8,0.6,1.4s-0.2,1-0.6,1.3s-0.8,0.5-1.3,0.5h-2.8c-0.5,0-1-0.2-1.3-0.5S73.5,287.3,73.5,286.8
						L73.5,286.8z"/>
					<path class="st1" d="M99.6,286.8v-0.4c-0.9,0.7-1.9,1.3-3,1.7s-2.2,0.6-3.4,0.6c-2.8,0-5.2-1-7.2-3s-3-4.4-3-7.2s1-5.2,3-7.2
						s4.4-3,7.2-3s5.2,1,7.2,3s3,4.4,3,7.2v8.3c0,0.5-0.2,1-0.6,1.3s-0.8,0.5-1.3,0.5s-1-0.2-1.3-0.5
						C99.8,287.7,99.6,287.3,99.6,286.8L99.6,286.8z M93.2,272.1c-0.9,0-1.7,0.2-2.5,0.5s-1.4,0.8-2,1.4s-1,1.2-1.3,2
						s-0.5,1.6-0.5,2.5s0.2,1.7,0.5,2.5s0.8,1.5,1.3,2c0.6,0.6,1.2,1,2,1.4c0.8,0.3,1.6,0.5,2.5,0.5s1.7-0.2,2.5-0.5s1.4-0.8,2-1.4
						s1-1.2,1.4-2s0.5-1.6,0.5-2.5s-0.2-1.7-0.5-2.5s-0.8-1.4-1.4-2s-1.2-1-2-1.4S94.1,272.1,93.2,272.1z"/>
					<path class="st1" d="M112.1,264.7c0,0.6-0.2,1.1-0.7,1.6c-0.4,0.4-1,0.6-1.6,0.6s-1.1-0.2-1.6-0.6c-0.4-0.4-0.7-1-0.7-1.6
						s0.2-1.1,0.7-1.6s1-0.6,1.6-0.6s1.1,0.2,1.6,0.6C111.9,263.6,112.1,264.1,112.1,264.7z M108,286.8v-16.5c0-0.5,0.2-1,0.6-1.4
						s0.8-0.5,1.3-0.5s1,0.2,1.3,0.5s0.6,0.8,0.6,1.4v16.5c0,0.5-0.2,1-0.6,1.4s-0.8,0.5-1.3,0.5s-1-0.2-1.3-0.5
						C108.2,287.7,108,287.3,108,286.8z"/>
					<path class="st1" d="M120.1,270.2v0.4c0.9-0.7,1.9-1.3,3-1.7c1.1-0.4,2.2-0.6,3.4-0.6c0.5,0,1.1,0,1.7,0.1
						c0.6,0.1,1.2,0.2,1.7,0.4c0.5,0.2,0.9,0.5,1.3,0.8c0.3,0.3,0.5,0.8,0.5,1.3c0,0.3-0.1,0.5-0.1,0.7c-0.1,0.2-0.2,0.4-0.4,0.6
						s-0.4,0.3-0.6,0.4c-0.2,0.1-0.5,0.1-0.7,0.1s-0.5-0.1-0.8-0.2c-0.8-0.3-1.6-0.5-2.5-0.5s-1.7,0.2-2.5,0.5s-1.4,0.8-2,1.4
						s-1,1.2-1.4,2s-0.5,1.6-0.5,2.5v8.3c0,0.5-0.2,1-0.6,1.3s-0.8,0.5-1.3,0.5s-1-0.2-1.3-0.5s-0.6-0.8-0.6-1.3v-16.5
						c0-0.5,0.2-1,0.6-1.3s0.8-0.5,1.3-0.5s1,0.2,1.3,0.5S120.1,269.7,120.1,270.2L120.1,270.2z"/>
					<path class="st1" d="M149.9,283c0.5,0,1,0.2,1.4,0.5c0.4,0.4,0.5,0.8,0.5,1.4s-0.2,1-0.5,1.4c-1.9,1.6-4.1,2.5-6.6,2.5
						c-2.8,0-5.2-1-7.2-3s-3-4.4-3-7.2s1-5.2,3-7.2s4.4-3,7.2-3s5.2,1,7.2,3c1,1,1.7,2.1,2.2,3.3s0.7,2.5,0.7,3.9
						c0,0.5-0.2,1-0.6,1.4c-0.4,0.4-0.8,0.5-1.4,0.5h-14.4c0.2,0.7,0.5,1.3,0.9,1.8s0.9,1,1.4,1.4s1.1,0.7,1.8,0.9s1.3,0.3,2,0.3
						c0.8,0,1.5-0.1,2.2-0.4s1.3-0.6,1.9-1.1C149,283.1,149.5,283,149.9,283L149.9,283z M150.7,276.6c-0.2-0.7-0.5-1.3-0.9-1.8
						s-0.9-1-1.4-1.4s-1.1-0.7-1.8-0.9s-1.3-0.3-2-0.3s-1.4,0.1-2,0.3s-1.2,0.5-1.8,0.9c-0.5,0.4-1,0.9-1.4,1.4s-0.7,1.2-0.9,1.8
						H150.7L150.7,276.6z"/>
					<path class="st1" d="M175.4,288.7c-0.5,0-1-0.2-1.3-0.5c-0.4-0.4-0.5-0.8-0.5-1.3c-0.8,0.6-1.7,1.1-2.6,1.4
						c-0.9,0.3-1.9,0.4-3,0.4c-1.3,0-2.5-0.2-3.7-0.8s-2.1-1.2-3-2c-0.9-0.9-1.5-1.9-2-3s-0.8-2.4-0.8-3.7v-9c0-0.5,0.2-1,0.6-1.3
						c0.4-0.4,0.8-0.5,1.4-0.5s1,0.2,1.3,0.5s0.6,0.8,0.6,1.3v9c0,0.8,0.1,1.5,0.4,2.2c0.3,0.7,0.7,1.3,1.2,1.8s1.1,0.9,1.8,1.2
						s1.4,0.4,2.2,0.4s1.5-0.1,2.2-0.4s1.3-0.7,1.8-1.2s0.9-1.1,1.2-1.8c0.3-0.7,0.4-1.4,0.4-2.2v-9c0-0.5,0.2-1,0.6-1.3
						c0.4-0.4,0.8-0.5,1.4-0.5s1,0.2,1.3,0.5s0.6,0.8,0.6,1.3v16.5c0,0.5-0.2,1-0.6,1.3C176.4,288.5,175.9,288.6,175.4,288.7
						L175.4,288.7z"/>
					<path class="st1" d="M184.5,279c-1.1-0.4-1.9-0.9-2.4-1.3l0,0c-0.9-0.9-1.4-2-1.4-3.3c0-0.9,0.2-1.8,0.7-2.5s1.1-1.4,1.9-1.9
						c0.8-0.5,1.7-0.9,2.7-1.2c1-0.3,2-0.4,3-0.4c3,0,5.6,1.2,7.8,3.6c0.2,0.3,0.4,0.7,0.4,1.1c0,0.5-0.2,1-0.5,1.4
						c-0.4,0.4-0.8,0.5-1.4,0.5c-0.4,0-0.7-0.1-1-0.3s-0.5-0.5-0.8-0.7c-1.2-1.2-2.7-1.9-4.5-1.9s-3.1,0.5-4.2,1.6
						c-0.2,0.2-0.3,0.5-0.3,0.8s0.2,0.6,0.5,0.7l8.5,2.8c1.2,0.5,2,0.9,2.4,1.3l0,0c0.9,0.9,1.4,2,1.4,3.3c0,0.9-0.2,1.8-0.7,2.5
						s-1.1,1.4-1.9,1.9s-1.7,0.9-2.6,1.2s-2,0.4-3,0.4c-3.1,0-5.6-1.2-7.8-3.6c-0.3-0.4-0.4-0.7-0.4-1.2s0.2-1,0.5-1.4
						c0.4-0.4,0.8-0.5,1.4-0.5c0.4,0,0.7,0.1,1,0.4c0.3,0.2,0.5,0.5,0.8,0.7c1.2,1.2,2.7,1.9,4.5,1.9s3.1-0.5,4.2-1.6
						c0.2-0.2,0.3-0.5,0.3-0.7c0-0.3-0.2-0.6-0.5-0.7L184.5,279L184.5,279z"/>
					<path class="st1" d="M216.2,283c0.5,0,1,0.2,1.4,0.5c0.4,0.4,0.5,0.8,0.5,1.4s-0.2,1-0.5,1.4c-1.9,1.6-4.1,2.5-6.6,2.5
						c-2.8,0-5.2-1-7.2-3s-3-4.4-3-7.2s1-5.2,3-7.2s4.4-3,7.2-3s5.2,1,7.2,3c1,1,1.7,2.1,2.2,3.3s0.7,2.5,0.7,3.9
						c0,0.5-0.2,1-0.6,1.4c-0.4,0.4-0.8,0.5-1.4,0.5h-14.4c0.2,0.7,0.5,1.3,0.9,1.8s0.9,1,1.4,1.4s1.1,0.7,1.8,0.9s1.3,0.3,2,0.3
						c0.8,0,1.5-0.1,2.2-0.4s1.3-0.6,1.9-1.1C215.3,283.1,215.7,283,216.2,283L216.2,283z M217,276.6c-0.2-0.7-0.5-1.3-0.9-1.8
						s-0.9-1-1.4-1.4s-1.1-0.7-1.8-0.9s-1.3-0.3-2-0.3s-1.4,0.1-2,0.3s-1.2,0.5-1.8,0.9c-0.5,0.4-1,0.9-1.4,1.4s-0.7,1.2-0.9,1.8
						H217L217,276.6z"/>
					<path class="st1" d="M228.3,279c-1.1-0.4-1.9-0.9-2.4-1.3l0,0c-0.9-0.9-1.4-2-1.4-3.3c0-0.9,0.2-1.8,0.7-2.5s1.1-1.4,1.9-1.9
						s1.7-0.9,2.7-1.2c1-0.3,2-0.4,3-0.4c3,0,5.6,1.2,7.8,3.6c0.2,0.3,0.4,0.7,0.4,1.1c0,0.5-0.2,1-0.5,1.4
						c-0.4,0.4-0.8,0.5-1.4,0.5c-0.4,0-0.7-0.1-1-0.3s-0.5-0.5-0.8-0.7c-1.2-1.2-2.7-1.9-4.5-1.9s-3.1,0.5-4.2,1.6
						c-0.2,0.2-0.3,0.5-0.3,0.8s0.2,0.6,0.5,0.7l8.5,2.8c1.2,0.5,2,0.9,2.4,1.3l0,0c0.9,0.9,1.4,2,1.4,3.3c0,0.9-0.2,1.8-0.7,2.5
						s-1.1,1.4-1.9,1.9c-0.8,0.5-1.7,0.9-2.6,1.2s-2,0.4-3,0.4c-3.1,0-5.6-1.2-7.8-3.6c-0.3-0.4-0.4-0.7-0.4-1.2s0.2-1,0.5-1.4
						c0.4-0.4,0.8-0.5,1.4-0.5c0.4,0,0.7,0.1,1,0.4c0.3,0.2,0.5,0.5,0.8,0.7c1.2,1.2,2.7,1.9,4.5,1.9s3.1-0.5,4.2-1.6
						c0.2-0.2,0.3-0.5,0.3-0.7c0-0.3-0.2-0.6-0.5-0.7L228.3,279L228.3,279z"/>
					<path class="st1" d="M74.3,322c0.5,0,1,0.2,1.4,0.6s0.6,0.8,0.6,1.4s-0.2,1-0.6,1.4s-0.8,0.6-1.4,0.6H57.6
						c-0.3,0-0.5,0-0.8-0.1s-0.4-0.2-0.6-0.4c-0.2-0.2-0.3-0.4-0.4-0.6c-0.1-0.2-0.2-0.5-0.2-0.8v-25.2c0-0.3,0-0.5,0.2-0.8
						c0.1-0.2,0.2-0.4,0.4-0.6s0.4-0.3,0.6-0.4s0.5-0.1,0.8-0.1h16.8c0.5,0,1,0.2,1.4,0.6s0.6,0.8,0.6,1.4s-0.2,1-0.6,1.4
						S75,301,74.4,301H59.5v8.8h10.7c0.5,0,1,0.2,1.4,0.6s0.6,0.8,0.6,1.4s-0.2,1-0.6,1.4s-0.8,0.6-1.4,0.6H59.5v8.8L74.3,322
						L74.3,322z"/>
					<path class="st1" d="M93.9,320.1c0.5,0,1,0.2,1.3,0.5c0.4,0.4,0.5,0.8,0.5,1.4s-0.2,1-0.6,1.4c-1.9,1.6-4.1,2.5-6.6,2.5
						c-2.8,0-5.2-1-7.2-3s-3-4.4-3-7.2s1-5.2,3-7.2s4.4-3,7.2-3c2.6,0,4.8,0.8,6.6,2.5c0.4,0.4,0.7,0.9,0.7,1.4s-0.2,1-0.5,1.4
						s-0.8,0.5-1.3,0.5s-0.9-0.1-1.2-0.4c-0.6-0.5-1.3-0.9-1.9-1.2s-1.4-0.4-2.2-0.4c-0.9,0-1.7,0.2-2.5,0.5s-1.4,0.8-2,1.4
						s-1,1.2-1.4,2s-0.5,1.6-0.5,2.5s0.2,1.7,0.5,2.5s0.8,1.5,1.4,2c0.6,0.6,1.3,1,2,1.4s1.6,0.5,2.5,0.5c0.8,0,1.5-0.1,2.2-0.4
						s1.3-0.6,1.9-1.2C93,320.2,93.4,320.1,93.9,320.1L93.9,320.1z"/>
					<path class="st1" d="M99.2,324v-25.2c0-0.5,0.2-1,0.5-1.4s0.8-0.5,1.3-0.5s1,0.2,1.3,0.5c0.4,0.4,0.5,0.8,0.5,1.4V322h0.9
						c0.5,0,1,0.2,1.3,0.5s0.6,0.8,0.6,1.4s-0.2,1-0.6,1.3s-0.8,0.5-1.3,0.5h-2.8c-0.5,0-1-0.2-1.3-0.5S99.2,324.5,99.2,324
						L99.2,324z"/>
					<path class="st1" d="M125.3,324v-0.4c-0.9,0.7-1.9,1.3-3,1.7c-1.1,0.4-2.2,0.6-3.4,0.6c-2.8,0-5.2-1-7.2-3s-3-4.4-3-7.2
						s1-5.2,3-7.2s4.4-3,7.2-3s5.2,1,7.2,3c2,2,3,4.4,3,7.2v8.3c0,0.5-0.2,1-0.6,1.3c-0.4,0.4-0.8,0.5-1.3,0.5s-1-0.2-1.3-0.5
						C125.5,324.9,125.3,324.5,125.3,324L125.3,324z M118.9,309.3c-0.9,0-1.7,0.2-2.5,0.5s-1.4,0.8-2,1.4s-1,1.2-1.3,2
						s-0.5,1.6-0.5,2.5s0.2,1.7,0.5,2.5s0.8,1.5,1.3,2c0.6,0.6,1.2,1,2,1.4c0.8,0.3,1.6,0.5,2.5,0.5s1.7-0.2,2.5-0.5s1.4-0.8,2-1.4
						s1-1.2,1.4-2s0.5-1.6,0.5-2.5s-0.2-1.7-0.5-2.5s-0.8-1.4-1.4-2s-1.2-1-2-1.4S119.8,309.3,118.9,309.3z"/>
					<path class="st1" d="M137.8,301.9c0,0.6-0.2,1.1-0.6,1.6s-1,0.6-1.6,0.6s-1.1-0.2-1.6-0.6s-0.6-1-0.6-1.6s0.2-1.1,0.6-1.6
						c0.4-0.4,1-0.6,1.6-0.6s1.1,0.2,1.6,0.6C137.6,300.8,137.8,301.3,137.8,301.9z M133.7,323.9v-16.5c0-0.5,0.2-1,0.6-1.4
						c0.4-0.4,0.8-0.5,1.3-0.5s1,0.2,1.3,0.5s0.6,0.8,0.6,1.4v16.5c0,0.5-0.2,1-0.6,1.4s-0.8,0.5-1.3,0.5s-1-0.2-1.3-0.5
						C133.9,324.9,133.7,324.5,133.7,323.9z"/>
					<path class="st1" d="M145.8,307.4v0.4c0.9-0.7,1.9-1.3,3-1.7c1.1-0.4,2.2-0.6,3.4-0.6c0.5,0,1.1,0,1.7,0.1
						c0.6,0.1,1.2,0.2,1.7,0.4c0.5,0.2,0.9,0.5,1.3,0.8c0.3,0.3,0.5,0.8,0.5,1.3c0,0.3-0.1,0.5-0.1,0.7c-0.1,0.2-0.2,0.4-0.4,0.6
						s-0.4,0.3-0.6,0.4c-0.2,0.1-0.5,0.1-0.7,0.1s-0.5-0.1-0.8-0.2c-0.8-0.3-1.6-0.5-2.5-0.5s-1.7,0.2-2.5,0.5s-1.4,0.8-2,1.4
						s-1,1.2-1.4,2s-0.5,1.6-0.5,2.5v8.3c0,0.5-0.2,1-0.6,1.3c-0.4,0.4-0.8,0.5-1.3,0.5s-1-0.2-1.4-0.5s-0.6-0.8-0.6-1.3v-16.5
						c0-0.5,0.2-1,0.6-1.3s0.8-0.5,1.4-0.5s1,0.2,1.3,0.5S145.8,306.9,145.8,307.4L145.8,307.4z"/>
					<path class="st1" d="M175.6,320.1c0.5,0,1,0.2,1.4,0.5c0.4,0.4,0.5,0.8,0.5,1.4s-0.2,1-0.5,1.4c-1.9,1.6-4.1,2.5-6.6,2.5
						c-2.8,0-5.2-1-7.2-3s-3-4.4-3-7.2s1-5.2,3-7.2s4.4-3,7.2-3s5.2,1,7.2,3c1,1,1.7,2.1,2.2,3.3c0.5,1.2,0.8,2.5,0.8,3.9
						c0,0.5-0.2,1-0.6,1.4c-0.4,0.4-0.8,0.5-1.4,0.5h-14.4c0.2,0.7,0.5,1.3,0.9,1.8s0.9,1,1.4,1.4s1.1,0.7,1.8,0.9s1.3,0.3,2,0.3
						c0.8,0,1.5-0.1,2.2-0.4c0.7-0.2,1.3-0.6,1.9-1.1C174.8,320.3,175.2,320.1,175.6,320.1L175.6,320.1z M176.5,313.8
						c-0.2-0.7-0.5-1.3-0.9-1.8s-0.9-1-1.4-1.4s-1.1-0.7-1.8-0.9s-1.3-0.3-2-0.3s-1.4,0.1-2,0.3c-0.6,0.2-1.2,0.5-1.8,0.9
						c-0.5,0.4-1,0.9-1.4,1.4s-0.7,1.2-0.9,1.8H176.5L176.5,313.8z"/>
					<path class="st1" d="M201.1,325.8c-0.5,0-1-0.2-1.3-0.5c-0.4-0.4-0.5-0.8-0.5-1.3c-0.8,0.6-1.7,1.1-2.6,1.4
						c-0.9,0.3-1.9,0.4-3,0.4c-1.3,0-2.5-0.2-3.7-0.8c-1.1-0.5-2.1-1.2-3-2s-1.5-1.9-2-3s-0.8-2.4-0.8-3.7v-9c0-0.5,0.2-1,0.6-1.3
						c0.4-0.4,0.8-0.5,1.4-0.5s1,0.2,1.3,0.5s0.6,0.8,0.6,1.3v9c0,0.8,0.1,1.5,0.4,2.2s0.7,1.3,1.2,1.8s1.1,0.9,1.8,1.2
						c0.7,0.3,1.4,0.4,2.2,0.4s1.5-0.1,2.2-0.4s1.3-0.7,1.8-1.2s0.9-1.1,1.2-1.8c0.3-0.7,0.4-1.4,0.4-2.2v-9c0-0.5,0.2-1,0.6-1.3
						c0.4-0.4,0.8-0.5,1.4-0.5s1,0.2,1.3,0.5s0.6,0.8,0.6,1.3v16.5c0,0.5-0.2,1-0.6,1.3C202.1,325.6,201.6,325.8,201.1,325.8
						L201.1,325.8z"/>
					<path class="st1" d="M210.2,307.4v0.4c0.9-0.7,1.9-1.3,3-1.7c1.1-0.4,2.2-0.6,3.4-0.6c0.5,0,1.1,0,1.7,0.1
						c0.6,0.1,1.2,0.2,1.7,0.4c0.5,0.2,0.9,0.5,1.3,0.8c0.3,0.3,0.5,0.8,0.5,1.3c0,0.3-0.1,0.5-0.1,0.7c-0.1,0.2-0.2,0.4-0.4,0.6
						s-0.4,0.3-0.6,0.4c-0.2,0.1-0.5,0.1-0.7,0.1s-0.5-0.1-0.8-0.2c-0.8-0.3-1.6-0.5-2.5-0.5s-1.7,0.2-2.5,0.5s-1.4,0.8-2,1.4
						s-1,1.2-1.4,2s-0.5,1.6-0.5,2.5v8.3c0,0.5-0.2,1-0.6,1.3c-0.4,0.4-0.8,0.5-1.3,0.5s-1-0.2-1.4-0.5c-0.4-0.4-0.6-0.8-0.6-1.3
						v-16.5c0-0.5,0.2-1,0.6-1.3c0.4-0.4,0.8-0.5,1.4-0.5s1,0.2,1.3,0.5S210.2,306.9,210.2,307.4L210.2,307.4z"/>
					<path class="st1" d="M228.3,316.2c-1.1-0.4-1.9-0.9-2.4-1.3l0,0c-0.9-0.9-1.4-2-1.4-3.3c0-0.9,0.2-1.8,0.7-2.5s1.1-1.4,1.9-1.9
						s1.7-0.9,2.7-1.2c1-0.3,2-0.4,3-0.4c3,0,5.6,1.2,7.8,3.6c0.2,0.3,0.4,0.7,0.4,1.1c0,0.5-0.2,1-0.5,1.4
						c-0.4,0.4-0.8,0.5-1.4,0.5c-0.4,0-0.7-0.1-1-0.3s-0.5-0.5-0.8-0.7c-1.2-1.2-2.7-1.9-4.5-1.9s-3.1,0.5-4.2,1.6
						c-0.2,0.2-0.3,0.5-0.3,0.8s0.2,0.6,0.5,0.7l8.5,2.8c1.2,0.5,2,0.9,2.4,1.3l0,0c0.9,0.9,1.4,2,1.4,3.3c0,0.9-0.2,1.8-0.7,2.5
						s-1.1,1.4-1.9,1.9s-1.7,0.9-2.6,1.2s-2,0.4-3,0.4c-3.1,0-5.6-1.2-7.8-3.6c-0.3-0.4-0.4-0.7-0.4-1.2s0.2-1,0.5-1.4
						c0.4-0.4,0.8-0.5,1.4-0.5c0.4,0,0.7,0.1,1,0.4c0.3,0.2,0.5,0.5,0.8,0.7c1.2,1.2,2.7,1.9,4.5,1.9s3.1-0.5,4.2-1.6
						c0.2-0.2,0.3-0.5,0.3-0.7c0-0.3-0.2-0.6-0.5-0.7L228.3,316.2L228.3,316.2z"/>
				</g>
				<g>
					<path class="st1" d="M256.9,362.4c-0.1,0.2-0.4,0.3-0.7,0.3c-0.5,0-0.9-0.5-0.9-1.2s0.5-1,0.9-1l0.7,0.1h10.7
						c0.1-0.1,0.3-0.3,0.5-0.3c0.6,0,0.9,0.4,0.9,1.3c0,0.7-0.3,1-0.8,1c-0.2,0-0.4,0-0.5-0.1h-1.4c1.6,1,3,3.2,3,5.1
						c0,1.2-0.8,2.3-2.5,2.3c-3.3,0-6.5-3.3-6.5-6c0-0.6,0.1-1,0.4-1.4L256.9,362.4L256.9,362.4z M261.9,363.8c0,1.7,2.8,4,4.5,4
						c0.6,0,1.1-0.2,1.1-1c0-1-0.8-2.1-1.7-2.9c-0.8-0.8-1.4-1.4-2.6-1.4C262.5,362.5,261.9,362.9,261.9,363.8L261.9,363.8
						L261.9,363.8z"/>
					<path class="st1" d="M259.7,352.5c0-2.4,1.8-3,2.6-3c0.9,0,1.8,0.6,2.6,5.5l0.2,1c0.3,0.1,0.7,0.1,1.1,0.1c1,0,1.5-0.5,1.5-1.4
						c0-1.4-0.8-2.6-1.4-3c-0.5,0.1-0.9-0.4-0.9-1c0-0.8,0.5-0.9,0.9-0.9c0.6,0,3,1.8,3,5.2c0,1.8-0.8,3.1-2.9,3.1
						C262.5,358,259.7,355.3,259.7,352.5L259.7,352.5L259.7,352.5z M261.3,352.6c0,1.2,1,2.3,2.3,2.9c-0.6-3.7-1-4.2-1.2-4.2
						C261.8,351.4,261.3,351.7,261.3,352.6L261.3,352.6L261.3,352.6z"/>
					<path class="st1" d="M267.3,340.4c0.1-0.1,0.4-0.3,0.8-0.3c0.6,0,1,0.7,1,1.4c0,0.8-0.3,1.2-0.9,1.2c-0.5,0-0.8-0.1-1-0.4h-3.8
						c-0.2,0.2-0.6,0.4-1,0.4c-0.3,0-0.8-0.2-1-0.4h-3.1c-0.1,0.2-0.5,0.4-0.9,0.4s-0.8-0.1-0.8-0.4c-0.7,0-1-0.7-1-1.3
						c0-0.5,0.3-0.9,0.7-0.7l-0.7-4.8c0-0.3-0.2-0.5-0.2-0.8c0-0.6,0.3-1.2,0.9-1.2c1,0,1.3,0.3,1.3,1.1c0,0.3-0.1,0.5-0.2,0.8
						l0.7,4.9h3.3l-0.6-4.5c-0.1-0.2-0.3-0.5-0.3-0.9s0.6-0.8,1-0.8c0.9,0,1.2,0.3,1.2,1c0,0.2,0,0.5-0.1,0.7l0.6,4.4L267.3,340.4
						L267.3,340.4z"/>
					<path class="st1" d="M267.9,331.4c-0.2,0-0.5-0.2-0.7-0.3h-8.1c0,0.1,0,0.1,0,0.2c0,0.2-0.2,0.5-0.8,0.5c-0.7,0-1-0.3-1.2-0.6
						h-0.4c-0.1,0.1-0.4,0.1-0.6,0.1c-0.6,0-1-0.6-1-1.2s0.5-1.2,1.2-0.9h0.2c-0.8-1.8-1.2-3.5-1.2-5.2s0.8-2.9,2.2-2.9
						c2.1,0,3.9,2.4,4.6,6.6l4.9-6.8c-0.2-0.7,0.3-1.4,0.8-1.4c0.8,0,1.2,0.6,1.2,1.3c0,0.4-0.2,0.8-0.5,1l-5.4,7.4h4.1
						c0.1-0.1,0.4-0.2,0.6-0.2c0.8,0,1,0.7,1,1.5S268.5,331.3,267.9,331.4L267.9,331.4L267.9,331.4z M261.1,329.1
						c-0.7-3.3-1.8-6-3.3-6c-0.5,0-0.8,0.5-0.8,1.4c0,1.2,0.3,2.8,1.1,4.6H261.1L261.1,329.1z"/>
					<path class="st1" d="M264.2,315.3c2.2,1.1,2.7,1.4,3,1.4s0.6,0,0.9,0c0.5,0,0.9,0.3,0.9,1.2c0,0.8-0.5,1.1-1,1.1
						s-1.2-0.4-2.8-1.2l-7.2-3.7c-0.8-0.4-1.3-0.6-1.8-0.7c-0.7,0-1.4-0.4-1.4-1.2c0-0.7,0.4-1.1,0.8-1.1s0.5,0.1,0.8,0.1
						c0.6,0,4.1-1.9,5.2-2.4c3.2-1.6,5.3-2.5,6.1-2.5c0.8,0,1.2,0.5,1.2,1.2c0,0.6-0.3,1.1-0.8,1.1c-0.3,0-0.6-0.1-0.8-0.1
						c-0.3,0-1,0.2-3.6,1.4L264.2,315.3L264.2,315.3z M262.3,310.8l-3.9,1.7l4.1,2L262.3,310.8L262.3,310.8z"/>
					<path class="st1" d="M257,304c-0.2,0.1-0.4,0.2-0.6,0.2c-0.5,0-1.1-0.4-1.1-1.2c0-0.9,0.3-1.1,0.8-1.1c0.4,0,1.3-0.4,2.1-0.8
						c1-0.6,2.6-1.8,3.8-2.9c1.1-1,2.2-2,2.9-2.3l0,0c-2.7,0.1-5.5,0.1-8.3,0.1c-0.1,0-0.3,0.2-0.6,0.2c-0.7,0-0.9-0.5-0.9-1
						c0-0.6,0.3-1.2,0.8-1.2c0.3,0,0.5,0.1,0.7,0.2h11.2c0.1-0.1,0.3-0.2,0.6-0.2c0.5,0,0.7,0.3,0.7,1.2c0,0.6-0.5,0.9-1.1,1.2
						c-1.1,0.5-3.1,2-4.2,3c-1.4,1.3-3,2.5-4,3l0,0c2.5,0,5.1-0.1,7.8-0.1c0.1-0.1,0.4-0.2,0.6-0.2c0.6,0,1,0.3,1,1s-0.2,1.3-1,1.3
						c-0.2,0-0.5-0.1-0.6-0.2L257,304L257,304z"/>
					<path class="st1" d="M255.1,284.8c0-2.4,1.1-4,2.2-4c0.7,0,1.1,0.5,1.1,1.1s-0.3,0.9-0.8,1c-0.4,0.1-0.7,0.8-0.7,1.8
						c0,2.6,4.1,4.5,6.8,4.5s3.9-1.4,3.9-2.7s-0.8-2.7-1.7-3.3c-0.5,0-1.2-0.2-1.2-1.1c0-0.8,0.5-1.1,0.9-1.1s0.7,0.1,1.3,0.6
						c1,0.9,2.5,3,2.4,5.2c0,2.6-1.9,4.4-5.8,4.4C260.3,291.2,255.1,288.7,255.1,284.8L255.1,284.8L255.1,284.8z"/>
					<path class="st1" d="M267.2,276.1l-0.4-5.8c-0.2-0.2-0.3-0.4-0.3-0.7c0-0.7,0.5-1.2,1-1.2c0.9,0,1.1,0.6,1.1,1.7l0.4,5.9
						c0.2,0.2,0.4,0.6,0.4,1.2s-0.4,1.1-1.1,1.1c-0.4,0-0.7-0.1-1-0.3h-3.9c-0.2,0.2-0.6,0.4-1,0.4s-0.8-0.2-1-0.4H258
						c-0.2,0.3-0.5,0.4-0.8,0.4c-0.4,0-0.7-0.1-0.8-0.3c-0.1,0.1-0.2,0.1-0.3,0.1c-0.4,0-0.8-0.5-0.8-1.2s0.3-1.1,0.8-1.1l-0.4-5
						c-0.1-0.2-0.3-0.5-0.3-0.8c0-0.8,0.5-1.2,1-1.2c0.7,0,1.2,0.5,1.2,1.2c0,0.3-0.1,0.5-0.2,0.7l0.4,5h3.5l-0.5-4
						c-0.1-0.2-0.3-0.5-0.3-0.8c0-0.7,0.5-1.2,1.1-1.2c0.7,0,1.1,0.5,1.1,1.2c0,0.2-0.1,0.3-0.1,0.5l0.5,4.2L267.2,276.1
						L267.2,276.1z"/>
				</g>
			</g>
			<g>
				<path class="st2" d="M33.5,341.2V358c0,0.9,0.2,1.7,0.5,2.5s0.8,1.5,1.4,2.1s1.3,1,2,1.4s1.6,0.5,2.5,0.5s1.7-0.2,2.5-0.5
					s1.5-0.8,2.1-1.4s1-1.3,1.4-2.1s0.5-1.6,0.5-2.5v-16.8c0-0.5,0.2-1,0.6-1.4s0.8-0.6,1.4-0.6s1,0.2,1.4,0.6s0.6,0.8,0.6,1.4V358
					c0,0.9-0.1,1.9-0.4,2.7s-0.6,1.7-1,2.5c-0.5,0.8-1,1.5-1.6,2.1s-1.3,1.2-2.1,1.6c-0.8,0.5-1.6,0.8-2.5,1s-1.8,0.4-2.7,0.4
					c-2.9,0-5.3-1-7.3-3s-3-4.5-3-7.3v-16.8c0-0.5,0.2-1,0.6-1.4s0.8-0.6,1.4-0.6c0.5,0,1,0.2,1.4,0.6S33.5,340.6,33.5,341.2
					L33.5,341.2z"/>
				<path class="st2" d="M53.1,366.4v-25.2c0-0.3,0-0.5,0.2-0.8c0.1-0.2,0.2-0.4,0.4-0.6s0.4-0.3,0.6-0.4s0.5-0.1,0.8-0.1
					c0.6,0,1.1,0.2,1.5,0.7l16.2,20.8v-19.6c0-0.5,0.2-1,0.6-1.4s0.8-0.6,1.4-0.6s1,0.2,1.4,0.6s0.6,0.8,0.6,1.4v25.2
					c0,0.3-0.1,0.5-0.1,0.8c-0.1,0.2-0.2,0.4-0.4,0.6s-0.4,0.3-0.6,0.4s-0.5,0.1-0.8,0.1c-0.6,0-1.1-0.2-1.5-0.7L57,346.8v19.6
					c0,0.5-0.2,1-0.6,1.4c-0.4,0.4-0.8,0.6-1.4,0.6s-1-0.2-1.4-0.6S53.1,366.9,53.1,366.4L53.1,366.4z"/>
				<path class="st2" d="M84.6,366.4c0,0.5-0.2,1-0.6,1.4s-0.8,0.6-1.4,0.6s-1-0.2-1.4-0.6s-0.6-0.8-0.6-1.4v-25.2
					c0-0.5,0.2-1,0.6-1.4s0.8-0.6,1.4-0.6s1,0.2,1.4,0.6s0.6,0.8,0.6,1.4V366.4z"/>
				<path class="st2" d="M117.5,353.8c0,4-1.4,7.4-4.3,10.3c-2.8,2.8-6.2,4.2-10.2,4.2s-7.4-1.4-10.3-4.2s-4.2-6.2-4.2-10.3
					s1.4-7.4,4.2-10.2c2.8-2.8,6.3-4.3,10.3-4.3s7.4,1.4,10.2,4.3c1.4,1.4,2.5,3,3.2,4.7C117.2,349.9,117.5,351.7,117.5,353.8
					L117.5,353.8z M103,343.1c-1.5,0-2.9,0.3-4.1,0.8s-2.4,1.3-3.4,2.4s-1.8,2.2-2.3,3.4c-0.5,1.2-0.8,2.6-0.8,4.1
					c0,3,1,5.5,3.1,7.5s4.6,3.1,7.6,3.1s5.5-1,7.6-3.1s3.1-4.6,3.1-7.5s-1-5.5-3.1-7.5C108.5,344.1,105.9,343.1,103,343.1L103,343.1
					z"/>
				<path class="st2" d="M120.6,366.4v-25.2c0-0.3,0.1-0.5,0.2-0.8c0.1-0.2,0.2-0.4,0.4-0.6s0.4-0.3,0.6-0.4s0.5-0.1,0.8-0.1
					c0.6,0,1.1,0.2,1.5,0.7l16.2,20.8v-19.6c0-0.5,0.2-1,0.6-1.4c0.4-0.4,0.8-0.6,1.4-0.6s1,0.2,1.4,0.6s0.6,0.8,0.6,1.4v25.2
					c0,0.3-0.1,0.5-0.1,0.8c-0.1,0.2-0.2,0.4-0.4,0.6s-0.4,0.3-0.6,0.4c-0.2,0.1-0.5,0.1-0.8,0.1c-0.6,0-1.1-0.2-1.5-0.7l-16.2-20.8
					v19.6c0,0.5-0.2,1-0.6,1.4s-0.8,0.6-1.4,0.6s-1-0.2-1.4-0.6S120.6,366.9,120.6,366.4L120.6,366.4z"/>
				<path class="st2" d="M152,366.4c0,0.5-0.2,1-0.6,1.4s-0.8,0.6-1.4,0.6s-1-0.2-1.4-0.6s-0.6-0.8-0.6-1.4v-25.2
					c0-0.5,0.2-1,0.6-1.4s0.8-0.6,1.4-0.6s1,0.2,1.4,0.6s0.6,0.8,0.6,1.4V366.4z"/>
				<path class="st2" d="M159.6,352.1c-0.9-0.8-1.5-1.7-1.9-2.5s-0.5-1.8-0.5-2.8c0-1.2,0.2-2.3,0.7-3.2s1.1-1.8,2-2.6l0,0
					c1.4-1.2,3-1.8,4.9-1.8c0.6,0,1.2,0.1,1.8,0.2s1.2,0.4,1.8,0.7s1.1,0.7,1.6,1.1s0.9,1,1.3,1.6c0.2,0.3,0.3,0.7,0.3,1
					s-0.1,0.5-0.1,0.8c-0.1,0.2-0.2,0.4-0.4,0.6s-0.4,0.3-0.6,0.4c-0.2,0.1-0.5,0.1-0.8,0.1c-0.2,0-0.5,0-0.6-0.1
					c-0.2-0.1-0.4-0.2-0.5-0.3c-0.1-0.1-0.3-0.3-0.4-0.5c-0.1-0.2-0.3-0.4-0.4-0.6c-0.3-0.4-0.7-0.7-1.2-1c-0.5-0.2-1-0.3-1.6-0.3
					c-0.5,0-0.9,0.1-1.3,0.3c-0.4,0.2-0.8,0.4-1.2,0.8s-0.6,0.7-0.8,1.2s-0.3,0.9-0.3,1.5c0,0.9,0.3,1.7,0.8,2.2s1.4,1,2.7,1.4
					c2.1,0.6,3.8,1.4,5,2.5s2,2.1,2.5,3.1c0.4,1,0.6,2.1,0.6,3.2c0,2.8-1.1,5.1-3.1,6.9l0,0c-1.7,1.4-3.6,2.1-5.7,2.1
					c-0.7,0-1.4-0.1-2.1-0.3c-0.7-0.2-1.4-0.4-2.1-0.8s-1.3-0.8-1.9-1.3c-0.6-0.5-1.1-1.1-1.5-1.7c-0.2-0.3-0.4-0.7-0.4-1.2
					c0-0.3,0.1-0.5,0.1-0.8c0.1-0.2,0.2-0.4,0.4-0.6s0.4-0.3,0.6-0.4s0.5-0.1,0.8-0.1c0.7,0,1.2,0.3,1.6,0.9
					c0.5,0.8,1.1,1.4,1.9,1.8c0.8,0.4,1.6,0.6,2.5,0.6c0.7,0,1.3-0.1,1.9-0.4s1.1-0.6,1.6-1.1c0.4-0.5,0.8-1,1.1-1.6s0.4-1.3,0.4-2
					s-0.1-1.3-0.4-1.9s-0.7-1.2-1.4-1.7c-0.7-0.6-1.8-1.1-3.4-1.5C161.8,353.7,160.5,353,159.6,352.1L159.6,352.1z"/>
				<path class="st2" d="M195.4,343.1h-7.2v23.3c0,0.5-0.2,1-0.6,1.4c-0.4,0.4-0.8,0.6-1.4,0.6s-1-0.2-1.4-0.6s-0.6-0.8-0.6-1.4
					v-23.3H177c-0.5,0-1-0.2-1.4-0.6s-0.6-0.8-0.6-1.4s0.2-1,0.6-1.4s0.8-0.6,1.4-0.6h18.2c0.5,0,1,0.2,1.4,0.6s0.6,0.8,0.6,1.4
					s-0.2,1-0.6,1.4S196,343.1,195.4,343.1z"/>
				<path class="st2" d="M218.9,364.4c0.5,0,1,0.2,1.4,0.6s0.6,0.8,0.6,1.4s-0.2,1-0.6,1.4s-0.8,0.6-1.4,0.6h-16.8
					c-0.3,0-0.5,0-0.8-0.1s-0.4-0.2-0.6-0.4s-0.3-0.4-0.4-0.6c-0.1-0.2-0.1-0.5-0.1-0.8v-25.2c0-0.3,0.1-0.5,0.1-0.8
					c0.1-0.2,0.2-0.4,0.4-0.6s0.4-0.3,0.6-0.4s0.5-0.1,0.8-0.1h16.8c0.5,0,1,0.2,1.4,0.6s0.6,0.8,0.6,1.4s-0.2,1-0.6,1.4
					s-0.8,0.6-1.4,0.6H204v8.8h10.7c0.5,0,1,0.2,1.4,0.6s0.6,0.8,0.6,1.4s-0.2,1-0.6,1.4s-0.8,0.6-1.4,0.6H204v8.8L218.9,364.4
					L218.9,364.4z"/>
				<path class="st2" d="M227.4,352.1c-0.9-0.8-1.5-1.7-1.9-2.5s-0.5-1.8-0.5-2.8c0-1.2,0.2-2.3,0.7-3.2s1.1-1.8,2-2.6l0,0
					c1.4-1.2,3-1.8,4.9-1.8c0.6,0,1.2,0.1,1.8,0.2s1.2,0.4,1.8,0.7s1.1,0.7,1.6,1.1s0.9,1,1.3,1.6c0.2,0.3,0.3,0.7,0.3,1
					s-0.1,0.5-0.1,0.8c-0.1,0.2-0.2,0.4-0.4,0.6s-0.4,0.3-0.6,0.4c-0.2,0.1-0.5,0.1-0.8,0.1c-0.2,0-0.5,0-0.6-0.1
					c-0.2-0.1-0.4-0.2-0.5-0.3c-0.1-0.1-0.3-0.3-0.4-0.5c-0.1-0.2-0.3-0.4-0.4-0.6c-0.3-0.4-0.7-0.7-1.2-1c-0.5-0.2-1-0.3-1.6-0.3
					c-0.5,0-0.9,0.1-1.3,0.3s-0.8,0.4-1.2,0.8s-0.6,0.7-0.8,1.2s-0.3,0.9-0.3,1.5c0,0.9,0.3,1.7,0.8,2.2s1.4,1,2.7,1.4
					c2.1,0.6,3.8,1.4,5,2.5s2,2.1,2.5,3.1c0.4,1,0.6,2.1,0.6,3.2c0,2.8-1.1,5.1-3.1,6.9l0,0c-1.7,1.4-3.6,2.1-5.7,2.1
					c-0.7,0-1.4-0.1-2.1-0.3c-0.7-0.2-1.4-0.4-2.1-0.8s-1.3-0.8-1.9-1.3c-0.6-0.5-1.1-1.1-1.5-1.7c-0.3-0.3-0.4-0.7-0.4-1.2
					c0-0.3,0.1-0.5,0.1-0.8c0.1-0.2,0.2-0.4,0.4-0.6s0.4-0.3,0.6-0.4s0.5-0.1,0.8-0.1c0.7,0,1.2,0.3,1.6,0.9
					c0.5,0.8,1.1,1.4,1.9,1.8c0.8,0.4,1.6,0.6,2.5,0.6c0.7,0,1.3-0.1,1.9-0.4s1.1-0.6,1.6-1.1c0.4-0.5,0.8-1,1.1-1.6s0.4-1.3,0.4-2
					s-0.1-1.3-0.4-1.9s-0.7-1.2-1.4-1.7c-0.7-0.6-1.8-1.1-3.4-1.5C229.7,353.7,228.3,353,227.4,352.1L227.4,352.1z"/>
			</g>
			<path class="st1" d="M257.3,122.3c-6.9,1.4-13.2,2.6-19.1,3.7l0,0c-1.4,2.8-3.4,5.7-5.6,7.8c2.1,23.7,0.2,43.8-1.6,64.2
				c-18.9,9.1-39,17.6-61.7,23c-1.1,4.1-3.1,7.5-6,10.2c-0.1,0-0.3,0-0.5,0.1c-3.5-1.6-6.3-4.1-8.8-7c-23,1.7-41.6-0.2-61.2-2.9
				c-8.2-18.7-16-37.4-21.3-59.5c-5.8-0.8-10.4-2.9-13.8-6.7c0-0.1,0-0.2,0-0.3c2.2-4.8,5.7-8.7,11.1-11.1
				c-1.7-23.2-0.4-43.3,1.7-63.4c18-7.5,35.8-14.7,56-19.9c0.9-4.3,3.9-8.2,6.7-11C131.5,39,130.7,33,130.7,33
				c-50.9,9.1-89.6,53.6-89.6,107.1c0,60.1,48.7,108.8,108.8,108.8s108.8-48.7,108.8-108.8C258.7,134.2,258.2,128.2,257.3,122.3
				L257.3,122.3z"/>
			<path class="st3" d="M207.1,75.3c-5.3,0.3,0.3-0.9,2.7-6.1c1.6-3.6,1-4.1,1-4.1s-0.5-1.8-7.1,1.1c-5.8,2.6-8.9,8-8.9,8
				s-7-10.5-21.6-3c-5.8,3-10.9,8.3-14.4,13.3c-5.3,7.6-7,14.3-1.9,10.5c0.8-0.6,1.3-1.4,1.9-2.4c1.4-2.1,3.1-4.8,8.4-5.9
				c3.1-0.5,5.4,0.2,6.7,0.7c8,3,5.5,8.8,4.1,10.3c-1.5,2-13.2,7.7-17,14s12.9,10.9,12.9,10.9s-0.3-29.2,18-22.6
				c17.1,6.3-3.3,20.5-3.3,20.5c12.1,0,23.2-3.9,31.5-9.5C236.4,100.1,243.5,73.5,207.1,75.3L207.1,75.3z"/>
			<path class="st2" d="M136.8,165.4c0.6-1.9,1.5-3.7,2.3-5.7c1.3-3,3.1-5.3,1.6-9.7c-1.4,0.2-2.9,0.4-4.4,0.5
				c-1.5,1.5-2.8,4.6-5.3,6.2c-3.9,2.4-9.8,0.3-10.3-4.1c-8.9,1.2-16.8,2.4-24.8,4.2c-1.3,1.2-2.7,3.2-1.6,5.3
				c1.2,2.1,4.8,1.3,6.9,0.7c-0.4,5.4-2.8,9.2-7.8,11c4,12.1,8.9,22.9,13.8,33.8c8.4,0.3,17.4,0.8,26.4,0.9
				c-2.2-7.7,0.8-13.6,6.9-15.8c0.2,2.3,0.5,4.9,2.1,5.8c2.4,1.4,4.8-1,5.3-3c-1.7-10.2-3.2-20.7-4.9-30.9
				C140.9,164.6,138.7,165.5,136.8,165.4L136.8,165.4z"/>
			<path class="st4" d="M128.5,131.9c2.6,1.1,5.1,4.1,6.7,4.2c0.6,0.1,2.8-0.8,3.2-0.6c-0.2-1.4-0.3-2.8-0.5-4.2
				c-2-2.4-7.4-4-7.9-8.8c-0.3-3,1.5-7.1,5.3-7.5c-0.7-5.5-2-13.2-3.1-18.7c-0.4-2-0.5-4.6-1.2-6c-0.6-1.2-2.7-2.4-4.1-2.2
				c-3,0.5-2.8,4.8-1.9,7.4c-5.9-0.2-9.5-3.4-11.4-8.9c-0.3-0.6,0.2-2.1-0.7-1.8c-8.9,3.1-17.5,6.4-25.7,10
				c-0.9,10.5-1.5,21.4-1.4,32.3c5.2,0.3,8.7,2.9,10.4,7.6c-2.8,0.2-5.8,1.1-6.1,3.1c-0.3,2.4,1.4,3.4,3.1,4.2
				c8.6-1,17.3-2.6,25.4-3.6C116.6,132.1,123.9,129.9,128.5,131.9L128.5,131.9z"/>
			<path class="st5" d="M196.5,147.4c2.7,0.4,6.1-0.8,6.3-3s-1.8-4-3.5-4.1c-1.8-0.2-4.4,0.5-6.7,0.8c-6.3,0.8-13.2,2.1-18,3
				c1.4,5-3.6,7.2-7.4,6.9c-5.4-0.4-6.5-5.9-12-3.3c0.1,1.4,0.6,2.4,0.6,3.9c1.4,1.5,2.7,3,4.1,4.6c1.3,1.5,3,2.9,3.9,4.9
				c-2.3,0.2-4.3,0.6-6.4,0.9c1.4,10.7,3.1,21.1,5.2,30.9c1.1,1.6,3.9,2.9,5.7,1.2c1.6-1.5,0.7-4.4,0.3-6.4
				c6.9,0.2,11.3,4.5,11.7,12.5c10.5-3.1,20.2-6.9,29.9-10.7c1.5-11.6,2.4-23.2,2.8-35.1C205.6,157.4,198,153.9,196.5,147.4
				L196.5,147.4z"/>
		</g>
		<g>
			<path class="st1" d="M44.3,257.3l-4.3,2.5c-0.4,0.2-0.8,0.3-1.3,0.1c-0.5-0.1-0.9-0.4-1.1-0.8c-0.2-0.4-0.3-0.9-0.2-1.4
				s0.4-0.9,0.8-1.1l4.3-2.5c0.5-0.2,0.9-0.3,1.4-0.2s0.9,0.4,1.1,0.9c0.2,0.4,0.3,0.9,0.2,1.4C45,256.7,44.7,257.1,44.3,257.3
				L44.3,257.3z"/>
			<path class="st1" d="M70.5,294.6l-4.3,2.5c-0.4,0.2-0.8,0.3-1.3,0.1c-0.5-0.1-0.9-0.4-1.1-0.8c-0.2-0.4-0.3-0.9-0.2-1.4
				s0.4-0.9,0.8-1.1l4.3-2.5c0.4-0.2,0.9-0.3,1.4-0.2c0.5,0.1,0.9,0.4,1.1,0.9c0.2,0.4,0.3,0.9,0.2,1.4
				C71.1,294,70.9,294.4,70.5,294.6L70.5,294.6z"/>
		</g>
	</g>
</g>
</svg>
