<?xml version="1.0" encoding="utf-8"?>
<!-- Generator: Adobe Illustrator 26.5.0, SVG Export Plug-In . SVG Version: 6.00 Build 0)  -->
<svg version="1.1" id="Calque_1" xmlns="http://www.w3.org/2000/svg" xmlns:xlink="http://www.w3.org/1999/xlink" x="0px" y="0px"
	 viewBox="0 0 1024 1024" style="enable-background:new 0 0 1024 1024;" xml:space="preserve">
<style type="text/css">
	.st0{enable-background:new    ;}
	.st1{font-family:'GillSans-SemiBold';}
	.st2{font-size:420px;}
	.st3{font-size:300px;}
	.st4{fill:#52B44E;}
</style>
<text transform="matrix(1 0 0 1 104.2899 331.9224)" class="st0"><tspan x="0" y="0" class="st1 st2">CO</tspan><tspan x="661.2" y="50" class="st1 st3">2</tspan></text>
<g id="XMLID_22095_">
	<g id="XMLID_22096_">
		<g id="XMLID_22155_">
			<g>
				<g>
					<g>
						<g>
							<path class="st4" d="M505.3,390.8c0.1-0.2,0.2-0.4,0.2-0.7C505.3,390.4,505.2,390.6,505.3,390.8z"/>
							<path class="st4" d="M405.2,385.7l1.2-0.3C405.6,385.4,405.3,385.5,405.2,385.7z"/>
							<path class="st4" d="M565.3,392c-0.1,0.1-0.1,0.1-0.1,0.2c0.9,0,2.2,0,4.2,0.1L565.3,392z"/>
							<path class="st4" d="M240.8,491.4l0.7-1.1C241.1,490.7,240.9,491,240.8,491.4z"/>
							<path class="st4" d="M313.5,380.1c-0.6,0.2-1.6,0.3-2.6,0.3C312.2,380.5,313.3,380.5,313.5,380.1z"/>
							<path class="st4" d="M597.3,405.5l-1.7-0.9C595.7,405,596.3,405.4,597.3,405.5z"/>
							<path class="st4" d="M658.4,399.4c-0.1-0.1-0.1-0.1-0.2-0.2C658.1,399.3,658.2,399.3,658.4,399.4z"/>
							<path class="st4" d="M634.3,396.7c-0.5,0.1-1.1,0.3-1.7,0.5C633.3,397.1,634.3,397.1,634.3,396.7z"/>
							<path class="st4" d="M631.8,397.4c0.3-0.1,0.5-0.2,0.8-0.3C632.2,397.2,631.8,397.3,631.8,397.4z"/>
							<path class="st4" d="M358.2,987c1.7,0.6,3.3,0.4,5,0.3L358.2,987z"/>
							<path class="st4" d="M132.7,650.1l-0.1-0.5C132.5,650,132.6,650.1,132.7,650.1z"/>
							<path class="st4" d="M362.9,979.8l1.1,0.6C363.6,980.1,363.2,979.9,362.9,979.8z"/>
							<path class="st4" d="M565,408.7c-1.8,1-5.4-0.1-5.3,0.8C561.5,409.3,564.2,410,565,408.7z"/>
							<path class="st4" d="M136.2,704.1l-0.7,1C135.8,704.6,136,704.3,136.2,704.1z"/>
							<path class="st4" d="M362.9,979.8l-1.3-0.7c0.1,0.2,0.2,0.4,0.3,0.6C362.2,979.7,362.5,979.7,362.9,979.8z"/>
							<path class="st4" d="M77.6,814.7C77.5,814.7,77.5,814.6,77.6,814.7c-0.2,0-0.3,0-0.5,0.1L77.6,814.7z"/>
							<path class="st4" d="M79.3,816.6c-0.1,0.1-0.2,0.1-0.4,0.2C79,816.9,79.2,816.8,79.3,816.6z"/>
							<path class="st4" d="M363.1,987.3l2.9,0.2C365,987.2,364.1,987.2,363.1,987.3z"/>
							<path class="st4" d="M113.7,911.6c-0.4-0.1-0.7-0.2-1-0.2C113.1,911.5,113.5,911.6,113.7,911.6z"/>
							<path class="st4" d="M326.8,381.6c0.3,0.1,0.6,0.2,0.9,0.3C327.8,381.6,327.8,381.5,326.8,381.6z"/>
							<path class="st4" d="M293,457.7L293,457.7L293,457.7C293,457.7,293,457.7,293,457.7z"/>
							<path class="st4" d="M294,453.3c-0.8,1.1-1.1,3.1-1,4.3C293.6,456.5,294,455.3,294,453.3z"/>
							<path class="st4" d="M288.1,465.6c0.1-0.1,0.2-0.2,0.3-0.4C288.3,465.3,288.2,465.4,288.1,465.6z"/>
							<path class="st4" d="M323.9,407.6c0,0,0-0.1,0-0.1C323.9,407.6,323.9,407.6,323.9,407.6L323.9,407.6z"/>
							<path class="st4" d="M318.7,410.2c-0.2,0-0.4,0.1-0.6,0.2C318.3,410.4,318.5,410.3,318.7,410.2z"/>
							<path class="st4" d="M269.1,503.8C269.1,503.8,269.1,503.8,269.1,503.8C269.1,503.8,269.1,503.9,269.1,503.8
								C269.1,503.9,269.1,503.9,269.1,503.8z"/>
							<path class="st4" d="M185.8,642.1c9-13.5,19.6-31.7,29-44.6c0.4-4,3.2-8.2,5.7-12.7l2.4,1l1.7-4c1.6-1-1.4,3,1.1,1l-0.4-2.2
								c0.9,0.2,6.6-8.8,4.1-1.8c3.1-4.6,6.1-9.2,9.2-13.9c2.1-3-0.6-3,2.2-6c1.1-0.3-0.4,1.5,0.6,1.7c4.1-4.6,5-8.3,5.7-11.8
								c0.7-3.6,1.3-7.1,4.8-11.6l-0.2,1c0.4-2,2.5-5.1,2.2-5.3c-3-0.1,0.1,2.5-3,4.6c-1.7-1.4,1.3-4.3-0.2-5c2.1-1.8,1.9-3.8,3-5.8
								c3.2-2.6,5.4-7.9,8.4-9.6c0.4-2-0.3-5,1.8-8.6c3-1.7,1,1.4,3.7-1.7l-0.7-1.2c1.9-2.7,1.9-2.1,2.4-1.7c1.9-3,0-3.4,3-6.9
								l-0.2,2.8c1.3-3.1,2.1-4.1,4.5-8.1c0.6,0.5-0.4,2-1.3,3.1c2.9-1.2,1.5-4.1,2.3-5.2c-0.7,0.1-2.5,2.7-2.8,0.7
								c1.4-1.8,1-5,3.1-5.7l-0.2,2.8c1.6-4.6-0.1-3,3-7.5c-0.1,0.3,0.3,0.3,0.4,0.6c0.3-3.8,3.8-7,6.4-11.4l-0.2,1
								c0.6-2,0.2-3.5,0.8-4.5c-2,2.2-2,1.3-3.2,1c3.7-2.4,0.7-6.3,4.8-11.2c0.6,0.4,0.6,2.2-0.9,3.3c0.8,2.9,2.3,4,1.3,7.9
								c0.7-2.3,1.8-4.9,2.3-4l-1.4-1.6c0.6-1.3,1.3-2.2,1.8-3.2c-0.8-1.1-3.2,1.6-2.3-1.7c1.2-3.6,2.7-0.8,2.2-1.7
								c1.8-4.9-0.8-2.9,2.1-7c-0.1,0.5-0.2,1.5-0.6,1.8c2.4-2.8,3.7-8,6.3-7.8c0.2,0.7,0.8,1.1,0,2.3l-0.3-0.2
								c-0.3,4.3,1.1-3.1,2.4-1.1c-1.3-0.3,1.3-4.7,2.6-6.6l-1.6,0c-0.2-4.3,0.4-3.9,1.4-3.3c1,0.6,2.5,1.5,3.9-2
								c1.2-4.7-1.2,1.4-0.8-1.6c1.6-2.8,3.3-3.3,4.8-7.8c1.1-0.9,3-3,4.6-2.5c0.1-0.4,0.2-0.7,0.4-1.1c0-0.1,0.1-0.2,0.1-0.3
								l0.1-0.1c0-0.1,0.1-0.2,0.1-0.3c0.2-0.4,0.4-0.7,0.6-1.1c0.4-0.7,0.7-1.4,0.2-2.3c-1,0.5-0.9,1.3-0.8,2c0,0.4,0,0.7-0.2,1
								c-0.1,0.2-0.2,0.3-0.4,0.5c-0.3,0.4-0.8,0.9-1.3,1.4l-0.7-2.1c0.1-0.3,0.2-0.3,0.2-0.4l0.2-0.4c0.1-0.2,0.2-0.5,0.3-0.8
								c0.2-0.5,0.4-1.1,0.5-1.6c0.4-1.1,0.8-2,1.3-2.4c-0.3,0-0.7-0.2-0.9-0.6c0.4-1.6,0.5-3.1,0.7-4.5l0.1-0.5l0-0.3
								c0-0.1,0.1-0.1,0.1-0.1c0.2-0.1,0.4-0.1,0.6-0.1c0.5-0.1,1,0,1.8,0.1c0.9,1.5-0.7,1.2-1.6,1.2c1.1,0.7,1.5,0.7,1.9,0.7
								c0.5,0,1-0.1,2.2,0.2c0.2,0.7-0.2,0.6-0.6,0.6c-0.4-0.1-0.9-0.1-0.8,0.5l2.2-0.3c0,0.1,0,0.2,0,0.3c0.1-1.1,0.6-1,1.2-0.7
								c0,0,0.3,0.1,0.5,0.1c0.2,0,0.4,0.1,0.6,0.1c0.4,0.1,0.8,0.2,1.3,0.3c0.9,0.2,1.8,0.2,2.7,0.1c8.7,0.5,10.2-2.3,15.1-3.8
								c1.3,0.6,1.6,1.2,1.1,1.7c-2.1-1.1-1.7-0.3-2.5,0.2c3-0.1,6.3,2.4,4.7,3.2c4.7-0.4-1.6-1.2,1.3-1.7c2.1,0.1,4.3,0.3,6.4,0.4
								c-0.7-1.1-3-1.4,0.4-2.2c2.8-0.2,4.1,0.1,7.8,0.3c-0.5,0.5,1.1,1.7-1.7,1.5c1.7,0.5,4.5,0.6,5.6-0.4c-4-1.1,6.6-0.7,3.7-2.5
								l4,1.1c-0.9-0.1-1,0.7-2.4,0.4c1.1,1.7,3.3-0.3,4.7-0.5c1.4,0.4,5,0.6,5.3,1.3c1.3-0.4,4.3,0,4.9,0.9
								c1.9-0.3,0.2-1.1,0.7-1.6l6.4,0.3c0.3,0.9,0.8,3.5-0.2,3.8c2.4-0.8,0.9-2.7,4.6-2.5c-2.1,1.7,4.8,1.5,1.7,3.5
								c2.1,1.4,8,1.4,11.3,1c2.1-1.4-3.5-0.9-3.3-2.3c9.2-0.4,9.9-4.3,16.6-3.5l-1.7-0.4c4.2-0.7,3.8-0.6,6.2-1.7
								c-1.2,1.8,4.7,4.9,11.7,4.6c0.6-0.9-3.9-1.8-2.7-3.2l4.6-0.2c0.3,0.1-0.2,0.4-0.8,0.7c4.1-0.6,7.7,2.4,8.9,0.3l4.2,2.7
								l-1.6-1.1c0.6-0.9,5.2-1.1,6.2-1.4c4.7-1,6.4-0.2,9,1c-0.8-0.7-2.9-2.4,0.9-2.7c-0.1,2.9,7.8,1.1,7.7,2.6
								c1.5,0,4.2,0.9,4.3-0.3l-0.3,1.8c0.4-2.5,5.8-2.4,10-2.8c-0.9,3.4,4.6-0.3,6.5,2.8c0.8-2.3,7.4-0.9,8.2-2.9
								c3.2-0.1,2.9,2.1,3.7,2.8l1.5-0.9c1.6,1.1,7.7,1.2,11.3,2l3.3-2.1l1.2,0.9c0.5-0.5,3.3-0.9,1.6-1.6l1.8,0.1
								c0.1-2.2,2.5-0.6,6.2-1.6c0.8,0.4,0.6,0.9-0.2,1.2c1.8,0,1,1.2,2,1.9c-1.3-0.6,6.5-4.1,1.6-5.1c-0.3-0.9,2.5-1.6,4.3-1.2
								l1.1,2l2.1-2.2c2.8-0.3,4,0.9,6.2,1.1c-2.3,0.2-5.1,4,0.9,3.8c-3.1,0.3-4.6,1.4-6.3,1.9c1.2,0.1,1.9,0.3-0.1,1.1
								c4.6-0.7,1.5-1.3,6.1-1.6c-0.2,1.8,1.1,2.4,5.1,2.9l-3-1.3c0.1-0.2,0.3-0.4,0.6-0.5c-1.1-0.2-1.5-0.5-1.7-1.1
								c0.9,0,5.3-2.3,6.1-1.2c-4.7-2.8,8-2.3,5.1-3.9c0.5-0.5,3.7-0.7,4.1,0.2c-3.8,1.4,2.9,2,2.3,3.3c1.4-0.5-3.1-1.3-1.1-2
								c2.3-0.2,4,0.9,5.3,1.5l-1,0.4l3.6,0.7c0.6-0.9-3.5-1.5-0.2-2c0.9,0.4,4.1-0.2,4,0.6c-1.5,1.3-0.4,2.9-3.1,3.3
								c2.3-0.2,9.7-0.5,6.6-2.2l2.8,0c-1.7-0.7-6.6-2-1.1-2.4l0,0.4l3.8-1.4l1.7,0.9c-0.1-0.5,0.5-0.9,2-0.9
								c0.4,0.5,1.7,0.7,1.6,1.4c4.1-0.2,3.8-1.1,4.3-1.6c2.3-0.2,3.2,0.2,2.1,1.3c3.2,0.2,8.7-0.2,10.9,0.7
								c4.2-0.9-0.9-0.4,1.6-1.6c3.8,3,14.1,0.7,21,0.1c-2-2.7,1.9-0.4,3-3c-1.5,0.9,6.7,1.8,0.6,2.9l3.7-0.5
								c2.6,1.4-6.1,1.4-2.2,3.3c4.2-0.3,6.7-3.4,11.7-2.7c-1.5,2.1,3.8-0.9,2.7,1.3c-1,0.8-2.4,0.6-3.8,0.9l0.9,0.3
								c9.2,0,2.5-2.5,7.2-4.1c5.6-0.6,4.5,1.3,4.9,2.1c0.9,0.3,3.8-0.3,5.3-0.9c-1.7,0.8-3.4,0.6-4.4,0.1c-1-0.5-1.4-1.4-0.7-2.1
								c2.7,2,8.5-0.6,9.9-1.7c-4.2-0.8-5.6-0.7-6.9-0.6c-1.3,0.1-2.6,0.2-6.4-0.9c-1,0.8-0.7,2.8-5.2,2.2c2.7-1.2-0.3-1.1-1.1-1.4
								c0.9,1.1-3.1,0.7-4.4,1.2c-1.3-0.9,2.5-2.8-2-3l-0.7,2.7c-1.8-0.3,0.6-2-3.1-1.2c2-1.5-0.7-2.2,4.3-2.8
								c-6.2-2-9.2,1.7-13.9,2.9c0.5-0.2,0.5-0.6,1-0.8c-1,0.8-2.8,0.8-4.2,1c-3.1-0.5,2.4-1.3,1.6-2l-5,0.2
								c-0.1-0.1-0.1-0.1-0.1-0.2c-1.3,0.4-2.6,0.7-3,0c1.5-0.9,2-1.8,3-2.6l-5.2,2.1c0.5-0.9-4.4-1.4-0.7-2.2l-7.8,0.6l-0.7-1.8
								c-1.9,0.4-1.9,0.7,0.3,0.9c-2.7-0.3-11.7,3.5-10.4-0.1c-6.1,1.6-8.3,1.1-15.7,2.2c5.7-1.8-6.6-2-0.6-2.9
								c-3.6-0.7-4.2,1.3-7,1.6c-2.6-0.7-1.5-2.5,1.3-3.3L582,393l0.1-0.4l-2.9,1.1c-3.1-0.9-0.7-1.8-3.8-2l-0.7,1.6l-2.2-0.9
								c0.8,0.7-1,1.1-3.3,1.2l0-0.4l-2.8,0.3c2.7-1-2.5-0.3-1.3-1.5c-2.4,0-2.4,0-6.7,0.3l0.8,1.1c-5.6,1-0.3-1.6-4.8-1.7l0.3,1.3
								c-6.6-2-11.1,1.4-15.9,0c2.8-0.3,2.1-1.8,2-1.4c-4.2,0.5-11,0.2-15.3,1.8c-1.6-1.8-2-2.4-6.4-3.2c-3.2,0.1-3.7,0.3-4.7,1.4
								c-3.1-0.7-9,0.4-9.1-1c-0.7,1.1-2.8-0.2-4.5,0.7l-0.4-0.5l0.3,1.3c-5.5-2.8-9.3,1.6-14.9-0.9l1-0.3l-2.4,0.5
								c-0.4-0.6,0.6-0.9,0.7-1.6l-10.9-0.3l2.1,1c-2.3,0.1-3.8,1.3-6.5,0.6c4.4-1.9-3.6-0.1-4.3-1.6l2.3-0.5
								c-3.2,0.1-3.2,0.1-2.9,1.4c-4.2,0.4-2.8-2.4-6.7-1.1l2.7,0.1c0.8,0.7-1.2,1.8-3,1.7c-0.4-0.2-1.7-0.8-0.3-0.9
								c-3.3,0.4-8.2-0.3-9.6,0.2c-1.8-0.4-1.2-1.3-0.2-1.6c-7,1-3.2-0.3-10.2,0.8l0.1-0.7l-2.4,0.8l-3.4-1.6l1.2,1
								c-2.3,0.1-3.7,0.6-6.4,0.1l1.1-1c-6.5,0.5-7.4-1.9-13.6-0.5c-0.4-0.2,0.5-0.5,1-0.7c-5.7,1.6-4.3-2-10,0
								c0.4-0.4-0.3-0.8,0-1.1l-2.6,0.6l0.2-1.4l-2.2,2.1l-1.6-1.5l-1,0.7c-2.7-2.8-6.7-0.9-10.4-3l0.6,1.8c-2.4,0.9-5,1.2-7.7,1.1
								c-2.7-0.1-5.5-0.5-8.3-1c-5.7-1-11.6-2.2-17.4-1.6l0.3-1.4l-4.8,1.5c-2.5-1.3,1.6-1.2,0.8-1.9c-5.1,0.5-2.2,2-8.2,2.1
								c-3-1.1,1.1-1,2.6-1.5c-5.6,0.4-13.8,0.8-17.7-0.3c-0.1,0.2-0.4,0.4-0.2,0.5c-0.2,0-0.5,0-0.7,0.1c-0.3,0-0.8,0-1.1,0
								c-0.8,0-1.6,0-2.4-0.1c-1.6-0.1-3.4-0.2-5.1-0.4c-3.5-0.3-7.1-0.7-10.3-0.9c-0.2-0.7,1.4-0.7,3-0.7c-1.2-0.1-2.7-0.4-4.1-0.5
								c-0.7-0.1-1.4-0.1-2-0.1c-0.3,0-0.6,0-0.9,0.1c-0.1,0-0.3,0-0.4,0.1c-0.1,0.1-0.1,0.3-0.1,0.4l0-0.4c0-0.1,0.1-0.1,0.2-0.2
								l0.4-0.3l0.9-0.6c-0.7-0.1-1.4-0.1-2.2-0.2c-0.3,0.6-0.6,1.4-0.9,2.1c-0.6,1.5-1.3,3-1.9,4.4c-1.2,2.8-2.4,5.1-3.1,5
								c0.7-0.1,1.4,1-0.4,4.6c-1.3,0.3-2.4,3.1-3.5,6.3c-0.5,1.5-1.2,3.6-1.5,4.4c-0.4,1.1-1,2.1-1.7,3c-0.2-0.7,1-3.6,0.6-2.8
								c-1.5,1.7-1.4,3.9-1.6,5.9l-0.5-0.9l-3.3,9.6c-2.6,0.3-4.1,8.6-5.2,7.3c-1.7,3.2,2.3-2.2,0.4,1.9c-1.4,0.7-1.5,3.9-2.7,3
								l0.1-0.5l-1.4,2.9l-0.3-2.4c-1,2.6-0.7,5,0.2,5.6c-1.9,1.9-3.1,5.5-4.8,5.9l0.2-1c-3,6.7-9.1,8.7-9.9,14.9
								c-0.4,0.3-0.7,0.1-0.2-0.7l-2.3,3.9l-0.4-1.5l-2.2,7.3l-0.6-0.4c-2.6,4.2-6.3,10.9-9.3,16.5l0.2-1c-2.5,6.5-4,5.4-5.9,10.1
								c-0.1-0.3,0-0.4,0-0.6l-2.3,3.9l-0.1-1.2c-0.4,3.7-6.7,7.2-4.5,6.1c-0.4,2-1.4,5.2-1,6.2c-2.6,4.3-1.4,0.5-3.6,2.8
								c-2,3-1.2,4.2-4.4,8l-0.6-0.5c-1.1,2-1.4,3.5-3,6.2l0.2-1c-1.5,5.2-5.3,4.3-4.8,9.4c-1.7,1.5-3.5,5.2-4.6,4.3
								c-2.7,5.9-5.2,10.4-8.2,16c-2.6-0.5-0.6,1.2-3.9,3.7l1.2,0.5c-4.9,7.6-13.3,14.5-18.6,23.1l-1.2-0.5l0,2.4
								c-3.3,4.3-7.1,9.2-10.6,13.9c-3.5,4.7-6.9,9.3-9.4,12.8c-1.1,2.7-2.3,7.1-5.3,10.4l0.1-0.5c-4,6.7-8.3,13.8-14,20.2
								c-0.1-0.7-0.9-0.3-0.6-1.3c-0.1,2.5-2.9,4.1-4,5.5l2-1.2c-0.5,2.7-3.5,4.8-4.9,5.2l-1.2,3.9c-0.3,0.1-0.6,0.3-0.8,0.2
								l0.1,0.9l-2.6,0.6c-0.3,1-3,5.3-2.6,7.5c-0.7,0-3.2,2.6-1.7,0.2l-8.8,10.9l1.8-1.4c1.2,0.5-0.7,4.4-2.5,5.8
								c0.9-2.9-1.3-1.3-2.8-0.9c-0.6,1.9,1.9-0.6,1.8,0.6c-0.8,2.4-3.5,6.7-4.7,7.4l0.5-1.4c-1.6,2.9-4.3,2.7-6.1,5.3
								c-0.9,2.9-3,4-0.9,4.9c-2.2,3.6-2.2,0.4-3.1,1.3c-0.4,2.2-4.4,6.4-5.8,6.3c1.1,3.8-7.8,8.1-6.2,10.4l-3.3,1.7
								c0.5,0.5,1.4,2.1-0.1,4.4c-2.2,1.6-2.8,0.3-3.9,0.5l1,3c-5.8,5-11.4,11.6-17.1,18.4c-2.8,3.4-5.7,6.8-8.7,10.1
								c-1.5,1.6-2.9,3.3-4.4,4.8c-1.3,1.5-2.7,2.9-4,4.4c-1.4,1.5-2.8,3-4.2,4.4c-4.3,5.5-8.7,11.7-13.6,17.8
								c-4.8,6.2-9.8,12.4-15.4,18.6l0.6-1.2l-4.5,4.9c0.3,0.1,0.7,0.2,1,0.3l1.1,0.3l2.2,0.6l4.5,1.2l-4-1.4l-1.9-0.7l-1-0.3
								c-0.3-0.1-0.7-0.2-0.9-0.4l1.5-1.4c-0.3,0.4-0.6,0.8-0.8,1.2l0.5,0.1l0.6,0.1c0.4,0,0.8,0.1,1.1,0.1c0.7,0.1,1.4,0.2,2.2,0.3
								c1.4,0.2,2.7,0.4,4,0.7c7.3,2.2,16.3,4.8,26.5,7.4c5.1,1.3,10.5,2.6,15.9,3.7c2.7,0.6,5.4,1.1,8.1,1.6l2,0.4l0.4,0.1l0.3,0
								l0.5,0.1c0.7,0.1,1.5,0.2,2.2,0.3c0.5-0.1,1-0.1,1.4-0.2l0.2,0c0,0,0,0,0,0l0.1-0.1c0,0,0.1-0.1,0.1-0.1
								c0.2-0.1,0.3-0.1,0.4-0.1c0.2,0.1,0.1,0.5,0.1,0.9c-0.1,0.4-0.2,0.8-0.2,1c0,0.2,0.1,0.2,0.7-0.3c-0.3,0.2-0.6,0.6-0.9,0.9
								c0.5-0.3,1-0.5,1.7-0.7c0.6,0.1,1.2,0.2,2.3,1.1c-1.5,0.3-1.5,0.5-1.3,0.7c0.2,0.2,0.6,0.5-0.2,0.4c0.4,0,0.8,0.3,1.2,0.5
								c-0.8,1.7-1,5.8-1.9,5.2l1.6,3.4l-1.3,0.3c-0.1,4.5,0.9,14.3-1.6,16.6c1,5.6,1.3,12.8,1.3,20.4c0,1.9,0,3.8,0,5.7
								c0,2.8-0.1,5.7-0.1,8.5c-0.1,7.2-0.2,14.3-0.3,20.9c0.1,0.3,0.2,0.7,0.3,1.3c4.4,0.7,10.6,2.7,15.6,4.2
								c1.7,1.1,3.4,2.2,5.2,3.4c1.5,0.4,3.1,0.7,4.7,1l1.2,0.2c0.3,0,0.5,0,0.7,0l1.3,0.1c1.7,0.1,3.3,0.4,4.6,1.4
								c-0.1,0.2-0.2,0.2-0.5,0.3c3.2,0.8,6,2.5,9.4,2.2c3.4,1.2,6.5,3.1,5,4.1c1.1-2.3,7.2,2.8,7.2,2.8s175.3,64.9,222.8,66.3
								c1.8-0.7,6.1-0.1,5.1-2c3.3,0.6,4,3.2,5,2.2c-4-2.2,2.3-2.6-1.3-5.5l2.7,0.6c0.8-0.7-3.9-0.2-2.8-1.6l-1.5,2
								c-2-1.1-3.1-1.9-3.6-2.9c-2.3,0.2-4.6,2.8-9-0.2l1.4,0.3c-3.9-1.2-1.9-2.2-2.6-2.9l0.9,0.3l-2.9-2.2c2.3,1.6,7,1.2,4.8,0.6
								c-4.5-2.2,1,0.9-2.6,0c-2.2-0.6-1.2-1.6-0.9-2.2l-3.9-1.2c0.5-1,2.6,0.9,1.3-0.7L343,971c-0.1-2.9-5.8-0.5-7.2-3.7
								c3.7,0.6,0-1,0.8-1.6l-8.7-2.7c-0.7-0.6,2.6,0,1.2-0.3c-1.4-1.3-2.9-0.3-3.8-0.6c-0.5-1-6.5-2.1-5.7-3.8
								c-5.5-3.1-3.2,1.4-8.4-1.4c-0.4-1.3,4.4,1.2,2.4-0.7l-5.8-1.5c0.7-0.3,1.7-1.3,3.7-0.4c-14.9-6.5-21.4-14.8-35.9-18.1
								c-1.6-1.9,1.7-0.4,3.4-0.7c-10.7-1.7-13.4-7.5-22.1-10.3l-0.5,1c-11-7.2-26.2-10.2-39.4-16.1l1.4,1.3
								c-2.2,0.4-5.3-0.5-7.7-0.8c-0.2-0.6,2.4-1.7-1.8-2.6c0.7,0.6,2.2,1.6,1.6,1.9c-10.8-6.6-35.8-14.2-54.7-21.9
								c-8.3-2.5-16.8-5.4-25.3-8.3c-2.1-0.8-4.2-1.5-6.4-2.3l-3.2-1.1l-1.6-0.6l-0.1,0l0,0l0,0l-0.1,0l-0.1-0.1
								c-0.5-0.3-1-0.6-1.4-0.8l0.1-1l0.1-0.4l0-0.2l0-0.1l0-0.1l0-0.5c0-5.1,0-10.2-0.1-15.1c0.1,4.1-2.6,2.4-2-0.7
								c4.5-8.5-0.8-14.7,2.3-23.4c-0.3-2.8-0.3-5.5-0.3-8.2c0-1.4,0-2.7,0.1-4c0-0.7,0.1-1.3,0.1-2l0-0.5l0-0.7l0-1.9
								c0.3-10,0.6-20.2,0.6-30c-8-1.7-16.3-3.1-24.4-3.9l0-1.3c-1.9-0.7-3.3-1-4.7-1.1c-0.7-0.1-1.4-0.1-2.2-0.2
								c-0.1,0-0.2,0-0.3,0c-0.1,0-0.2,0-0.2,0c-0.1,0-0.2,0-0.4,0c-0.2,0-0.5,0-0.8-0.1l0.1-0.3c-0.6-0.2-1.3-0.4-2-0.6
								c-0.3-0.1-0.7-0.2-1-0.2l-0.3-0.1c-0.1,0,0,0-0.1,0l0,0c-0.1,0-0.3,0.1-0.4,0.1c-0.3,0.1-0.7,0.2-0.6-0.1l-1.1,1.2
								c-0.6,0,0.7-1-0.5-0.4l0.7-0.6c-0.6,0.3-1.3,0.7-2,0.9c1.5-1,1.3-1.1,0.8-1c-0.5,0-1.4,0.1-0.6-0.3c-0.2,0-0.5,0.1-0.7,0.1
								c-0.3,0-0.5-0.2-0.5-0.5c0-0.3,0.3-0.7,0.8-1.1c1.8-0.2,2.4-0.8,3.2-0.8c0-0.1,0-0.2,0.1-0.3c0.8-1,1.6-2.1,2.4-3.2
								c1.8-2.3,3.6-4.6,5.5-7.1c3.8-4.9,8-10,12-14.7l-1.4-0.9l1.9-2.6c0.3,0.3,0.7,0,0.5,0.5c3-0.8,4.2-6.2,6.7-7.5
								c-2.2,0.4-1.6,1.6-2.8,3c-2.2,1.6-1.9-1.4,0.9-3.7l0.2,0.3l0.8-2.4c1.2,0.6,3-0.8,4.2-0.2c6.3-8.5,9-15.6,16.2-23.8
								c0.4,1.8,4.5-6.4,5.1-3.2c3.2-5.8-2.2-0.4-1.8-3.8c1.1-1.4,1.8-3.4,2.7-3.1c-0.1,1,2.1-0.3,1.4,1.1l2.5-3.6
								c0.4-0.2,0.1,0.8-0.1,1.2c4.3-8,10.9-11.7,14.6-18.9c-0.4-1-2.1,2.4-2.5,1.4c3.4-7.5,5.6-4.7,9-11.5l0.1,2
								c0.8-2.5,0.6-3.9,3.7-6.6c1.6,0.3-1.1,3.4-1.7,5.4c1.7-2.2,5.5-8,3.2-7.1c1.6-2.9,3.3-3.1,4.7-4.3c-0.3-0.3-2.6,1.9-2-0.1
								c3.3-3.1,7.4-8.7,10.7-13.1c0.3,0.3,0.9,0.3,0.8,0.8C180.2,645,182.6,647.3,185.8,642.1z"/>
							<path class="st4" d="M324.7,407.9l-0.8-0.3c0,0.3,0,0.7-0.3,1C324,408.4,324.3,408.2,324.7,407.9z"/>
							<path class="st4" d="M281.1,480.4c0,0.3-0.1,0.6,0,0.9C281.2,480.8,281.2,480.6,281.1,480.4z"/>
							<path class="st4" d="M270.4,503.8c0.7-1.7-0.5-0.5-1.3,0C269.4,504,269.7,504.2,270.4,503.8z"/>
							<path class="st4" d="M383.6,406.7c-0.4,0.1-0.6,0.3-0.6,0.6C383.5,407.1,383.6,406.9,383.6,406.7z"/>
							<path class="st4" d="M546.9,408.9c-0.2-0.1-0.4-0.1-0.7-0.2C546.4,408.8,546.6,408.9,546.9,408.9z"/>
							<path class="st4" d="M537.9,406.7c-0.4,0-1,0.1-1.8,0.2C536.8,407,537.4,406.9,537.9,406.7z"/>
							<path class="st4" d="M343.9,405.7c-0.6,0-1.2,0.1-1.7,0.4C343.1,406.1,343.5,405.9,343.9,405.7z"/>
							<path class="st4" d="M534.2,407.3l-2.3-0.1c0,0.1,0,0.2,0,0.3L534.2,407.3z"/>
							<path class="st4" d="M549.8,409c-0.9,0-2.1,0-2.9-0.1C548.1,409.3,549,409.3,549.8,409z"/>
							<path class="st4" d="M443.6,406c-0.1,0-0.2,0-0.2,0C441.6,406.7,442.7,406.4,443.6,406z"/>
							<path class="st4" d="M524.2,409.8c-0.1,0-0.2,0-0.3-0.1l-0.7,0.4L524.2,409.8z"/>
							<path class="st4" d="M559.7,409.5c-0.4,0-0.8,0.1-1.1,0.3c0.4,0.1,0.8,0.1,1.3,0.1C559.7,409.7,559.7,409.6,559.7,409.5z"/>
							<path class="st4" d="M477.8,408.5c0.6-0.5,0.9-0.9,0.9-1.2C477.9,407.3,477.4,407.6,477.8,408.5z"/>
						</g>
					</g>
				</g>
			</g>
		</g>
		<g id="XMLID_22203_">
			<g>
				<g>
					<g>
						<g>
							<path class="st4" d="M626.4,657.2c-0.2-0.1-0.4-0.1-0.6-0.2C626,657.2,626.2,657.2,626.4,657.2z"/>
							<path class="st4" d="M614.5,701.2l-0.2-0.6C614.3,700.9,614.3,701.1,614.5,701.2z"/>
							<path class="st4" d="M632,630.6c0,0,0.1,0,0.1,0.1c0.1-0.4,0.2-1,0.4-1.9L632,630.6z"/>
							<path class="st4" d="M589.3,794.4l0.1-0.6C589.3,794,589.2,794.2,589.3,794.4z"/>
							<path class="st4" d="M605.2,739.4c0.2,0.2,0.3,0.5,0.3,0.8C605.6,739.9,605.6,739.6,605.2,739.4z"/>
							<path class="st4" d="M647.9,618l-1,0.7C647.3,618.7,647.7,618.5,647.9,618z"/>
							<path class="st4" d="M647.1,589.9c-0.1,0-0.1,0-0.2,0.1C647,590,647.1,590,647.1,589.9z"/>
							<path class="st4" d="M642.1,600.3c0.1,0.2,0.2,0.5,0.3,0.8C642.5,600.8,642.5,600.4,642.1,600.3z"/>
							<path class="st4" d="M642.7,601.5c-0.1-0.1-0.1-0.3-0.2-0.4C642.5,601.3,642.5,601.5,642.7,601.5z"/>
							<path class="st4" d="M374.4,966.3c-0.8,0-1.4,0.8-2.1,1.4L374.4,966.3z"/>
							<path class="st4" d="M565.4,878.3l-0.3-0.3C565.1,878.2,565.3,878.3,565.4,878.3z"/>
							<path class="st4" d="M374.1,974.6l-0.6-0.2C373.7,974.6,373.9,974.7,374.1,974.6z"/>
							<path class="st4" d="M648.4,633c0.8,0.9-0.5,2.4,0.4,2.5C648.8,634.7,649.6,633.6,648.4,633z"/>
							<path class="st4" d="M593.5,906.6l-0.1,0.5C593.5,906.8,593.5,906.7,593.5,906.6z"/>
							<path class="st4" d="M374.1,974.6l0.7,0.2c-0.1-0.2-0.2-0.3-0.2-0.5C374.4,974.5,374.2,974.6,374.1,974.6z"/>
							<path class="st4" d="M540.9,947.8L540.9,947.8c0-0.1,0-0.1,0-0.2L540.9,947.8z"/>
							<path class="st4" d="M539.9,946.4c0-0.1,0-0.2,0-0.3C539.8,946,539.9,946.2,539.9,946.4z"/>
							<path class="st4" d="M372.3,967.8l-1.2,0.8C371.6,968.4,372,968.1,372.3,967.8z"/>
							<path class="st4" d="M489.9,951.6c0.2,0,0.3-0.1,0.5-0.2C490.2,951.5,490,951.5,489.9,951.6z"/>
							<path class="st4" d="M606.5,735.9c0.1-0.1,0.2-0.2,0.3-0.4C606.6,735.5,606.4,735.5,606.5,735.9z"/>
							<path class="st4" d="M622.9,776.7L622.9,776.7L622.9,776.7C622.9,776.7,622.9,776.7,622.9,776.7z"/>
							<path class="st4" d="M622.2,774.6c-0.3,0.5,0.1,1.5,0.7,2.2C623,776.1,623,775.5,622.2,774.6z"/>
							<path class="st4" d="M621.5,780.7c0.1-0.1,0.1-0.1,0.2-0.2C621.5,780.5,621.5,780.6,621.5,780.7z"/>
							<path class="st4" d="M631.9,742.8C631.8,742.8,631.8,742.8,631.9,742.8C631.8,742.8,631.8,742.8,631.9,742.8L631.9,742.8z"/>
							<path class="st4" d="M630.4,750.4c-0.2,0.1-0.4,0.3-0.5,0.4C630.1,750.8,630.3,750.6,630.4,750.4z"/>
							<path class="st4" d="M619.5,800.1C619.5,800.1,619.5,800.1,619.5,800.1C619.4,800.1,619.5,800.1,619.5,800.1
								C619.5,800.1,619.5,800.1,619.5,800.1z"/>
							<path class="st4" d="M606.9,872.8c0.8-3.6,1.4-7.9,2.1-12.1c0.4-2.1,0.8-4.2,1.2-6.2c0.4-2,0.9-3.9,1.6-5.6
								c-1.4-2.1-0.9-4.3-0.7-6.7l2.5,0.4l-0.3-2.1c1-0.6,0.1,1.6,1.4,0.5l-1.3-1.1c0.9,0.1,1.9-4.7,2.8-1l2-7.3
								c0.5-1.6-1.8-1.5-0.7-3.1c0.8-0.2,0.3,0.8,1.2,0.9c3.3-4.9-3.2-7.5-0.8-12.2l0.2,0.5c-0.4-1,0.1-2.6-0.3-2.7
								c-2.7,0,1.1,1.2-0.7,2.4c-2.1-0.7-0.6-2.2-2.3-2.5c1.1-1,0-2,0.2-3c1.8-1.4,1.5-4.1,3.4-5c-0.4-1-2.3-2.5-1.9-4.3
								c2-0.9,1.5,0.7,2.6-0.9L618,801c0.6-1.4,0.8-1.1,1.4-0.9c0.5-1.6-1.3-1.7-0.1-3.5l0.9,1.4c-0.1-1.6,0.3-2.1,0.9-4.1
								c0.7,0.2,0.5,1,0.1,1.6c2.1-0.7-0.3-2.1,0-2.6c-0.6,0-1.1,1.4-2.2,0.4c0.5-1-1.1-2.5,0.5-2.9l0.9,1.4
								c-0.5-2.3-1.3-1.5-0.2-3.8c0.1,0.2,0.4,0.2,0.6,0.3c-1.2-1.9,0.7-3.6,1.3-5.8l0.2,0.5c-0.2-1-1.2-1.8-1-2.2
								c-1,1.1-1.3,0.7-2.5,0.5c2.4-1.2-1.7-3.1,0.1-5.6c0.7,0.2,1.4,1.1,0.5,1.7c1.8,1.4,3.6,2,4.2,3.9c-0.2-1.2-0.2-2.5,0.6-2
								l-1.8-0.8c0.1-0.6,0.3-1.1,0.4-1.6c-1.2-0.6-2.3,0.8-2.8-0.8c-0.2-1.8,2.2-0.4,1.4-0.9c-0.2-2.5-1.8-1.4-0.7-3.5
								c0.1,0.3,0.3,0.8,0.1,0.9c1.2-1.4,0.6-4,3-3.9c0.5,0.4,1.2,0.6,0.8,1.1l-0.3-0.1c1.3,2.1-0.1-1.6,1.9-0.5
								c-1.3-0.2-0.5-2.3,0-3.3l-1.5,0c-3.5-4.3,2.8,0.8,3-2.6c-0.5-2.3-0.6,0.7-1.3-0.8c0.6-1.4,1.9-1.6,1.8-3.8
								c0.7-0.5,1.7-1.5,3.3-1.2c-0.4-1.4,1.5-3.7,0.1-4.7c-1.8,1.9,1.2,2.5-1.4,4.6l-1.4-1.1c0.5-1.7,0.2-4.1,1-5.2
								c-0.4,0.2-0.8,0.2-1.1,0c-0.1-2.6-1.5-3.7-0.5-6c1.5,0,0.9,1.4,0.8,2.4c1.5-1.3,0.4-1.6,1.4-3.9c1.3,0.1-0.4,1.6,0.7,2.2
								l0.2-2.8c0.1,0,0.2,0,0.3,0.1c-2-0.8,0.6-2,0.4-3.8c0.9-3.9-1.8-5.1-3-7.5c0.7-0.5,1.3-0.5,1.7-0.2c-1.1,0.8-0.4,0.7,0.1,1.2
								c0.1-1.4,2.7-2.4,3.4-1.5c-0.2-2.2-1.3,0.5-1.6-0.9c0.3-0.9,0.5-1.9,0.7-2.8c-1.1,0.1-1.6,1.1-2.1-0.6
								c-0.1-1.3,0.3-1.9,0.7-3.5c0.5,0.3,1.7-0.2,1.4,1c0.6-0.7,0.8-1.9-0.1-2.6c-1.3,1.6-0.4-3.1-2.3-2.1l1.3-1.6
								c-0.1,0.4,0.6,0.6,0.3,1.1c1.7-0.2-0.2-1.6-0.2-2.2c0.4-0.6,0.9-2.2,1.6-2.2c-0.3-0.7,0.3-2,1.2-2.1
								c-0.2-0.9-1.1-0.3-1.5-0.6l0.7-2.8c0.9,0,3.5,0.3,3.7,0.8c-0.6-1.2-2.6-0.9-2.2-2.5c1.6,1.3,1.8-1.9,3.6-0.2
								c1.5-0.7,1.9-3.4,1.8-4.9c-1.2-1.2-1.1,1.4-2.5,1.1c0.3-4.2-3.6-5.2-2.3-8.1l-0.6,0.7c-0.4-2-0.3-1.8-1.3-3.1
								c1.7,0.8,5.1-1.3,5.3-4.5c-0.8-0.4-2,1.4-3.3,0.7l0.1-2.1c0.2-0.1,0.4,0.2,0.6,0.5c-0.3-2,2.9-3.1,0.9-3.9l2.9-1.4l-1.2,0.6
								c-0.8-0.4-0.7-2.5-1-3c-0.6-2.3,0.3-2.9,1.6-3.9c-0.8,0.2-2.6,0.9-2.6-0.8c2.9,0.5,1.7-3.3,3.1-3c0.1-0.7,1.2-1.7,0-2
								l1.8,0.4c-2.5-0.6-1.9-3-2.1-5c3.3,1,0.1-2.1,3.3-2.5c-2.2-0.7-0.3-3.5-2.2-4.1c0.1-1.5,2.3-1,3-1.3l-0.8-0.8
								c1.2-0.6,1.7-3.3,2.7-4.8l-1.8-1.8l1-0.4c-0.5-0.3-0.6-1.6-1.5-1l0.2-0.8c-2.2-0.4-0.4-1.2-1.2-3c0.4-0.3,0.9-0.2,1.2,0.2
								c0.1-0.8,1.2-0.3,2-0.6c-0.7,0.5-3.6-3.5-4.9-1.5c-0.9,0-1.4-1.4-0.9-2.1l2.1-0.2l-2-1.3c-0.1-1.3,1.2-1.7,1.6-2.6
								c0,1.1,3.5,2.9,3.8,0.2c0.1,1.5,1.1,2.3,1.4,3.1c0.2-0.5,0.4-0.8,1.1,0.2c-0.3-2.2-1.1-0.9-1.1-3c1.8,0.4,2.4-0.1,3.3-1.9
								l-1.5,1.2c-0.2-0.1-0.4-0.2-0.4-0.3c-0.3,0.5-0.6,0.6-1.3,0.6c0.1-0.4-1.9-2.7-0.7-2.9c-3.1,1.7-1.6-3.9-3.5-2.8
								c-0.5-0.3-0.4-1.8,0.5-1.8c1.1,1.9,2.2-1,3.4-0.6c-0.4-0.7-1.5,1.2-2.1,0.2c0-1.1,1.2-1.7,1.9-2.2l0.3,0.5l1-1.5
								c-0.9-0.4-1.7,1.4-2-0.2c0.4-0.3,0.2-1.9,0.9-1.7c1.1,0.9,2.8,0.6,3,1.9c0-1.1,0.3-4.4-1.6-3.3l0.2-1.2
								c-0.9,0.7-2.5,2.7-2.4,0.2l0.4,0.1l-1.1-1.9l1-0.6c-0.5,0-0.8-0.4-0.7-1c0.6-0.1,0.8-0.7,1.6-0.5c0.1-1.9-0.8-1.8-1.3-2.2
								c0-1.1,0.4-1.4,1.4-0.8c0.4-1.4,0.4-3.9,1.5-4.8c-0.6-2-0.4,0.4-1.5-0.9c3.3-1.3,1.9-6.2,1.9-9.4c-2.8,0.6-0.2-0.9-2.6-1.7
								c0.8,0.8,2.5-2.7,2.9,0.1l-0.1-1.7c1.6-1,0.8,2.9,3.1,1.4c0.1-1.9-2.7-3.4-1.5-5.5c1.9,0.9-0.5-1.8,1.6-1
								c0.7,0.5,0.4,1.1,0.5,1.8l0.4-0.4c1-4.1-2.2-1.4-3.3-3.7c0-2.5,1.8-1.8,2.7-1.9c0.4-0.4,0.3-1.6-0.2-2.4
								c1,1.6-1.5,2.7-2.7,1.9c2.3-0.9,0.6-3.7-0.2-4.5c-2.7,3.4-0.4,2.5-3.3,5.6c0.6,0.5,2.6,0.7,1.6,2.6c-0.8-1.4-1.1,0-1.5,0.3
								c1.2-0.3,0.3,1.4,0.7,2.1c-1,0.5-2.5-1.5-3.2,0.5l2.6,0.7c-0.5,0.8-1.9-0.5-1.5,1.2c-1.3-1.1-2.2,0-2.4-2.3
								c-2.6,2.5,0.8,4.3,1.5,6.6c-0.1-0.2-0.5-0.3-0.7-0.5c0.7,0.5,0.5,1.4,0.6,2c-0.8,1.3-1.1-1.2-1.9-1l-0.2,2.3
								c-0.1,0-0.1,0-0.2,0c0.3,0.6,0.5,1.2-0.2,1.4c-0.8-0.8-1.7-1.1-2.3-1.7l1.6,2.6c-0.9-0.4-1.7,1.8-2.2,0l0,3.6l-1.8,0.1
								c0.2,0.9,0.6,0.9,0.9,0c-0.5,1.2,2.6,5.7-0.9,4.7c1.2,2.9,0.5,3.9,1,7.3c-1.3-2.8-2.5,2.7-2.9-0.1c-1,1.5,0.9,2.1,1,3.4
								c-0.9,1.1-2.6,0.3-3.1-1l0.6,1.6l-0.4-0.1l0.8,1.4c-1.2,1.2-1.9,0.1-2.3,1.4l1.6,0.5l-1.1,0.8c0.8-0.3,1,0.6,1,1.7l-0.4-0.1
								l0.1,1.3c-0.8-1.4-0.5,1.1-1.6,0.4c-0.2,1.1-0.2,1.1-0.2,3.1l1.1-0.2c0.6,2.7-1.6-0.1-2,1.9l1.3,0c-2.5,2.6,0.5,5.2-1.2,7.1
								c-0.1-1.3-1.6-1.2-1.3-1.1c0.2,1.9-0.6,4.9,0.7,7.1c-1.9,0.4-2.5,0.5-3.6,2.4c-0.1,1.5,0.1,1.7,1,2.3
								c-0.9,1.3-0.3,4.1-1.6,3.9c1,0.5-0.4,1.2,0.3,2.1l-0.6,0.1l1.3,0.1c-3.2,2,0.9,4.4-2,6.5l-0.3-0.5l0.3,1.1
								c-0.6,0.1-0.8-0.4-1.5-0.6l-1.1,4.8l1.1-0.8c0,1,1.1,1.9,0.1,3c-1.5-2.3-0.3,1.6-1.8,1.7l-0.3-1.1c-0.1,1.4-0.1,1.4,1.2,1.5
								c0.1,1.9-2.6,0.9-1.5,2.8l0.3-1.2c0.8-0.2,1.7,0.8,1.5,1.6c-0.2,0.2-0.9,0.6-0.9,0c0.2,1.5-0.8,3.6-0.4,4.3
								c-0.5,0.7-1.4,0.3-1.6-0.2c0.6,3.3-0.5,1.4,0.1,4.7l-0.7-0.2l0.7,1.2l-1.8,1.3l1-0.4c0,1,0.3,1.8-0.3,2.9l-1-0.7
								c0,3-2.4,3-1.5,6c-0.2,0.2-0.5-0.3-0.6-0.6c1.2,2.8-2.2,1.6-0.7,4.5c-0.3-0.2-0.8,0-1.1-0.2l0.5,1.3l-1.4-0.4l1.9,1.3
								l-1.6,0.4l0.6,0.6c-3,0.7-1.2,2.9-3.6,4.2l1.9,0.1c2.9,5-4,9.4-3.2,14.9l-1.4-0.4c0.4,0.8,0.8,1.6,1.2,2.5
								c-1.4,0.9-1.1-0.9-1.9-0.7c0.3,2.4,1.9,1.4,1.7,4.1c-1.2,1.2-0.9-0.7-1.3-1.4c0.2,2.6,0.2,6.4-1,8c0.2,0.1,0.4,0.2,0.5,0.2
								c0.3,1.8-0.8,3.8-1.1,5.7c-0.6-0.2-0.6-0.7-0.7-1.1c-0.2,0.6-0.9,1.4-0.3,2.1l-1.1-0.9c-0.5,1.3,0,4.3-1.5,4.3
								c0.6,0,1.6,0.3,1.3,1.4c-2.3,0.2,0.2,3.5-1.4,5.2c-0.5-0.3-0.3-1.8-0.4-1.4c-0.8,0.8,0,1.9,0.5,2.9l-0.8-0.5l0.2,4.8
								c-2.3,0.2-0.7,4.3-2.2,3.6c-0.5,1.6,1.3-1.1,1,1c-1,0.3,0,1.9-1.4,1.5l-0.1-0.3l-0.2,1.4l-1.2-1.2c0,1.3,1.2,2.5,2.2,2.8
								c-1,1-0.8,2.8-2.2,3l-0.2-0.5c-0.2,3.4-5.1,4.5-3.3,7.6c-0.2,0.1-0.6,0-0.5-0.4l-0.6,2l-0.9-0.7l0.8,3.7l-0.7-0.2
								c-0.8,2.1-1.2,5.6-1.7,8.5l-0.2-0.5c0.3,3.3-1.4,2.8-1.2,5.2c-0.2-0.1-0.2-0.2-0.2-0.3l-0.5,2l-0.6-0.6
								c1.1,1.9-3.1,3.8-1.5,3.2c0.4,1,0.9,2.7,1.7,3.1c-0.5,2.2-1,0.3-2,1.5c-0.5,1.6,0.7,2.2-0.5,4.1l-0.7-0.2
								c-0.1,1,0.2,1.8,0,3.2l-0.2-0.5c0.9,2.7-2.8,2.3-0.2,4.9c-0.8,0.8-0.8,2.7-2.2,2.3c0.1,3.1-0.1,5.4-0.3,8.4
								c-2.4-0.2,0,0.6-1.8,2l1.3,0.2c-0.9,4-5.2,7.8-5.9,12.3l-1.3-0.2l1.1,1.3c-1.8,4.6-4.2,10.5-5.3,14.2
								c0.3,1.4,1.2,3.7,0.2,5.5l-0.1-0.3c-0.3,3.6-0.8,7.4-2.6,10.8c-0.4-0.4-0.9-0.1-1.1-0.6c1.1,1.3-0.6,2.2-0.9,3l1.2-0.6
								c0.8,1.4-0.7,2.6-1.8,2.8l0.8,2.1c-0.2,0.1-0.4,0.2-0.6,0.1l0.6,0.5l-1.9,0.4c0.2,0.5-0.1,2.8,1.3,4c-0.6,0-1.5,1.4-1.4,0.1
								l-2.3,5.9l0.9-0.8c1.3,0.3,1.5,2.3,0.6,3.1c-0.6-1.5-1.7-0.6-2.7-0.4c0.4,1,1.3-0.4,1.8,0.3c0.5,1.3,0.2,3.6-0.5,4l-0.3-0.8
								c0,1.5-2.3,1.5-2.7,2.9c0.6,1.5-0.6,2.2,1.5,2.6c-0.2,1.9-1.6,0.2-2,0.7c0.7,1.2-0.7,3.5-1.9,3.4c2.7,2-2.6,4.5-0.2,5.7
								l-1.9,1c0.7,0.3,2.1,1.1,2,2.4c-1.1,0.9-2.2,0.2-3,0.3l2.3,1.6c-4.9,5.5-5.9,14.6-10.6,20.8c-0.3,1.7-0.5,3.6-0.8,5.5
								c-0.2,1-0.4,1.9-0.6,2.9c-0.1,0.5-0.3,0.9-0.4,1.4c-0.1,0.2,0,0.1-0.1,0.1l0,0.1c0,0-0.1,0.1-0.1,0.1l-0.3-0.2
								c-0.3,0.1-0.6,0.1-0.8,0.1c0.4,0.1,0.8,0.2,1.2,0.2c0.2,0.3,0.6,0.7,0.6,0.8c-0.6,0.1-1.3,0.1-1.6,0.1
								c-0.1,0-0.2,0.1-0.2,0.1c-0.1,0-0.2,0-0.3,0c-0.1,0.1-0.2,0.2-0.3,0.6c0.3,1.5-0.1,0.9-0.4,0.1c-0.3-0.8-0.5-1.6-0.5-0.5
								c0-0.3-0.1-0.7-0.1-1c0,0.3-0.1,0.5-0.1,0.7c-0.7,0.3-1.3,0.6-2,0.8c-1.3,0.6-2.6,1.3-4.3,2.3c0.2-3.1-2.3,0.2-2.1-1.4
								l-0.2,1.3c-0.8-0.7-2.7-0.8-2.5-1.7l-1.4,1.7l-0.2-1.3c-2.1,0.1-6.4,1.4-7.7-1.1c-4.9,2.3-13,2.4-19.4,2.3
								c-0.8,1.1-2.7,1.3-4.1,1.6l-1.7-1.4c-1.4,0.6-2.9,2.6-4.3,1.7c0-0.2,0-0.3,0.1-0.4c-1.5,0.4-3-0.3-4.3,1.2
								c-1.7,0-3.3-0.6-2.9-2.1c0,2.5-3.5-0.1-3.5-0.1S394,951,374.4,966.3c-0.6,1.3-2.5,2.2-1.6,3.7c-1.4,0.6-2.3-1.6-2.5-0.3
								c2.1,0.7-0.4,3.3,1.7,4.7l-1.2,0.4c-0.2,0.9,1.6-1.1,1.5,0.5l0.2-2.4c1.1,0.3,1.7,0.7,2.1,1.5c0.9-1,1.3-4.2,3.7-3l-0.6,0.2
								c1.9-0.2,1.3,1.4,1.7,1.8l-0.4,0l1.7,1c-1.3-0.7-3.1,1.4-2.1,1.1c2.3,0.5-0.6-0.5,1-0.9c1-0.2,0.8,1.1,0.8,1.8l1.9-0.2
								c0,1.1-1.2,0-0.4,1.1l2.3-1.3c0.6,2.7,2.5-1.5,3.7,1c-1.6,0.8,0.2,0.9,0,1.8l4.1-0.5c0.4,0.4-1,0.9-0.4,0.7
								c0.8,0.7,1.2-0.8,1.7-0.8c0.4,0.7,3.1-0.3,3.1,1.6c2.9,1,1-2.4,3.7-1.6c0.4,1.1-2.1,0.4-0.8,1.5l2.7-0.6
								c-0.2,0.6-0.4,1.8-1.4,1.7c7.5,0.9,11.9,6.4,18.5,4.4c1,1.2-0.6,0.9-1.2,1.8c4.7-2.1,7.1,2.3,11.2,1.9l0-1.1
								c6,2.9,12.8,0.4,19.5,1.3l-0.8-0.7c0.8-1.1,2.3-1.3,3.3-1.9c0.2,0.5-0.6,2.4,1.3,1.8c-0.4-0.4-1.3-0.7-1.1-1.2
								c5.8,2.4,17.6,0.8,26.9,1.4c12.4-1.8,26.1-0.7,38.3-2.3c-1.9,0.2-1.3-2.5,0.2-2c4.2,4.2,6.6-1.3,10.8,1.5
								c3.5-1,6.9-0.6,10.3-0.5c1.7,0.1,3.3,0,5-0.2l0.2,0l0.3,0l0.6-0.1l1.2-0.2c0.8-0.1,1.6-0.3,2.3-0.5c1.5-0.3,3-0.8,4.4-1.3
								l0.6,1.2c2.1,0.4,2.3-0.5,4.2-0.8l0.1,0.4c2.4,0,5-0.4,7.2-0.8c1.1-0.2,2.1-0.4,3.1-0.5c0.2,0,0.5,0,0.7-0.1
								c0.1,0,0.2,0,0.3,0c0.1,0,0.1,0,0.2,0l0.1-0.1c0.2-0.4,0.3-0.7,0.5-0.9l-1-1.5c0.9-2.6,1.3-0.4,1.7-3.6l0.5,0.7l0.1-4.1
								c0.9,1.1,1.7-0.7,2.4-2.9c0.7-2.2,1.3-4.7,2.2-5.4c0.4-1.7,0.9-4.1,1.5-6.8c0.3-1.5,0.7-3.1,1.4-4.4c1.4-0.1,2.6-3.5,4-5.4
								c0.6-2.2,1.3-4.8,2.2-7.5c0.8-2.7,1.8-5.6,2.9-8.2l-1.6-0.4l0.4-1.4c0.3,0.1,0.6,0,0.7,0.3c2.1-0.5,0.5-3.4,2-4.2
								c-1.6,0.2-0.5,0.9-0.9,1.7c-1.1,0.9-2.3-0.7-1-2l0.3,0.1l-0.5-1.3c1.3,0.3,2.1-0.5,3.4-0.2c1.2-4.7,0.1-8.5,2.3-13.1
								c1.2,0.9,0.8-3.5,2.8-1.8c0-3.1-2.1-0.1-3.3-2c0.3-0.8-0.1-1.8,0.8-1.7c0.4,0.6,1.6-0.2,1.7,0.5l0.4-2
								c0.2-0.1,0.4,0.4,0.5,0.7c-0.1-4.3,3.7-6.4,3.4-10.4c-0.8-0.5-0.7,1.3-1.4,0.8c-0.7-4.1,2.5-2.6,2.3-6.3l1,1
								c-0.5-1.3-1.4-2.1,0.1-3.5c1.5,0.1,0.7,1.8,1.1,2.9c0.4-1.2,1-4.3-0.6-3.8c0-1.6,1.4-1.7,2-2.4c-0.3-0.1-1.3,1.1-1.7,0
								c1.4-1.7,2.3-4.7,3.1-7.1c0.3,0.1,0.9,0.1,1,0.4C603.4,874.4,606.5,875.5,606.9,872.8z"/>
							<path class="st4" d="M632.3,741.9l-0.4,0.9c0.3,0.1,0.7,0.2,0.9,0.7L632.3,741.9z"/>
							<path class="st4" d="M620.9,788.2c0.1,0.1,0.2,0.3,0.3,0.4C621.2,788.4,621,788.3,620.9,788.2z"/>
							<path class="st4" d="M620.6,800.1c-0.1-0.9-0.7-0.3-1.1,0C619.8,800.2,620.1,800.3,620.6,800.1z"/>
							<path class="st4" d="M633.9,714.6c0.1,0.2,0.3,0.3,0.6,0.4C634.2,714.7,634.1,714.6,633.9,714.6z"/>
							<path class="st4" d="M647.3,641.2c-0.1,0.1-0.1,0.2-0.3,0.3C647.1,641.4,647.2,641.3,647.3,641.2z"/>
							<path class="st4" d="M644.4,645c0,0.2,0,0.5,0.1,0.9C644.7,645.5,644.6,645.2,644.4,645z"/>
							<path class="st4" d="M630.9,732.5c0,0.3,0,0.6,0.3,0.9C631.3,732.9,631.1,732.6,630.9,732.5z"/>
							<path class="st4" d="M644.7,646.7l-0.3,1c0.1,0,0.2,0,0.3,0.1L644.7,646.7z"/>
							<path class="st4" d="M647.6,639.9c-0.1,0.4-0.2,0.9-0.4,1.3C647.7,640.7,647.8,640.3,647.6,639.9z"/>
							<path class="st4" d="M637,687.4c0,0,0,0.1,0,0.1C637.5,688.4,637.4,687.9,637,687.4z"/>
							<path class="st4" d="M646.6,651.6c0,0-0.1,0.1-0.1,0.1l0.4,0.4L646.6,651.6z"/>
							<path class="st4" d="M648.8,635.5c0,0.2,0,0.4,0.2,0.6c0.1-0.2,0.2-0.3,0.2-0.6C649.1,635.6,648.9,635.6,648.8,635.5z"/>
							<path class="st4" d="M641.8,672.4c-0.5-0.4-0.8-0.5-1.1-0.6C640.7,672.1,640.9,672.4,641.8,672.4z"/>
						</g>
					</g>
				</g>
			</g>
		</g>
		<g id="XMLID_22251_">
			<g>
				<g>
					<g>
						<g>
							<path class="st4" d="M701.1,704.1c-0.2-0.1-0.4-0.1-0.7-0.1C700.7,704.1,700.9,704.2,701.1,704.1z"/>
							<path class="st4" d="M722.3,802.3l-0.6-1C722,802,722.2,802.3,722.3,802.3z"/>
							<path class="st4" d="M690.2,645c0.1,0.1,0.1,0.1,0.2,0.1c-0.2-0.9-0.4-2.1-0.7-4.2L690.2,645z"/>
							<path class="st4" d="M843.7,959l-1.3,0.1C843,959.1,843.4,959.1,843.7,959z"/>
							<path class="st4" d="M747.7,886.1c0.4,0.3,0.7,0.9,1,1.5C748.5,886.8,748.2,886.2,747.7,886.1z"/>
							<path class="st4" d="M698.2,611.3l-0.6,1.8C697.9,613,698.2,612.4,698.2,611.3z"/>
							<path class="st4" d="M684.3,552.3c-0.1,0.1-0.1,0.1-0.2,0.2C684.3,552.5,684.3,552.4,684.3,552.3z"/>
							<path class="st4" d="M684.2,576.3c0.2,0.5,0.4,1.1,0.7,1.6C684.8,577.2,684.6,576.3,684.2,576.3z"/>
							<path class="st4" d="M685.3,578.6c-0.1-0.2-0.2-0.5-0.4-0.8C685,578.3,685.1,578.7,685.3,578.6z"/>
							<path class="st4" d="M692.5,394.1c-1-1.4-2.5-2.2-3.9-3.1L692.5,394.1z"/>
							<path class="st4" d="M934.9,821.6l0.4,0.4C935.2,821.6,935,821.6,934.9,821.6z"/>
							<path class="st4" d="M684.5,397.2l-0.6-1.1C684.1,396.6,684.3,396.9,684.5,397.2z"/>
							<path class="st4" d="M706.7,642.3c1.3,1.5,0.9,5.3,1.8,5C707.9,645.5,708.1,642.8,706.7,642.3z"/>
							<path class="st4" d="M916.8,773.3l2.1-0.1C918,773.2,917.3,773.2,916.8,773.3z"/>
							<path class="st4" d="M684.5,397.2l0.7,1.3c0.1-0.2,0.1-0.4,0.1-0.6C685,397.7,684.7,397.5,684.5,397.2z"/>
							<path class="st4" d="M927,692.7C927.1,692.7,927.1,692.7,927,692.7c0.2,0.1,0.3,0.2,0.4,0.3L927,692.7z"/>
							<path class="st4" d="M921.7,683.3c0.5,0.5,1.1,1,1.6,1.6C922.7,683.9,922.2,683.5,921.7,683.3z"/>
							<path class="st4" d="M688.6,391l-2.2-1.8C687,389.9,687.8,390.5,688.6,391z"/>
							<path class="st4" d="M850.6,593.3c0.2,0.3,0.5,0.5,0.7,0.8C851,593.7,850.8,593.4,850.6,593.3z"/>
							<path class="st4" d="M745.5,878.2c0-0.3-0.1-0.6-0.1-1C745.2,877.2,745.1,877.3,745.5,878.2z"/>
							<path class="st4" d="M794.4,934.1L794.4,934.1L794.4,934.1C794.4,934.1,794.4,934.1,794.4,934.1z"/>
							<path class="st4" d="M792.6,934c0.1,0.4,0.3,0.7,0.6,0.7c0.1,0,0.2,0,0.2,0c0,0,0.1,0,0.1,0c0,0,0.1-0.1,0.2-0.1
								c0.3-0.2,0.5-0.4,0.7-0.6c-0.1,0-0.3,0-0.5,0.1c-0.1,0.1-0.1-0.1-0.2-0.1c0,0-0.1-0.1-0.2-0.1
								C793.4,933.9,793.1,933.9,792.6,934z"/>
							<path class="st4" d="M798.3,934.3c-0.1,0-0.1-0.1-0.2-0.1C798.2,934.3,798.2,934.3,798.3,934.3z"/>
							<path class="st4" d="M771.3,872.5C771.3,872.5,771.3,872.5,771.3,872.5C771.3,872.5,771.3,872.5,771.3,872.5L771.3,872.5z"/>
							<path class="st4" d="M777.1,888.1c-0.1,0.3-0.1,0.8,0,1.2C777.2,889,777.2,888.6,777.1,888.1z"/>
							<path class="st4" d="M837.5,928.7C837.5,928.7,837.5,928.7,837.5,928.7C837.5,928.7,837.6,928.7,837.5,928.7
								C837.6,928.7,837.5,928.7,837.5,928.7z"/>
							<path class="st4" d="M897.8,860.3c1,16,3.5,36.6,3.4,52.4c0.5,0.8,0.9,1.8,1.2,2.8c0.1,0.3,0.1,0.5,0.2,0.8l0.1,0.4
								c0,0.1,0,0.2,0,0.2l0,0c0.1,0.1,0.2,0.2,0.3,0.3c0.3,0.4,0.5,1,0.7,1.6c-0.9-0.3-1.7-0.7-2.6-1c0.3,0.2,0.6,0.5,0.8,0.9
								c-0.4-0.2-0.5-0.3-0.7-0.5c-0.1-0.2-0.3-0.3-0.8-0.5c0.5,0.4,1.1,0.8,1.6,1.2c-0.5-0.3-0.6-0.1-0.9-0.2
								c-0.4-0.2-0.7-0.5-1.4-1.3c-0.1-0.1-0.1-0.1-0.2-0.2l0,0l-0.2,0c0,0,0.1,0.5,0.1,1c0,0.2,0,0.4,0,0.6l0,0c0,0,0,0-0.1,0
								c-0.1,0-0.3,0-0.5,0.1c-0.3,0-0.8,0-1.3,0c-0.9-0.7,1.4-0.6,1-1.5c-12.1-1-13.5,6-24.7,5.7l0.9-0.4c-1.8,0.8-5.5,1-5.5,1.4
								c1.6,2.5,1.9-1.5,5.4-0.3c-0.1,2.2-4.2,1.5-3.8,3.1c-2.7-0.6-4.1,0.8-6.4,1.1c-4-1.1-9.5,0.3-12.5-1.1
								c-1.8,0.8-3.8,3.1-7.9,3.5c-3.1-1.5,0.6-1.7-3.5-2l-0.5,1.3c-3.3,0.1-2.8-0.3-2.7-0.9c-3.5,0.2-2.8,1.9-7.2,1.5l2.4-1.4
								c-3.2,0.7-4.5,0.6-9.1,0.9c0-0.7,1.9-0.8,3.2-0.7c-2.6-1.7-4.1,1.1-5.5,1c0.4,0.5,3.6,0.5,2.1,1.9c-2.3-0.1-4.6,2.1-6.4,0.7
								l2.4-1.4c-4.6,1.3-2.4,1.8-7.8,1.7c0.3-0.1,0.1-0.4,0.2-0.7c-1.6,0.9-3.6,1.1-5.8,1.1c-1.1,0-2.2-0.1-3.4-0.1
								c-1.1,0-2.7,0-2.9,0l0.4-0.4c-0.7,0.5-1.3,1.7-1.8,1.6c1.2,0.6,0.9,1,1,2.2c-1-1-1.7-0.3-2.9,0.5c-0.6,0.4-1.3,0.8-2.1,1.1
								c-0.8,0.3-1.7,0.4-2.4,0.1c0.5-0.8,1.8-1.7,2.4-1c1.1-1.2,1.7-2.2,2.4-3.1c0.6-0.9,1.2-1.6,1.9-2.2c-0.9,0.6-2.1,1-1.5,0
								c-0.3,0.7-0.7,1.4-1,2.1c-0.6,0.1-1.1,0-1.5,0c-0.5,0.7-0.5,1.2-0.5,1.6c-0.1,0.5-0.2,0.9-1.4,1.4c-0.2,0.1-0.3,0.1-0.4,0.1
								c-0.1,0-0.1,0-0.1-0.1c0,0,0-0.1-0.1-0.1c-0.1-0.2-0.1-0.3-0.1-0.5c0-0.3,0.1-0.7,0.3-0.9c0.3-0.5,0.7-0.8,0.3-0.5
								c-0.8-0.8-1.3-0.7-1.7-0.6c-0.2,0-0.3,0-0.5-0.2c-0.2-0.2-0.3-0.6-0.5-1.5c0.3,0.2,0.8,0.5,0.7,0.9c-0.1-1.3-0.7-2.5-1.1-3.6
								c-0.4-1.1-0.5-2.2,0.5-2.9c0.6,0.1,1.3-0.2,1.4,0.5l-0.3,0.1c1.2,0.5,0.9,0.2,0.6-0.3c-0.1-0.3-0.3-0.6-0.3-0.8
								c0-0.2,0.2-0.5,0.8-0.5c-1.1,0.8-2.7-3.9-3.3-6l-1.1,1.2c-6.8-5.1,2.8-0.7-0.4-7.2c-2.6-3.9,0.3,1.8-1.7-0.5
								c-0.9-3-0.1-4.6-2.4-8.6c0.1-1.4-0.1-4.1,1.3-4.9c-1.6-2.3-2.3-8.1-4.3-9c0.4,4.9,3.2,3.8,3.2,9.7l-2.1-0.9
								c-1.3-3.6-3.7-7.9-4.1-10.6c-0.1,0.6-0.4,1-0.8,0.8c-1.2-2.5-2.4-3.9-3.4-5.4c-1-1.5-1.9-3-2.5-5.6c1.2-1.2,1.9,1.9,2.8,4
								c-0.1-3.6-1.1-3.4-2.5-8.6c1.1-0.7,1.1,3.4,2.5,3.6l-2.3-5.4c0.1,0,0.2-0.1,0.2-0.1c-2.3-0.1-1.3-4.3-3.1-7.5
								c-0.7-2-1.4-3.5-2.2-4.8c-0.7-1.2-1.5-2.2-2.2-3c-1.5-1.6-3.1-2.7-4.6-4.6c0.1-1.4,0.5-1.9,1.2-1.6c-0.2,2.3,0.4,1.7,1.1,2.2
								c-1.1-2.7,0-6.7,1.3-5.4c-2-4.2-0.5,1.9-2.1-0.5l-1.8-6c-0.8,1-0.3,3.2-2.2,0.4c-1.1-2.5-1.4-3.8-2.4-7.3
								c0.7,0.3,1.2-1.6,2,1c-0.1-1.8-0.9-4.4-2.2-5.1c0.2,4.1-2.8-5.9-3.6-2.6l-0.2-4.1c0.2,0.9,1,0.7,1.2,2.1
								c1.3-1.6-1.4-2.9-2-4.2c-0.1-1.4-1-4.9-0.5-5.4c-0.8-1.1-1.4-4.1-0.7-4.9c-0.9-1.7-1.1,0.2-1.8-0.2c-0.6-2-1.1-4-1.7-6.1
								c0.8-0.6,3.1-1.8,3.7-1c-1.5-2-2.8,0-3.7-3.5c2.3,1.5,0-4.9,2.9-2.7c0.7-2.3-1-8-2.3-10.9c-1.9-1.5,0.2,3.6-1.2,3.8
								c-3-8.6-7.1-8-8.2-14.7l0.1,1.8c-1.9-3.8-1.6-3.4-3.4-5.4c2,0.6,3.4-5.8,1.3-12.4c-1-0.3-0.7,4.1-2.3,3.4l-1.4-4.3
								c0.1-0.4,0.5,0.1,0.8,0.6c-1.7-3.8,0.3-7.9-2-8.5l1.5-4.7l-0.7,1.9c-1-0.3-2.5-4.7-3-5.5c-2.1-4.3-1.7-6.1-1.2-8.9
								c-0.5,1-1.7,3.3-2.8-0.2c2.8-0.7-0.8-7.7,0.7-8c-0.4-1.4-0.1-4.2-1.4-4.1l1.8-0.2c-2.5,0.3-3.7-5-5.1-8.9
								c3.6,0.1-1.4-4.3,1.3-6.9c-2.4-0.2-2.5-7-4.6-7.2c-0.8-3.1,1.4-3.3,1.9-4.2l-1.2-1.3c0.7-1.8-0.4-7.7-0.5-11.3l-2.7-2.8
								l0.6-1.4c-0.6-0.4-1.5-3-1.9-1.2l-0.3-1.8c-2.2,0.3-1.2-2.3-2.9-5.6c0.2-0.9,0.7-0.8,1.2-0.1c-0.4-1.8,0.9-1.2,1.5-2.4
								c-0.3,1.4-5.2-5.5-5.3-0.5c-0.8,0.5-2-2.1-2-3.9l1.8-1.5l-2.5-1.6c-0.8-2.6,0.2-4.1,0-6.3c0.6,2.2,4.8,4.2,3.6-1.6
								c0.9,3,2.3,4.2,3,5.7c-0.2-1.2-0.1-1.8,1.1-0.2c-1.5-4.4-1.5-1.3-2.7-5.7c1.8-0.1,2.1-1.5,2-5.5l-0.7,3.2
								c-0.2-0.1-0.4-0.3-0.6-0.5c0,1.1-0.2,1.5-0.8,1.9c-0.2-0.9-3.2-4.7-2.3-5.7c-1.9,5-3.7-7.4-4.8-4.2c-0.6-0.4-1.4-3.5-0.5-4
								c2.1,3.5,1.5-3.2,2.8-2.8c-0.8-1.3-0.7,3.2-1.8,1.4c-0.6-2.2,0.2-4,0.5-5.4l0.5,0.9l0.1-3.6c-1-0.4-0.8,3.6-1.9,0.5
								c0.2-0.9-0.8-4-0.1-4c1.5,1.3,2.9-0.1,3.7,2.5c-0.5-2.2-2-9.3-3.2-6.1l-0.4-2.7c-0.4,1.8-1,6.8-2.2,1.5l0.4,0l-2-3.5l0.6-1.8
								c-0.4,0.1-1-0.4-1.2-1.8c0.5-0.5,0.4-1.8,1.2-1.8c-0.8-4-1.7-3.5-2.3-4c-0.5-2.2-0.3-3.1,0.9-2.3c-0.3-3.1-1.5-8.5-0.9-10.7
								c-1.5-4-0.2,0.9-1.9-1.3c1.2-2.1,0.9-5.5,0.1-9.3c-0.8-3.8-2-7.9-2.7-11.3c-2.4,2.3-0.6-1.8-3.3-2.6c1.1,1.3,1.1-6.8,2.8-1
								l-0.8-3.6c1.1-2.7,2,5.8,3.5,1.7c-0.7-4-4.1-6.2-3.9-11.1c2.2,1.3-1.2-3.6,1.1-2.7c0.9,0.9,0.8,2.2,1.2,3.6l0.2-0.9
								c-0.8-8.9-2.7-2.2-4.7-6.7c-1.1-5.4,0.9-4.5,1.7-4.9c0.2-0.9-0.5-3.6-1.2-4.9c1.7,3.1-0.3,6.3-1.7,4.9c1.8-2.7-1.1-8-2.2-9.4
								c-1.1,8.1,0.7,5.4-0.6,13c0.9,0.9,2.8,0.4,2.7,4.9c-1.4-2.6-1.1,0.4-1.3,1.2c1-1,0.9,3,1.6,4.2c-0.7,1.4-3-2.2-2.8,2.3
								l2.8,0.4c-0.1,1.8-2.1-0.4-0.9,3.2c-1.7-1.8-2.1,0.9-3.3-4c-1.4,6.3,2.7,8.9,4.3,13.4c-0.2-0.4-0.6-0.4-0.9-0.9
								c0.9,0.9,1.1,2.7,1.5,4c-0.1,3.1-1.6-2.2-2.2-1.3l0.8,4.9c-0.1,0.1-0.1,0.1-0.2,0.2c0.6,1.2,1,2.4,0.4,3
								c-1.1-1.3-2.1-1.8-2.9-2.6c0.9,1.6,1.8,3.3,2.7,4.9c-1-0.4-0.8,4.5-2.1,1l1.7,7.6l-1.7,1c0.6,1.8,1,1.8,0.8-0.5
								c0.1,2.7,5.2,11.1,1.4,10.3c2.5,5.8,2.3,8,4.6,15.1c-2.7-5.3-0.9,6.8-2.8,1c-0.2,3.6,1.9,4,2.7,6.7c-0.3,2.7-2.3,1.9-3.4-0.8
								l1.4,3.1l-0.4,0l1.6,2.6c-0.4,3.2-1.7,1-1.3,4.1l1.7,0.4l-0.5,2.3c0.6-0.9,1.3,0.8,1.8,3.1l-0.4,0l0.8,2.7
								c-1.5-2.5,0.2,2.6-1.2,1.5c0.4,2.3,0.4,2.4,1.6,6.6l0.9-1c2,5.3-1.6,0.6-0.8,5l1.2-0.5c-0.8,6.8,3.4,10.6,3,15.6
								c-0.8-2.7-2.1-1.7-1.8-1.7c1.3,4,2.5,10.7,4.9,14.6c-1.5,1.9-1.9,2.4-1.8,6.9c0.8,3.1,1.1,3.5,2.4,4.3c0,3.2,2.3,8.7,1,9.1
								c1.2,0.5,0.4,2.8,1.7,4.3l-0.5,0.5l1.2-0.6c-0.8,3,0.2,5.2,1.2,7.4c1,2.2,2,4.3,1.5,7.3l-0.6-0.9l1,2.2
								c-0.5,0.5-1-0.4-1.7-0.3l2.4,10.7l0.4-2.3c0.7,2.2,2.2,3.4,2.1,6.1c-2.9-3.8,0.8,3.5-0.5,4.6l-1-2.2c0.9,3.1,0.9,3.1,2.1,2.5
								c1.4,3.9-1.7,3.4,0.6,6.7c-0.2-0.9-0.4-1.8-0.6-2.7c0.5-1,2,0.7,2.4,2.5c-0.1,0.5-0.3,1.9-0.8,0.6c1.3,3,2,8,2.8,9.2
								c0.1,1.8-0.9,1.5-1.5,0.6c2.9,6.5,0.6,3.1,3.5,9.6l-0.7,0.1l1.5,2.1l-0.6,3.7l0.6-1.4c0.7,2.2,1.6,3.4,1.9,6.1l-1.3-0.8
								c1.1,3.1,1.2,5,1.4,6.8c0.2,1.9,0.5,3.6,2.1,6.4c-0.1,0.5-0.7-0.4-1-0.8c3.2,5-0.6,4.7,2.9,9.7c-0.4-0.2-0.7,0.5-1.1,0.4
								l1.4,2.3l-1.4,0.2l2.6,1.5l-1,2l0.9,0.8c-1.9,3.5,1.2,6.7,0.4,11l1.6-1.2c3.2,4.1,4.4,9.5,5.3,15.3c0.5,2.9,0.9,5.8,1.6,8.7
								c0.7,2.9,1.6,5.7,2.9,8.4l-1.4,0.3l3.1,4.1c-0.3,2.8-1.7-1.1-2.1-0.1c2.4,4.7,2.7,1.4,5,6.9c0,3.2-1.3-0.7-2.3-1.9
								c1.2,2.6,2.7,5.8,3.9,8.8c1.3,3,2.3,5.9,2.6,8c0.2,0,0.5,0.2,0.5-0.1c1.9,3.3,2.9,8.2,4.4,12.1c-0.7,0.1-1.1-0.8-1.6-1.7
								c0.4,1.4,0.7,3.5,1.7,4.5l-1.7-1c0.9,3.1,4.1,8.4,3,9.6c0.4-0.6,1.5-0.8,2.4,1.8c-1.5,2.2,3.5,6.7,4,11.2
								c-0.7-0.3-2-3.3-1.7-2.4c0.3,2.3,2,3.8,3.3,5.3l-1-0.2c1.6,3.1,3.2,6.1,4.9,9.1c-1.5,2.2,4,8.9,2.3,8.9
								c1.3,3.4-0.3-3.2,1.7,1c0,0.2-0.1,0.4,0,0.6c0,0.2,0.1,0.4,0.2,0.7c0.2,0.6,0.6,1.3,0.9,1.8c0.6,1.2,1,2.1,0.3,2.3l-0.5-0.6
								l2.1,4.4c-0.8-0.7-1.6-1.4-2.5-2.1c2,3.9,4.4,5.8,5.3,5.2c0.2,1,0.6,2.2,1.1,3.3c0.5,1.1,0.9,2.2,1.4,3.3
								c0.9,2.1,1.6,4.1,1.6,5.6l-0.9-1.1c0.3,0.7,0.7,1.3,1,2l0.1,0.2l0.1,0.1l0,0.1c0,0,0,0,0.1,0l0.5,0c0.3,0,0.7,0,1,0
								c1.4,0,2.7,0,3.9,0.1c2.5,0.1,4.8,0.5,7.2,0.7c2.4,0.2,4.8,0.3,7.2,0.2c1.2-0.1,2.5-0.2,3.7-0.4l0.9-0.2
								c0.3-0.1,0.4-0.1,0.6-0.2c0.3-0.1,0.7-0.3,1-0.5c0.4,0.2,0.4,0.5-0.5,0.6l4.5-0.3l-1,1.1l7.4-2.2l0,0.7
								c5-0.1,12.7-1.1,19-1.8l-0.9,0.4c6.9-1.6,6.8,0.2,11.8-1c-0.2,0.2-0.3,0.3-0.5,0.3l4.6-0.4l-1,0.8c3.3-1.8,9.8,1.3,7.6,0.1
								c1.9-0.8,5.1-1.9,5.6-2.8c5-0.5,1.3,0.8,4.4,1.2c3.6-0.2,4.2-1.5,9.1-1.2l0,0.7c2.3-0.3,3.7-0.9,6.8-1.3l-0.9,0.4
								c5.1-1.9,6.6,1.6,10.5-1.8c2.2,0.4,6.3-0.4,6.2,1.1c1.6-0.4,3.1-0.7,4.6-1l0.5-0.1l0.3-0.1c0.1,0,0.2,0,0.4-0.1
								c0.7-0.1,1.3-0.2,2-0.3c1.3-0.2,2.6-0.4,3.8-0.5c5-0.7,9.9-1.3,15.4-2c1.7,1.1,2.3,1,3.5,0.7c1.2-0.3,2.8-0.7,6.9-0.3
								l-1.7-1.1c1.5-0.1,2.9-0.2,4.5-0.3c0-7.2,0.5-14.6,0.9-22.7c0.1-2.1,0.2-4.1,0.3-6.2c0.1-2,0.1-4.1,0.2-6.1
								c0.1-2.3,0.1-4.6-0.1-6.9l1.3-0.3l-1.5-2c0.3-10.8,0.4-24.8,0.2-33.5c-0.7-2.8-2.4-7.1-2.1-11.6l0.2,0.5
								c-1-7.8-1.7-16-1.2-24.6c0.6,0.5,0.9-0.3,1.3,0.6c-1.5-2-0.2-5-0.2-6.8l-0.9,2.2c-1.3-2.4-0.2-5.9,0.7-7.2l-1.5-3.8
								c0.1-0.3,0.3-0.7,0.5-0.7l-0.7-0.7l1.6-2.1c-0.2-0.5-0.4-2-0.8-3.5c-0.2-0.8-0.4-1.6-0.7-2.3c-0.1-0.4-0.3-0.7-0.5-1
								c-0.2-0.3-0.4-0.6-0.6-0.6c0.6-0.1,1-0.8,1.3-0.2c0.1-0.8,0.3-1.5,0.4-2.1c-0.2,0-0.4,0-0.6,0c-0.6-0.3-1.2-0.9-1.5-1.4
								c-0.3-0.5-0.4-1-0.1-1c0.5,0.8,1,1.2,1.4,1.5c0.4,0.3,0.9,0.5,1.4,0.9c-0.1-0.1-0.2-0.2-0.2-0.3c-0.1-0.1-0.2-0.2-0.4-0.4
								c-0.4-0.4-0.8-0.4-1.3-1c-0.1-0.2-0.2-0.4-0.3-0.5c-0.1-0.6,0.9-0.9,1.5-0.4c0,0.2,0,0.3,0,0.5c0.2-0.2,0.8,0.2,1.2,0.6
								c0.5,0.5,0.9,1,1.1,0.9c0.1-1,0.8-0.1,0.3-2.3c0.3-0.1,0.4-0.1,0.5,0c0.4,0.1,0.5,0.3,0.5,0.5c0.1,0.5-0.2,1,0.5,1.1
								c0.1-0.1,0.3-0.1,0.4-0.2c0.2-0.1,0.5-0.1,0.8-0.2c0.6-0.1,1.3-0.2,2.1-0.3c1.5-0.1,3.2-0.2,4.8-0.2c3.3,0,6.4,0.3,7.4,0.8
								c1.4-1.7,6.4-1.6,11.5-1.6c5,0.1,9.9,0.2,9.3-1.1l7.8,1.1c-0.6-0.7-1.3-2.3,3.1-2.8c5.5,0.4,6.3,1.7,8.8,2.2
								c-0.2-0.9-0.5-1.8-0.9-2.6c2.9,0.1,5.9,0.1,9,0.2c1.5,0,3.1,0,4.6,0c0.8,0,1.6,0,2.3,0l1.2,0l0.6,0l0.5-0.1
								c-6.4-9-14.6-19.4-22.6-29.8c-4-5.2-8-10.4-11.9-15.7c-1.9-2.6-3.8-5.2-5.6-7.8c-0.9-1.3-1.8-2.6-2.7-3.9l-0.3-0.5l-0.2-0.3
								l-0.3-0.5c-0.2-0.4-0.4-0.7-0.6-1.1c-5-5.4-11.6-12-16.6-19l0.9,0.5l-4.6-7.2l2.8,5.6c-1.4-1.3-2.7-2.1-3.8-3.5
								c-4.9-8.1-11.4-18.8-19.6-27c-7-4-0.9-5.6-7-9.9c0.6,0.3,1.1,0.2,1.7,0.5c-5.5-5.5-8.5-8.4-14.6-13.4c3-1.2-3.1-3.9-1.4-4.4
								l-1.4,0.3c-0.4-1.8-2.7-5.2-1.6-5.3l-3.3-1.7l0.8-1c-2.7-3.6-9.4-10.7-8.8-14.1c-8.3-7.7-18.6-22-26.8-33.4
								c-2-0.9-4.6-4.1-6.6-6.6l-0.9-3.6c-2.3-2.3-6-3.9-7-6.9c0.2-0.1,0.3-0.1,0.5,0c-2.3-2.4-3.5-5.4-6.5-7
								c-2.1-2.9-3.6-6.2-1.8-6.2c-2.2,1.3-4.4-6.3-4.4-6.3s-6.8-9.5-17.5-24.1c-10.7-14.6-25.4-34.4-41.2-55.1
								c-31.7-41.4-67.8-86.4-86.7-100.5c-1.9-0.5-5.1-3.4-5.3-1.2c-2.3-2.3-1.4-4.8-2.8-4.6c2,4-3.4,0.8-2.1,5.2l-1.9-2.1
								c-1.1,0.1,3.1,2.4,1.4,2.8l2.3-0.8c1.1,2,1.4,3.3,1.2,4.4c2,1.2,5.3,0.4,7.2,5.2l-0.9-1c2.5,3.3,0.3,2.9,0.5,3.8l-0.5-0.7
								l1.1,3.5c-0.9-2.6-5-4.9-3.6-3.2c2.4,4.3-0.3-1.4,2.1,1.4c1.5,1.8,0.1,2-0.6,2.3l2.5,3.2c-1,0.5-1.6-2.2-1.5-0.2l4,3.5
								c-1.6,2.4,4.4,3.7,3.8,7.2c-2.7-2.6-0.5,0.8-1.6,0.9l5.6,7.2c0.2,0.9-2.1-1.4-1.2-0.4c0.4,1.8,2.2,1.9,2.8,2.6
								c-0.1,1.1,4.1,5.4,2.5,6.3c2.7,5.7,3.4,0.7,6,5.9c-0.4,1.3-3-3.5-2.3-0.8l3.9,4.5c-0.8-0.1-2.1,0.1-3.3-1.8
								c8.5,13.8,9.1,24.3,19.2,35.1c0.2,2.5-1.6-0.7-3.2-1.3c7.8,7.5,6.8,13.7,12.4,20.9l1-0.5c5,12.2,15.8,23.1,23.4,35.4
								l-0.4-1.8c2,0.9,4,3.4,5.9,5c-0.2,0.6-2.9,0,0,3.1c-0.2-0.9-1-2.6-0.2-2.5c5.2,11.5,21.6,31.8,32.8,48.7
								c17.3,21.2,33.7,46.1,50.7,67c-2.6-3.2,0.6-3.4,2-0.6c1.6,9.5,9.6,11.1,12.4,19.9c10.7,11.5,16.2,25,27.8,34.4l-0.8,1
								c0.9,2.1,1.9,2,3.4,3.7l-0.3,0.2c2.9,4.6,8,8.9,9.4,11.8l1.3-0.7c2.1,2.5,0.1,2,2.8,4.1l-0.6,0.4l3.4,2.2
								c-2.2,1.3,5.4,7.3,6.1,10c2.9,3,8.6,8.6,12.1,13.8c-0.2,0.9,1,2.8,2.4,5.1c0.7,1.1,1.6,2.4,2.4,3.6c0.4,0.6,0.8,1.2,1.2,1.8
								c0.2,0.3,0.4,0.6,0.5,0.9c0.1,0.1,0.2,0.3,0.3,0.4l0.1,0.2c0,0.1,0.1,0.1,0.1,0.1c0.3,0.2,0.8,0.5,1.3,1
								c0.5,0.4,0.9,1,0.8,1.3l3,1.2l0.5,0.5c-0.7-0.3-1-0.4-1.4-0.6c-0.6-0.2-0.9-0.3-1.1-0.4c-0.5-0.2-0.3,0-0.1,0.2
								c0.2,0.2,0.2,0.3-0.7-0.1c1.3,0.7,1.5,0.7,1.3,0.6c-0.1-0.1-0.6-0.4-0.4-0.4c0.9,0.3,2,0.9,2.6,1.2c0.6,0.4,0.6,0.6-0.5,0.2
								l-0.6-0.3c0.3,0.3,0.6,0.5,0.9,0.8c-2-1.2-3.2-1.7-4.9-2.9c-0.1,0.2,0.2,0.8,0,1.3c-0.1,0.3-0.3,0.5-0.6,0.6
								c-0.2,0.1-0.3,0.1-0.6,0.1c-0.1,0-0.2,0-0.3,0c-0.1,0-0.1,0-0.2,0c0,0,0,0-0.1,0l-0.5,0c0.3-0.4-0.1-0.5-0.7-0.6
								c-0.1,0-0.1,0-0.3,0c-0.2,0-0.3,0-0.5,0c-0.4,0-0.7,0-1.2,0c-0.8,0-1.7,0.1-2.5,0.1c-3.4,0.1-6.6,0.1-4.9-1.3
								c-6.2,0.7-5.4,1.2-3.8,1.7c1.6,0.5,3.8,1.2,1.5,2.1c-3.2,0.1-6.2,0.9-7.3,0c1.2-0.6-3.6-1.4-1-1.7l-8,0.5
								c-0.9-0.2,0.6-0.6,1.4-0.7c-4.1,0.5-8.1,0.7-12.1,0.8c0,5.4-0.2,10.3-0.3,15.5c-0.1,5.1,0,10.5,0.7,16.2
								c0.9,1.2,0.1-5.9,1-4.5c0.6,3.8,0.8,6.4,0.8,8.4c0,1,0,2-0.1,2.8l0,0.3l0,0.2l-0.1,0.3c-0.1,0.2-0.1,0.4-0.2,0.6
								c-0.4,1.7-0.9,3.4-0.2,7.1l-1.3-1.5c0.9,2.4,2,3.4,1.1,7.4c-1.4,0.7-1.3-3.3-2-5.2c0,2.7,0.6,9.6,1.8,7.4
								c0.6,3.2-0.7,4.5-1,6.2c0.4,0,0.9-3.1,1.6-1.2c-0.7,4.4-0.5,11.3-0.5,16.7c-0.4,0-0.9,0.4-1.1-0.1
								C900.5,854.7,897.2,854.3,897.8,860.3z"/>
							<path class="st4" d="M770.8,870.4l0.5,2.1c0.3-0.1,0.7-0.1,1.4,0.7L770.8,870.4z"/>
							<path class="st4" d="M811.9,932.1c0.3-0.1,0.5-0.3,0.8-0.5C812.1,931.8,811.9,931.9,811.9,932.1z"/>
							<path class="st4" d="M836.8,927.6c-1.8,0.5-0.1,0.7,0.8,1C837.5,928.4,837.5,928,836.8,927.6z"/>
							<path class="st4" d="M749,816.3c0.2,0.3,0.5,0.5,0.8,0.3C749.4,816.2,749.1,816.2,749,816.3z"/>
							<path class="st4" d="M710.2,659.8c0,0.2,0,0.4-0.1,0.7C710.2,660.3,710.2,660.1,710.2,659.8z"/>
							<path class="st4" d="M709.7,669c0.1,0.4,0.3,1,0.6,1.7C710.2,669.9,710,669.4,709.7,669z"/>
							<path class="st4" d="M761.4,853.3c0.2,0.6,0.5,1.1,1,1.5C762.1,853.9,761.7,853.5,761.4,853.3z"/>
							<path class="st4" d="M711.1,672.5l0.3,2.2c0.1,0,0.2,0,0.3,0L711.1,672.5z"/>
							<path class="st4" d="M709.8,656.9c0.1,0.9,0.4,2,0.4,2.8C710.4,658.6,710.2,657.7,709.8,656.9z"/>
							<path class="st4" d="M730.9,759.8c0,0.1,0.1,0.1,0.1,0.2C732.1,761.6,731.6,760.6,730.9,759.8z"/>
							<path class="st4" d="M715.6,681.6c0,0.1,0,0.2,0,0.3l0.5,0.6L715.6,681.6z"/>
							<path class="st4" d="M708.4,647.3c0.1,0.4,0.3,0.8,0.5,1c0-0.4,0-0.8-0.1-1.3C708.7,647.2,708.5,647.3,708.4,647.3z"/>
							<path class="st4" d="M724.7,726.5c-0.7-0.5-1.1-0.6-1.4-0.6C723.6,726.7,723.9,727.1,724.7,726.5z"/>
						</g>
					</g>
				</g>
			</g>
		</g>
		<g id="XMLID_22299_">
			<g>
				<g>
					<g>
						<g>
							<path class="st4" d="M614.2,487c-0.1-0.1-0.2-0.3-0.5-0.5C613.9,486.8,614,486.9,614.2,487z"/>
							<path class="st4" d="M576.2,540.6l0.1-0.8C576.1,540.2,576.1,540.5,576.2,540.6z"/>
							<path class="st4" d="M635.9,454.2c0,0.1,0.1,0.1,0.1,0.2c0.3-0.5,0.8-1.2,1.5-2.3L635.9,454.2z"/>
							<path class="st4" d="M497,656l0.5-0.7C497.3,655.6,497.1,655.8,497,656z"/>
							<path class="st4" d="M544.5,588c0.1,0.4-0.1,0.8-0.2,1.2C544.6,588.7,544.8,588.3,544.5,588z"/>
							<path class="st4" d="M658.6,443.4l-1.4,0.5C657.5,444,658.1,443.9,658.6,443.4z"/>
							<path class="st4" d="M674.9,406.6c-0.1,0-0.1,0-0.2,0C674.7,406.6,674.8,406.6,674.9,406.6z"/>
							<path class="st4" d="M664,418.4c-0.1,0.3-0.1,0.8-0.2,1.2C664,419.2,664.3,418.6,664,418.4z"/>
							<path class="st4" d="M663.8,420.2c0-0.2,0-0.4,0-0.6C663.7,419.9,663.6,420.1,663.8,420.2z"/>
							<path class="st4" d="M107.3,790.6c-1.1-0.2-2.2,0.3-3.3,0.7L107.3,790.6z"/>
							<path class="st4" d="M427.1,761.7l-0.2-0.4C426.9,761.6,427,761.7,427.1,761.7z"/>
							<path class="st4" d="M104.5,798.5l-0.8-0.3C104,798.4,104.2,798.5,104.5,798.5z"/>
							<path class="st4" d="M650.1,463c0.2,1.5-2,2.9-1.2,3.4C649.4,465.2,650.9,464.1,650.1,463z"/>
							<path class="st4" d="M441.6,803.5l-0.4,0.7C441.5,803.9,441.6,803.7,441.6,803.5z"/>
							<path class="st4" d="M104.5,798.5l0.9,0.4c0-0.2-0.1-0.3-0.2-0.5C105,798.5,104.7,798.5,104.5,798.5z"/>
							<path class="st4" d="M354.8,826.1C354.8,826.1,354.8,826.1,354.8,826.1c0.1,0,0.2-0.1,0.3-0.1L354.8,826.1z"/>
							<path class="st4" d="M348.1,823.4c0.5,0,1,0,1.5-0.1C348.9,823.2,348.4,823.3,348.1,823.4z"/>
							<path class="st4" d="M103.9,791.3l-1.9,0.4C102.7,791.7,103.3,791.5,103.9,791.3z"/>
							<path class="st4" d="M273.4,812.4c0.2,0,0.5,0,0.7,0C273.8,812.3,273.5,812.3,273.4,812.4z"/>
							<path class="st4" d="M547.8,583.8c0.2-0.1,0.3-0.3,0.5-0.4C548.1,583.2,548,583.1,547.8,583.8z"/>
							<path class="st4" d="M540.6,641.1L540.6,641.1L540.6,641.1C540.6,641.2,540.6,641.1,540.6,641.1z"/>
							<path class="st4" d="M541.2,638.2c-0.6,0.6-0.8,2-0.5,3C541.1,640.4,541.4,639.6,541.2,638.2z"/>
							<path class="st4" d="M537,645.9c0.1-0.1,0.2-0.1,0.3-0.2C537.1,645.8,537.1,645.8,537,645.9z"/>
							<path class="st4" d="M568.8,599.6C568.8,599.6,568.7,599.6,568.8,599.6C568.7,599.6,568.7,599.6,568.8,599.6L568.8,599.6z"/>
							<path class="st4" d="M563,609.1c-0.3,0.1-0.5,0.2-0.8,0.4C562.5,609.4,562.7,609.3,563,609.1z"/>
							<path class="st4" d="M524.2,670.6C524.2,670.6,524.2,670.6,524.2,670.6C524.1,670.6,524.1,670.6,524.2,670.6
								C524.1,670.6,524.2,670.6,524.2,670.6z"/>
							<path class="st4" d="M472.6,762.1c5.4-9.1,11.2-21.5,17.4-29.9c-0.4-3,1.4-5.8,2.9-8.8l2.3,1.1l0.8-2.8
								c1.3-0.5-0.8,2,1.1,0.9l-0.8-1.7c0.9,0.3,4.4-5.6,3.4-0.7l5.9-9c1.4-2-1-2.3,0.9-4.2c0.9,0-0.1,1.1,0.8,1.4
								c5.9-5.6,0.8-10.4,5.8-15.9l-0.1,0.7c0.1-1.4,1.5-3.4,1.2-3.6c-2.7-0.6,0.4,1.9-2.1,2.9c-1.7-1.3,0.6-3-0.9-3.8
								c1.6-1,1.1-2.5,1.8-3.9c2.5-1.4,3.7-5,6.2-5.7c0.1-1.4-0.9-3.8,0.5-6.1c2.5-0.7,1.1,1.3,3.1-0.6l-0.8-1
								c1.3-1.7,1.4-1.2,1.9-0.8c1.3-1.9-0.4-2.6,1.8-4.5l0.1,2c0.8-2.1,1.4-2.7,3.1-5.1c0.6,0.4-0.1,1.4-0.8,2
								c2.4-0.3,0.8-2.8,1.5-3.4c-0.6-0.1-1.9,1.5-2.4,0c1-1.1,0.3-3.6,2.1-3.7l0.1,2c0.9-3.1-0.4-2.2,1.9-4.9
								c0,0.2,0.3,0.3,0.5,0.5c-0.1-2.8,2.7-4.4,4.6-7.1l-0.1,0.7c0.4-1.4-0.2-2.6,0.3-3.1c-1.6,1.2-1.7,0.6-2.8,0
								c3.1-1,0.1-4.5,3.3-7.3c0.6,0.4,0.8,1.7-0.5,2.3c1,2.3,2.5,3.4,2,6.1c0.4-1.6,1.2-3.3,1.7-2.4l-1.4-1.5c0.5-0.8,1-1.4,1.3-2
								c-0.8-1-2.7,0.5-2.3-1.8c0.8-2.4,2.4,0,1.9-0.8c1.2-3.3-1-2.3,1.3-4.7c0,0.4-0.1,1.1-0.4,1.2c1.9-1.5,2.8-5,5.2-4.3
								c0.3,0.6,0.8,1,0.2,1.7l-0.3-0.2c0.1,3.1,0.8-2,2.1-0.2c-1.2-0.5,0.8-3.1,1.8-4.2l-1.5-0.4c-1-6.5,2.3,1.8,4.4-2.6
								c0.8-3.1-1,0.8-0.8-1.4c1.3-1.6,2.8-1.6,4-4.5c0.9-0.4,2.5-1.4,4-0.7c0.4-1.9,3.6-4.3,2.9-6.1c-2.9,1.9-0.3,3.6-4,5.5
								l-0.8-1.7c1.5-2.1,2.5-5.3,4-6.5c-0.5,0.1-0.9,0-1.1-0.3c1.5-3.4,0.7-5.1,3-7.9c1.5,0.4,0.2,2-0.5,3.4c2.2-1.3,1.4-2,3.7-4.7
								c1.2,0.5-1.3,2-0.5,3l1.8-3.5c0.1,0.1,0.1,0.1,0.2,0.1c-1.5-1.6,1.8-2.4,2.5-4.8c3.1-4.8,1.1-7.1,1.3-10.6
								c0.9-0.4,1.5-0.3,1.8,0.3c-1.5,0.7-0.8,0.9-0.6,1.6c0.8-1.7,4-2.4,4.2-1.1c1.1-2.9-1.5,0.3-1.1-1.6l2.4-3.5
								c-1.2-0.2-2.2,0.9-1.7-1.3c0.7-1.7,1.4-2.3,2.7-4.3c0.3,0.6,1.8,0.2,0.8,1.7c1-0.8,2-2.2,1.4-3.4c-2.2,1.7,1.5-4.1-1-3.4
								l2.2-1.7c-0.3,0.5,0.2,0.9-0.4,1.6c1.8,0.3,0.7-2.1,1.1-2.9c0.8-0.6,2.1-2.6,2.8-2.4c0-0.9,1.4-2.5,2.3-2.3
								c0.4-1.2-0.9-0.7-1.1-1.2l2.3-3.5c0.9,0.3,3.2,1.4,3.2,2.1c0.1-1.8-2-1.9-0.7-3.9c0.8,2.1,2.8-1.9,3.6,0.9
								c1.8-0.5,3.9-3.8,4.6-5.9c-0.5-1.9-1.9,1.5-3.1,0.7c2.8-5.4-0.4-7.8,2.5-11.2l-1,0.8c0.8-2.8,0.8-2.4,0.6-4.4
								c1.1,1.6,5.8-0.1,7.8-4.2c-0.6-0.8-2.8,1.2-3.6-0.1l1.4-2.7c0.2-0.1,0.3,0.3,0.3,0.8c0.9-2.6,4.6-3.1,3.2-4.8l3.7-1l-1.5,0.3
								c-0.6-0.8,0.8-3.5,0.8-4.2c0.8-3.2,2-3.7,3.9-4.6c-0.9,0.1-3,0.3-2-1.9c2.5,1.5,3.6-3.8,4.8-2.9c0.5-0.9,2.2-1.9,1.2-2.6
								l1.5,1.1c-2-1.5-0.1-4.5,1-7.1c2.6,2.3,1.3-2.7,4.7-2.1c-1.7-1.7,1.8-4.6,0.3-6.1c1-1.9,2.8-0.6,3.7-0.6l-0.2-1.3
								c1.5-0.3,3.7-3.7,5.5-5.3l-0.6-2.9l1.2-0.2c-0.3-0.6,0.4-2.3-0.8-1.7l0.7-1c-1.9-1.2,0.3-1.7,0.7-4.3c0.6-0.3,1,0.1,1,0.7
								c0.6-1,1.4,0,2.3-0.1c-0.9,0.4-1.3-5.7-3.8-3.5c-0.9-0.3-0.5-2.2,0.4-3l2.1,0.4l-1.1-2.3c0.7-1.7,2.2-1.7,3.1-2.9
								c-0.7,1.4,1.6,4.9,3.6,1.5c-0.8,1.9-0.4,3.3-0.6,4.5c0.5-0.7,0.9-0.9,0.9,0.6c1-2.9-0.5-1.5,0.8-4.2c1.5,1.1,2.4,0.6,4.3-1.3
								l-2.2,1c-0.1-0.2-0.2-0.4-0.2-0.6c-0.6,0.5-0.9,0.6-1.6,0.4c0.3-0.5-0.1-4.1,1.1-4c-4,1.2,0.8-5.6-1.6-4.8
								c-0.3-0.6,0.7-2.4,1.6-2.2c-0.1,2.9,2.7-0.6,3.6,0.4c0-1.1-2.2,1-2.1-0.4c0.6-1.4,2.2-1.8,3.1-2.2l0,0.7l1.9-1.6
								c-0.6-0.8-2.4,1.2-1.8-0.9c0.6-0.3,1.3-2.4,1.9-2c0.6,1.5,2.4,1.7,1.7,3.4c0.6-1.4,2.9-5.7,0.4-4.8l1-1.5
								c-1.2,0.6-4,2.7-2.4-0.6l0.3,0.2l0.1-2.9l1.4-0.5c-0.4-0.2-0.6-0.8-0.1-1.5c0.6,0.1,1.2-0.6,1.8-0.2c1.3-2.4,0.4-2.7,0.1-3.2
								c0.6-1.4,1.3-1.7,1.8-0.5c1.2-1.7,2.9-4.9,4.4-5.7c0.7-2.8-0.6,0.3-0.9-1.7c2-0.3,3.4-2.1,4.6-4.4c1.1-2.3,2-5.1,2.9-7.2
								c-3-0.3,0.3-1.2-1.5-3.2c0.3,1.3,3.9-2.7,2.7,1.1l0.9-2.3c2.1-0.7-0.9,4.1,2.1,2.9c1.2-2.4-0.5-5.5,1.9-7.8
								c1.2,1.9,0.6-2.5,2.1-0.7c0.3,0.9-0.3,1.6-0.6,2.5l0.6-0.3c3.4-5-1.2-2.6-0.9-6c1.5-3.3,2.7-1.8,3.6-1.5
								c0.6-0.3,1.2-2.1,1.2-3.1c0,2.5-3.1,3-3.7,1.5c2.7-0.3,2.8-4.6,2.5-5.9c-4.6,3.4-1.8,3.1-6.4,6.2c0.3,0.9,2.1,1.8,0,3.9
								c0-2.1-1-0.4-1.6-0.1c1.3,0.1-0.6,2-0.6,3c-1.2,0.3-1.5-2.8-3.3-0.4l2.1,1.8c-0.9,0.8-1.5-1.4-2.1,1.1
								c-0.6-1.8-2.1-0.7-0.9-3.8c-3.9,2.4-1.8,5.9-2.5,9.1c0-0.4-0.3-0.6-0.3-0.9c0.3,0.9-0.3,2-0.6,2.8c-1.5,1.5-0.3-2-1.2-1.9
								l-1.5,2.9c-0.1,0-0.2,0-0.2,0c-0.1,0.9-0.3,1.8-1,1.7c-0.3-1.3-0.9-2.1-1.2-3c0,1.3,0,2.6-0.1,3.9c-0.6-0.8-2.8,1.7-2.1-0.7
								l-2.2,4.6l-1.8-0.5c-0.3,1.2,0,1.4,0.9,0.3c-1.2,1.3-1.1,8.3-3.8,5.7c-0.7,4.2-2,5.2-3.6,9.8c0.4-4.1-4,2.6-2.7-1.2
								c-1.8,1.6-0.4,3-1,4.7c-1.5,1.1-2.7-0.5-2.3-2.4l-0.4,2.3l-0.3-0.2l-0.1,2.2c-1.8,1.2-1.8-0.6-3,1.1l1.2,1.2l-1.5,0.7
								c0.9-0.1,0.6,1.1-0.1,2.5l-0.3-0.2l-0.7,1.7c0.1-2-1.2,1.3-1.7,0c-0.9,1.3-0.9,1.3-2.1,3.9l1.2,0.1c-1.1,3.6-1.5-0.7-3.1,1.8
								l1.2,0.5c-4,2.6-2.7,6.9-5.5,8.9c0.7-1.7-0.8-2.1-0.5-1.9c-1,2.6-3.6,6.2-3.7,9.4c-2.1-0.1-2.7-0.1-4.9,1.9
								c-1,1.9-1,2.2-0.4,3.4c-1.6,1.4-2.8,5.2-3.9,4.6c0.7,1-1.1,1.5-1,2.9l-0.6-0.1l1.2,0.5c-4.3,1.6-1.8,6-5.9,7.9l0-0.7
								l-0.4,1.6c-0.6-0.1-0.6-0.8-1.1-1.2l-3.9,6l1.5-0.7c-0.7,1.3-0.2,2.9-1.7,3.9c-0.1-3.4-1.3,2-2.8,1.6l0.4-1.6
								c-1,1.8-1,1.8,0.2,2.4c-1,2.5-3,0.3-3.2,3.2l1-1.5c0.9-0.1,1.1,1.6,0.5,2.6c-0.3,0.1-1.2,0.6-0.9-0.3c-0.7,2.1-2.9,4.5-3,5.5
								c-0.9,0.8-1.5,0-1.5-0.7c-1.5,4.5-1.3,1.6-2.8,6.1l-0.6-0.4l-0.1,1.8l-2.5,1.1l1.2-0.2c-0.7,1.3-0.8,2.4-2,3.7l-0.5-1.2
								c-1.7,3.9-4.1,3.2-5,7.4c-0.3,0.1-0.3-0.6-0.2-0.9c-0.6,4.1-3.1,1.4-3.4,5.7c-0.2-0.4-0.8-0.3-1-0.6l-0.3,1.8l-1.2-0.9
								l1.1,2.3L574,544l0.2,0.9c-3.3,0.1-2.9,3.4-6,4.4l1.8,0.6c-0.1,7.4-9.5,11.1-12.1,18.4l-1.1-0.9l-0.2,3.6
								c-1.9,0.8-0.5-1.5-1.4-1.5c-1.1,3.3,1.1,2.3-0.7,5.8c-1.9,1.2-0.5-1.2-0.5-2.2c-1.4,3.5-3.6,8.5-5.7,10.2
								c0.1,0.2,0.3,0.4,0.4,0.4c-0.8,2.4-3,4.8-4.4,7.1c-0.5-0.4-0.3-1,0-1.7c-0.6,0.8-1.7,1.6-1.6,2.7l-0.5-1.5
								c-1.3,1.6-2.5,5.6-4,5.2c0.6,0.1,1.5,0.8,0.4,2.2c-2.4-0.4-1.8,4.6-4.4,6.4c-0.3-0.6,0.8-2.4,0.4-1.9c-1.3,0.9-1.1,2.5-1.2,4
								l-0.5-0.8l-2.6,6.3c-2.4-0.4-3.1,5.5-4.2,4.2c-1.4,2,1.9-1.2,0.5,1.5c-1.2,0.2-1.1,2.5-2.2,1.7l0-0.4l-1,1.8l-0.5-1.9
								c-0.7,1.7-0.3,3.6,0.6,4.2c-1.6,1-2.4,3.4-3.9,3.4l0.1-0.7c-2.1,4.4-7.6,4.6-7.6,9.1c-0.3,0.1-0.6-0.1-0.3-0.6l-1.7,2.5
								l-0.5-1.2l-1.3,5l-0.6-0.4c-2,2.6-4.5,7.1-6.6,10.7l0.1-0.7c-1.5,4.4-3,3.3-4.1,6.6c-0.1-0.2-0.1-0.3-0.1-0.5l-1.6,2.5
								l-0.2-0.9c0.1,2.7-5.2,4.3-3.3,3.8c-0.1,1.4-0.6,3.7-0.1,4.5c-1.7,2.8-1.2,0.2-2.8,1.5c-1.4,1.9-0.5,3-2.8,5.3l-0.6-0.5
								c-0.7,1.3-0.8,2.4-1.8,4.2l0.1-0.7c-0.6,3.7-4.1,2.4-2.9,6.4c-1.3,0.9-2.4,3.4-3.5,2.5c-1.5,4.1-3,7.1-4.8,11
								c-2.4-0.7-0.4,0.8-2.9,2.3l1.2,0.5c-3.1,5.1-9.5,9.1-12.7,14.9l-1.2-0.5l0.4,1.9c-4.4,5.6-9.9,13-13,17.8
								c-0.5,1.9-0.7,5.1-2.7,7.3l0-0.4c-2.2,4.7-4.8,9.5-8.5,13.8c-0.3-0.6-0.9-0.3-0.8-1c0.4,1.9-1.7,2.8-2.4,3.8l1.6-0.6
								c0.1,2-2.1,3.3-3.3,3.4l-0.2,2.9c-0.2,0.1-0.5,0.2-0.7,0.1l0.3,0.7l-2.1,0.2c-0.1,0.7-1.5,3.7-0.8,5.5
								c-0.6-0.1-2.3,1.6-1.5-0.1l-5.5,7.4l1.3-0.9c1.2,0.6,0.3,3.3-1,4.2c0.2-2.1-1.4-1.1-2.6-1c-0.1,1.4,1.5-0.3,1.8,0.7
								c-0.2,1.8-1.6,4.8-2.6,5.2l0.1-1.1c-0.8,2-3.2,1.6-4.3,3.4c-0.2,2.1-1.8,2.8,0.3,3.7c-1.1,2.5-1.8,0.1-2.5,0.7
								c0.2,1.6-2.5,4.5-3.7,4.2c1.8,3-5,5.5-3.1,7.4l-2.5,1c0.6,0.5,1.7,1.7,0.9,3.4c-1.6,1-2.4,0-3.3,0l1.6,2.4
								c-3.9,3.3-7.3,7.9-10.7,12.7c-1.7,2.4-3.4,4.8-5.2,7.1c-0.4,0.3-0.9,0.4-1.4,0.1c0,0.4,0.2,1.4-0.2,1.5
								c-0.3,0.3-0.8,0.4-1.3,0.2l0.1-0.3l-0.2-0.2l-0.1-0.1c-0.1,0,0-0.1-0.3-0.1l-2.7-0.8l1.9,0.9c0.3,0.2,0.7,0.3,0.9,0.5
								c0,0.1,0.1,0.2,0.1,0.3c-0.1,0.1-0.1,0.2-0.2,0.2c0,0,0,0-0.1,0.1l-0.2,0l-0.4,0.1c-0.6,0.1-1.1,0.1-1.7,0
								c-5.9-2.1-13.8-4.8-21.5-4.7c-5.4,2.2-2.8-3.2-7.8-1.8c0.4-0.2,0.7-0.6,1.1-0.9c-5.2,0.2-8,0.3-13.3,1.2
								c1.1-2.9-3.3-0.5-2.6-2l-0.6,1.2c-1-0.9-3.6-1.6-3-2.5l-2.5,1.2l0-1.3c-2.9-0.6-9.4-0.6-10.5-3.4c-7.6,0.7-18.9-1.8-27.9-3.8
								c-1.5,0.8-4.1,0.5-6.2,0.2l-2-1.9c-2.2,0.1-4.7,1.6-6.5,0.3c0-0.2,0.1-0.3,0.3-0.3c-2.2,0-4.1-1.2-6.3-0.1
								c-2.3-0.5-4.5-1.6-3.5-2.9c-0.6,2.5-4.9-1.2-4.9-1.2S139,781.9,107.3,790.6c-1.2,1.1-4.1,1.4-3.3,3c-2.2,0.1-2.8-2.2-3.4-1.1
								c2.7,1.3-1.4,3,1.1,5l-1.9,0c-0.5,0.8,2.6-0.6,1.9,0.9l0.9-2.2c1.4,0.6,2.1,1.2,2.5,2.1c1.5-0.7,2.9-3.6,6-1.7l-0.9,0
								c2.7,0.4,1.4,1.8,1.9,2.2l-0.6-0.1l2.1,1.5c-1.6-1.1-4.7,0.3-3.2,0.5c3.1,1.2-0.7-0.7,1.7-0.6c1.5,0.1,0.9,1.3,0.7,2l2.7,0.4
								c-0.3,1.1-1.8-0.4-0.9,0.9l3.5-0.6c0.2,2.8,3.9-0.7,5,2.1c-2.5,0.2,0.1,0.9-0.5,1.8l5.9,0.8c0.5,0.5-1.7,0.6-0.8,0.6
								c1,0.9,1.9-0.4,2.5-0.2c0.4,0.8,4.4,0.7,4,2.5c3.8,1.9,2.1-2,5.6-0.3c0.3,1.2-3-0.2-1.5,1.2l3.9,0.2c-0.4,0.5-1,1.6-2.5,1.2
								c10.2,3.2,14.9,9.9,24.7,10c1.1,1.5-1.1,0.7-2.2,1.4c7.2-0.6,9.3,4.5,15.2,5.3l0.3-1.1c7.7,4.7,17.9,4.4,27,7.3l-1-0.9
								c1.5-0.8,3.5-0.6,5.1-0.8c0.1,0.6-1.5,2.1,1.3,2.1c-0.5-0.5-1.6-1.1-1.1-1.5c7.5,4.1,24.5,6.2,37.4,9.8
								c17.9,2.1,36.8,7.4,54.4,9.7c-2.7-0.4-1.1-2.8,0.8-1.9c4.7,5.4,9.6,0.8,14.7,4.8c10.4,0.3,18.8,5.7,28.9,3.8l0,1.3
								c1.3,0.8,1.8,0,3.3,0.1l-0.1,0.3c3.4,1.1,7.9,0.5,9.8,1.4l0.4-1.4c2.1,0.2,0.9,1.3,3.2,0.8l-0.2,0.7l2.7-0.9
								c-0.7,2.5,5.8,1.2,7.3,2.6c0.4,0,0.7,0,1.2,0c0.8,0.1,1.6,0.1,2.5,0.2c1.7,0.1,3.6,0.3,5.6,0.5c3.9,0.4,8,0.9,11.9,1.8
								c0.5,0.4,1.4,0.8,2.6,1.2c0.6,0.2,1.3,0.4,2.1,0.6l0.3,0.1c0.1,0,0.1-0.1,0.2-0.2c0.1-0.1,0.2-0.3,0.4-0.4
								c0.2-0.3,0.5-0.6,0.7-0.9c2-2.5,4.3-5.7,6.3-8c8.4-13.1,11.1-17.9,16.4-24.9l-1.4-0.8l1.1-1.8c0.3,0.2,0.6,0.1,0.6,0.5
								c2.5-0.3,2.2-4.3,4.1-5.1c-1.8,0.1-1,1.1-1.7,2.1c-1.6,1-2-1.2,0-2.7l0.3,0.2l0.2-1.8c1.2,0.6,2.5-0.3,3.6,0.2
								c3.6-5.9,4.4-11,8.8-16.6c0.8,1.4,2.5-4.5,3.8-1.9c1.6-4.1-2.1-0.5-2.4-3.1c0.7-1,0.8-2.4,1.7-2.1c0.2,0.8,1.8,0,1.4,1
								l1.4-2.5c0.3-0.1,0.2,0.6,0.2,0.9c2-5.6,7.1-7.7,8.7-12.9c-0.5-0.8-1.4,1.6-1.9,0.8c1.4-5.4,3.9-3,5.6-7.8l0.5,1.5
								c0.2-1.8-0.3-3,1.9-4.6c1.5,0.4-0.2,2.5-0.3,3.9c1-1.5,3.2-5.4,1.4-5c0.8-2.1,2.3-2,3.3-2.7c-0.3-0.2-1.9,1.1-1.8-0.3
								c2.3-2,4.7-5.8,6.8-8.7c0.3,0.2,0.9,0.3,0.9,0.7C468.2,763.6,470.8,765.6,472.6,762.1z"/>
							<path class="st4" d="M569.8,598.5l-1,1.1c0.3,0.2,0.6,0.4,0.5,1.2L569.8,598.5z"/>
							<path class="st4" d="M532.2,655.5c0,0.2,0,0.4,0.1,0.6C532.4,655.8,532.3,655.6,532.2,655.5z"/>
							<path class="st4" d="M525.3,670.8c0.4-1.2-0.5-0.5-1.1-0.2C524.4,670.8,524.7,670.9,525.3,670.8z"/>
							<path class="st4" d="M587.2,563.8c0,0.3,0.1,0.5,0.3,0.6C587.5,564,587.3,563.8,587.2,563.8z"/>
							<path class="st4" d="M644,473.1c-0.1,0.1-0.2,0.2-0.4,0.3C643.7,473.4,643.8,473.3,644,473.1z"/>
							<path class="st4" d="M639,477.1c-0.2,0.2-0.3,0.6-0.4,1.1C638.9,477.8,639,477.4,639,477.1z"/>
							<path class="st4" d="M573.8,585.9c-0.2,0.4-0.3,0.7-0.2,1.2C573.9,586.6,573.9,586.2,573.8,585.9z"/>
							<path class="st4" d="M638.2,479.4l-0.9,1.2c0.1,0.1,0.1,0.1,0.2,0.2L638.2,479.4z"/>
							<path class="st4" d="M645.1,471.6c-0.3,0.5-0.7,1.2-1.1,1.5C644.7,472.7,645,472.2,645.1,471.6z"/>
							<path class="st4" d="M606.3,529.5c0,0.1,0,0.1-0.1,0.2C606.2,531,606.4,530.2,606.3,529.5z"/>
							<path class="st4" d="M637,486.3c0,0-0.1,0.1-0.2,0.1l0.1,0.6L637,486.3z"/>
							<path class="st4" d="M648.9,466.4c-0.1,0.3-0.2,0.5-0.2,0.8c0.2-0.2,0.3-0.4,0.6-0.6C649.1,466.5,649,466.4,648.9,466.4z"/>
							<path class="st4" d="M620,511.6c-0.2-0.6-0.5-1-0.7-1.1C619,510.9,619.1,511.3,620,511.6z"/>
						</g>
					</g>
				</g>
			</g>
		</g>
		<g id="XMLID_22347_">
			<g>
				<g>
					<g>
						<g>
							<path class="st4" d="M683.7,485.3c-0.2,0.1-0.3,0.2-0.6,0.3C683.4,485.5,683.6,485.4,683.7,485.3z"/>
							<path class="st4" d="M700.1,516.5l-0.5-0.2C699.8,516.6,700,516.6,700.1,516.5z"/>
							<path class="st4" d="M673.3,466.9c0.1,0,0.1,0,0.2,0c-0.2-0.3-0.4-0.7-0.7-1.3L673.3,466.9z"/>
							<path class="st4" d="M739.1,580.6l-0.3-0.4C738.9,580.4,738.9,580.6,739.1,580.6z"/>
							<path class="st4" d="M716.2,542.4c0.3,0,0.5,0.1,0.7,0.2C716.8,542.4,716.7,542.3,716.2,542.4z"/>
							<path class="st4" d="M678.7,449.8l-0.5,1C678.5,450.6,678.8,450.2,678.7,449.8z"/>
							<path class="st4" d="M663.5,434.4c0,0.1-0.1,0.1-0.1,0.2C663.4,434.6,663.5,434.5,663.5,434.4z"/>
							<path class="st4" d="M665,443.4c0.2,0.1,0.4,0.2,0.7,0.3C665.5,443.5,665.3,443.2,665,443.4z"/>
							<path class="st4" d="M666,443.8c-0.1,0-0.2-0.1-0.4-0.1C665.8,443.8,665.9,443.9,666,443.8z"/>
							<path class="st4" d="M905.6,796.5c0.4,0.5,1.3,0.4,2.1,0.5L905.6,796.5z"/>
							<path class="st4" d="M777.8,636.2l-0.4,0.1C777.6,636.4,777.7,636.3,777.8,636.2z"/>
							<path class="st4" d="M912.4,791.7l0.1,0.5C912.5,792,912.5,791.8,912.4,791.7z"/>
							<path class="st4" d="M687.1,457.7c1.1,0,0.9,1.6,1.7,1.1C688.3,458.4,688.3,457.2,687.1,457.7z"/>
							<path class="st4" d="M814.8,627.4l0.3,0.3C814.9,627.5,814.9,627.4,814.8,627.4z"/>
							<path class="st4" d="M912.4,791.7l-0.2-0.5c-0.1,0.1-0.2,0.3-0.3,0.4C912.1,791.6,912.3,791.7,912.4,791.7z"/>
							<path class="st4" d="M818.9,693.7C818.9,693.7,818.9,693.7,818.9,693.7c-0.1,0-0.2,0-0.2,0L818.9,693.7z"/>
							<path class="st4" d="M819.9,697.7c-0.2-0.2-0.5-0.3-0.7-0.5C819.4,697.6,819.6,697.7,819.9,697.7z"/>
							<path class="st4" d="M907.6,797l1.2,0.3C908.5,797.1,908.1,797,907.6,797z"/>
							<path class="st4" d="M845.2,729.4c-0.1-0.1-0.2-0.2-0.3-0.2C844.9,729.3,845,729.3,845.2,729.4z"/>
							<path class="st4" d="M715.1,539.8c0-0.1,0-0.3,0-0.4C714.9,539.5,714.7,539.6,715.1,539.8z"/>
							<path class="st4" d="M751.4,548.4L751.4,548.4L751.4,548.4C751.4,548.4,751.4,548.4,751.4,548.4z"/>
							<path class="st4" d="M749.6,547.9c0.1,0.5,1,0.7,1.8,0.5C751.1,548,750.7,547.8,749.6,547.9z"/>
							<path class="st4" d="M752.8,551.3c0-0.1,0-0.1,0-0.2C752.8,551.2,752.8,551.2,752.8,551.3z"/>
							<path class="st4" d="M737.2,525.7C737.2,525.8,737.2,525.8,737.2,525.7C737.2,525.8,737.2,525.8,737.2,525.7L737.2,525.7z"/>
							<path class="st4" d="M740.7,530.5c-0.1,0.2-0.1,0.4-0.1,0.6C740.7,530.9,740.8,530.7,740.7,530.5z"/>
							<path class="st4" d="M763.4,561.8C763.4,561.8,763.4,561.8,763.4,561.8C763.4,561.9,763.4,561.9,763.4,561.8
								C763.4,561.9,763.4,561.8,763.4,561.8z"/>
							<path class="st4" d="M801.2,603.3c-3.7-4.2-9.4-9-12.2-13.9c-2.3,0.1-3.3-1.3-4.7-2.5l2-1.6l-1.5-0.7c0.3-0.9,1,0.6,1.2-0.8
								l-1.6,0.5c0.7-0.6-1.7-3.4,1.2-2.5l-3.3-4.7c-0.7-1.1-2.2,0.6-2.5-0.9c0.4-0.7,0.7,0.1,1.4-0.5c-0.9-4.5-6.8-1.1-8.2-5
								l0.5,0.1c-0.9-0.2-1.6-1.2-1.9-1c-1.8,1.9,1.5-0.2,1,1.6c-1.8,1.2-1.8-0.5-3.1,0.5c0.1-1.2-1.2-0.9-1.8-1.5
								c0.3-1.9-1.6-2.9-0.8-4.8c-0.9-0.2-3.1,0.5-4-0.7c0.8-1.8,1.5-0.7,1.2-2.2l-1.2,0.5c-0.5-1.1-0.1-1.1,0.4-1.4
								c-0.7-1-2,0.2-2.2-1.6l1.5,0c-1-0.7-1.1-1.2-2-2.5c0.6-0.4,0.9,0.2,1,0.7c1-1.8-1.5-0.7-1.6-1.2c-0.4,0.4,0.1,1.5-1.3,1.7
								c-0.3-0.8-2.4-0.4-1.5-1.7l1.5,0c-1.7-0.8-1.8,0.2-2.5-1.6c0.1,0,0.4-0.2,0.6-0.3c-2-0.1-1.7-2.2-2.6-3.7l0.5,0.1
								c-0.8-0.3-1.9,0-2-0.4c0,1.2-0.5,1.2-1.4,2c0.9-2.3-3.1-0.3-3.4-2.8c0.6-0.4,1.6-0.5,1.3,0.5c2.2-0.6,3.7-1.6,5.3-1.1
								c-0.9-0.4-1.7-1-0.8-1.4l-1.8,0.9c-0.3-0.4-0.5-0.8-0.7-1.1c-1.1,0.5-1.1,2-2.4,1.5c-1.3-0.7,1.3-1.7,0.4-1.4
								c-1.7-1-2.2,0.6-2.6-1.2c0.2,0,0.7,0.1,0.6,0.4c-0.1-1.5-2-2.3-0.3-3.9c0.5-0.2,1.1-0.5,1.3,0l-0.3,0.2c2.2,0.1-1-0.7,1-1.5
								c-1,0.8-1.8-0.8-2-1.6l-1.1,1c-5.1,0.4,2.5-1.5,0.5-3.3c-1.7-0.8,0,0.7-1.4,0.5c-0.4-1.1,0.4-2.1-1-3.1
								c0.2-0.7,0.3-1.9,1.6-2.9c-1.1-0.4-1.1-2.9-2.7-2.4c-0.2,2.2,2.4,0.4,1.7,3.2l-1.6,0.5c-0.7-1.2-2.4-2.1-2.4-3.2
								c-0.1,0.3-0.4,0.6-0.8,0.7c-1.6-1.2-3.2-0.8-3.9-2.6c1.1-1,1.5,0,2,0.6c0.3-1.7-0.7-1.1-1.3-2.9c1-0.8,0.7,1.1,1.8,0.6
								l-1.5-1.5c0.1,0,0.1-0.1,0.2-0.1c-1.9,1-0.8-1.4-2-2.1c-1.7-2.5-4.3-1.2-6.7-1.6c0.2-0.7,0.6-1.1,1.1-1.3
								c-0.4,1.2,0.2,0.6,0.8,0.5c-0.8-0.7,0.4-3,1.5-3.1c-1.4-1-0.6,1.1-1.7,0.7L729,517c-0.8,0.8-0.5,1.6-1.8,1.1
								c-0.8-0.6-0.9-1.1-1.6-2.2c0.5-0.2,1.1-1.3,1.6-0.5c0-0.7-0.5-1.6-1.6-1.3c0,1.7-2.1-1.3-2.9,0.5l0-1.7
								c0.2,0.3,0.8-0.1,0.9,0.4c1.1-1.3-1-0.7-1.4-1c0-0.6-0.6-1.7-0.1-2.2c-0.6-0.1-0.9-1.2-0.4-1.8c-0.6-0.4-0.9,0.6-1.5,0.7
								l-1.1-1.9c0.7-0.6,2.7-2.2,3.2-2.1c-1.2-0.2-2.4,1.3-3,0.2c1.9-0.4,0.2-2.2,2.5-2.5c0.7-1.3-0.6-3-1.6-3.7
								c-1.6,0.2,0,1.5-1.2,2.2c-2.2-2.3-5.6-0.2-6.4-2.6l0,0.7c-1.5-0.7-1.3-0.7-2.8-0.7c1.7-0.7,3-4.1,1.3-5.9
								c-0.9,0.3-0.6,2.1-2,2.6l-1.1-1.2c0.1-0.2,0.4-0.2,0.7-0.2c-1.3-0.8,0.4-3.5-1.6-2.7l1.3-2.7l-0.6,1.1
								c-0.8,0.3-2-0.8-2.4-0.9c-1.7-0.8-1.4-1.7-1-3.1c-0.4,0.7-1.4,2.2-2.4,1.3c2.4-1.6-0.6-2.8,0.6-3.7c-0.3-0.4-0.1-1.7-1.1-1.1
								l1.5-1c-2.2,1.3-3.1-0.3-4.3-1.3c3-1.7-1.1-1.2,1.1-3.5c-2.1,1.1-2.2-1.6-4-0.7c-0.7-0.9,1.1-2,1.6-2.7l-1,0.1
								c0.6-1.1-0.5-2.9-0.6-4.4l-2.4,0.2l0.5-0.9c-0.5,0.1-1.3-0.5-1.6,0.4l-0.3-0.6c-1.9,1.2-1-0.4-2.5-0.9c0.1-0.4,0.6-0.7,1-0.6
								c-0.3-0.5,0.8-1,1.2-1.7c-0.2,0.7-4.6,0.4-4.5,2.4c-0.7,0.6-1.8,0.2-1.8-0.6l1.5-1.5l-2.2,0.6c-0.8-0.6,0-1.7-0.2-2.5
								c0.6,0.6,4.2-0.7,3-2.4c0.8,0.8,2.1,0.6,2.7,0.8c-0.2-0.4-0.1-0.7,0.9-0.6c-1.4-1-1.3,0.3-2.4-0.9c1.5-0.9,1.8-1.6,1.5-3.2
								l-0.5,1.6c-0.2,0.1-0.4,0.1-0.5,0.1c0.1,0.4-0.1,0.7-0.6,1.2c-0.2-0.3-2.9-0.3-2.1-1.1c-1.4,2.9-3.4-1.1-4.2,0.7
								c-0.5,0.1-1.3-0.7-0.6-1.3c1.9,0.3,1.1-2,2.3-2.5c-0.7-0.1-0.5,1.6-1.5,1.5c-0.6-0.6,0-1.7,0.3-2.4l0.5,0.1l0-1.5
								c-0.9,0.3-0.6,1.9-1.6,1.2c0.1-0.5-0.9-1.1-0.3-1.5c1.3-0.3,2.5-1.5,3.3-0.9c-0.6-0.6-2.2-2.6-3-0.8l-0.5-0.8
								c-0.3,0.9-0.5,3.1-1.8,1.6l0.3-0.2l-1.9-0.3l0.4-1c-0.4,0.3-0.8,0.3-1.1-0.1c0.4-0.4,0.3-0.9,0.9-1.3
								c-0.9-1.1-1.6-0.5-2.1-0.4c-0.6-0.6-0.4-1.1,0.7-1.3c-0.4-1-1.7-2.5-1.3-3.7c-1.5-0.8-0.1,0.5-1.6,0.4
								c1.9-2.8-1.7-4.7-3.4-6.5c-1.9,2.1-0.6-0.4-3,0.7c1-0.1,0.5-3.1,2.3-1.8l-1-0.9c0.8-1.6,2.1,1.1,3.1-1.1
								c-0.9-1.1-3.9-0.2-4-2.2c1.9-0.6-1.3-0.7,0.7-1.6c0.8-0.1,0.9,0.4,1.3,0.7l0.1-0.5c-1.3-2.9-2.4,0.5-4.5-0.1
								c-1.3-1.5,0.4-2.1,1.1-2.7c0.1-0.5-0.6-1.1-1.4-1.2c1.6,0.3,0.2,2.5-1.1,2.7c1.4-2-1.4-2.5-2.5-2.4c-0.4,3.6,1,1.6,0.3,5.2
								c0.8-0.1,2.4-1.3,2.6,0.5c-1.4-0.2-0.9,0.7-1,1.1c0.8-0.9,1,0.6,1.7,0.7c-0.5,0.9-2.7,0.7-2.2,2.3l2.4-1.3
								c0,0.7-1.8,0.9-0.5,1.6c-1.6,0.2-1.7,1.4-3,0.2c-0.7,3,2.9,2,4.6,2.8c-0.2,0-0.5,0.1-0.8,0.1c0.8-0.1,1.1,0.4,1.5,0.8
								c0.1,1.2-1.5,0-1.9,0.6l1,1.4c-0.1,0.1-0.1,0.1-0.1,0.1c0.6,0.2,1,0.4,0.5,0.9c-1,0.1-1.9,0.4-2.7,0.5l2.6,0.5
								c-0.8,0.3-0.4,2.1-1.7,1.4l1.8,2l-1.4,1.2c0.6,0.4,0.9,0.2,0.7-0.6c0.2,1,5,1.6,1.7,3.2c2.4,0.9,2.4,1.9,4.6,3.5
								c-2.5-0.7-0.5,3.1-2.3,1.8c0,1.5,1.8,0.6,2.6,1.2c-0.1,1.2-1.8,1.9-2.9,1.4l1.3,0.5l-0.3,0.2l1.4,0.3c-0.2,1.4-1.4,1.2-1,2.3
								l1.5-0.7l-0.4,1.2c0.5-0.7,1.1-0.3,1.6,0.3l-0.3,0.2l0.8,0.6c-1.4-0.2,0.2,0.9-1,1.2c0.4,0.7,0.4,0.7,1.5,1.8l0.8-0.8
								c1.9,1.1-1.3,1-0.5,2.4l1-0.8c-0.5,3.1,3.2,2.5,3,4.7c-0.8-0.6-1.9,0.4-1.6,0.2c1.2,0.9,2.3,3.1,4.4,3.5
								c-1.2,1.5-1.6,1.9-1.4,3.7c0.7,0.9,1,0.9,2.1,0.6c0,1.3,2.1,2.4,1,3.2c1-0.4,0.4,0.9,1.5,0.9l-0.4,0.4l1-0.8
								c-1.2,3.2,3.2,1.8,2.2,4.8l-0.5-0.1l0.9,0.4c-0.4,0.4-0.9,0.3-1.5,0.7l2,3.3l0.4-1.2c0.6,0.6,1.9,0.3,1.8,1.5
								c-2.4-0.2,0.7,1.1-0.4,2.1l-0.9-0.4c0.7,0.9,0.7,0.9,1.7,0.1c1.2,0.9-1.4,2.2,0.5,2.5l-0.5-0.8c0.4-0.7,1.7-0.7,2-0.1
								c-0.1,0.2-0.3,0.9-0.7,0.6c1,0.7,1.5,2.5,2.2,2.6c0,0.7-0.8,1.1-1.3,1c2.3,1.4,0.4,1,2.7,2.4l-0.6,0.4l1.2,0.2l-0.6,1.9
								l0.5-0.9c0.6,0.6,1.3,0.7,1.5,1.7l-1.1,0.3c1.8,1.5,0,3.2,2.5,4.1c-0.1,0.2-0.5,0.2-0.8,0.1c2.5,0.7-0.7,2.3,2.1,2.8
								c-0.4,0.1-0.6,0.5-0.9,0.6l1.1,0.4l-1.2,0.8l2.2-0.6l-0.9,1.3l0.8-0.1c-1.7,2.4,0.8,2.3-0.2,4.6l1.4-1.2
								c5,0.6,2.6,7.6,6.4,9.9l-1.2,0.8l2.4,0.4c-0.4,1.4-1.3,0.3-1.8,0.9c1.7,1,2.2-0.6,3.7,0.9c-0.2,1.4-1.1,0.3-1.8,0.2
								c1.7,1.2,4,3.1,4.1,4.7c0.2-0.1,0.4-0.2,0.5-0.3c1.3,0.7,1.7,2.5,2.6,3.6c-0.6,0.4-0.9,0.1-1.2-0.1c0.2,0.5,0.3,1.3,1.1,1.3
								l-1.3,0.3c0.4,1.1,2.6,2.2,1.5,3.2c0.4-0.4,1.3-1,1.8-0.2c-1.5,1.7,2.2,1.6,2.1,3.5c-0.5,0.2-1.3-0.7-1.1-0.4
								c0,1,1.2,0.9,2.1,1.1l-0.8,0.3l3,2.2c-1.5,1.7,2.2,2.6,0.7,3.3c0.7,1.1,0.2-1.4,1.3-0.3c-0.5,0.9,1.2,0.9,0,1.7l-0.2,0
								l0.7,0.9l-1.6,0.2c0.8,0.6,2.4,0.4,3.3-0.2c-0.1,1.2,1.2,1.9,0.3,3l-0.5-0.1c1.9,1.8-0.7,5.7,2.4,6c-0.1,0.2-0.4,0.4-0.5,0.2
								l0.8,1.4l-1.1,0.3l2.9,1.2l-0.6,0.4c0.8,1.6,2.6,3.6,4.1,5.3l-0.5-0.1c2.3,1.4,0.8,2.3,2.5,3.3c-0.2,0.1-0.3,0.1-0.4,0
								l0.9,1.3l-0.8,0.1c2,0.1,0.3,4,1,2.6c0.9,0.2,2.3,0.6,3.1,0.3c1.1,1.4-0.5,0.9-0.4,2.1c0.7,1.1,1.8,0.5,2.3,2.3l-0.6,0.4
								c0.6,0.6,1.3,0.7,2,1.6l-0.5-0.1c2.3,0.6-0.4,3.1,3,2.4c0,1,1.2,1.9-0.1,2.7c2.1,1.3,3.5,2.5,5.2,4c-1.7,1.7,0.4,0.3,0.1,2.2
								l1-0.8c2,2.5,1.5,7.3,4,9.9l-1,0.8l1.6-0.2c1.7,3.5,4.1,7.8,5.9,10.2c1.1,0.4,3.2,0.8,3.8,2.3l-0.2,0
								c2.2,1.8,4.3,3.9,5.5,6.7c-0.5,0.2-0.7,0.6-1.2,0.5c1.6-0.2,1.1,1.4,1.4,1.9l0.3-1.2c1.5,0,1.2,1.7,0.7,2.6l1.9,0.3
								c-0.1,0.1-0.1,0.4-0.3,0.5l0.7-0.2l-1,1.6c0.5,0.1,1.9,1.3,3.5,0.8c-0.4,0.4,0,1.7-0.8,1.1l2.5,4.3l0-1
								c1-0.8,2.5-0.1,2.5,0.9c-1.4-0.2-1.5,1-2,1.9c0.9,0.1,0.6-1.1,1.3-1.2c1.2,0.2,2.6,1.4,2.4,2.1l-0.7-0.1
								c1,0.7-0.4,2.4,0.3,3.2c1.4,0.2,1.1,1.4,2.7-0.1c1.2,0.9-0.9,1.3-0.8,1.8c1.3-0.1,1.9,2,1.2,2.9c3.1-1.2,1.4,3.9,3.7,2.5
								l-0.5,1.9c0.6-0.4,2.1-1.1,2.9-0.5c-0.1,1.2-1.2,1.8-1.7,2.4l2.5-1.1c0.8,6,6.4,10.5,7.9,16.6c2,1.8,4.9,3.7,6.4,6.3
								l-0.5-0.1l1.2,2.9l-0.3-2.5c0.6,0.3,1.4,0.5,1.7,1c1,3.3,2.5,7.7,6,10.1c4,0.3-1.2,3,2.1,3.7c-0.4,0-0.8,0.2-1.1,0.2
								c2.4,1.6,3.7,2.4,6.8,3.6c-2.6,1.6,1.1,1.4-0.3,2.1l1.1-0.6c-0.3,0.9,0.4,2.2-0.5,2.6l2,0l-1,0.8c0.8,1.3,3.7,3.5,2.2,5.7
								c3.9,2,7.2,7.3,9.7,11.6c1.3-0.1,2.2,1,2.9,1.9l-0.5,1.9c1.1,0.6,3.3,0.5,3.2,1.9c-0.1,0.1-0.3,0.1-0.4,0.1
								c0.9,0.7,1,2.1,2.7,2.1c0.7,1.1,0.8,2.6-0.6,3.1c2.1-1.4,1.3,2.4,1.3,2.4s2.2,3.5,5.8,8.8c3.6,5.3,8.6,12.5,14.4,19.7
								c5.9,7.2,12.3,14.6,18.7,20.3c6.5,5.7,12.8,9.8,18,10.7c1.3-0.4,2.9,0.2,3.6-1.2c1.1,0.6-0.2,2.4,0.9,1.8
								c-0.4-1.7,2.8-1.7,2.9-3.9l0.9,0.6c0.8-0.4-1.6-0.4-0.2-1.2l-1.9,1.3c-0.2-0.8-0.2-1.5,0.3-2.2c-1.2,0-3.9,1.7-4-0.6l0.4,0.3
								c-1-1.1,0.6-1.7,0.7-2.1l0.2,0.3l0.1-1.7c0,1.2,2.4,1.2,1.8,0.6c-0.6-1.7-0.1,0.7-1.2-0.1c-0.6-0.5,0.5-1.2,1.1-1.6l-1-1.1
								c0.9-0.7,0.6,0.8,1-0.4l-2-0.7c1.9-2-2.3-0.7-0.8-3c1.3,0.6,0.6-0.7,1.4-1.1l-2.2-2.3c0.1-0.5,1.2,0.1,0.8-0.2
								c0.2-0.9-1.1-0.3-1.3-0.6c0.4-0.7-1.6-1.8-0.1-2.9c-0.4-2.4-2.4,0.8-2.9-1.4c0.7-0.9,1.2,1.1,1.5-0.3l-1.7-1.3
								c0.5-0.2,1.6-0.8,2-0.1c-2.5-5.3,0.2-11.3-4.1-14.4c0.6-1.4,1-0.1,2-0.3c-3.7-1.8-1-5.9-3.1-8.3l-0.9,0.6
								c-0.1-5.5-5-8.4-6.9-13.3l-0.2,0.9c-1.2,0.1-2-0.7-2.9-1.1c0.4-0.4,2.2-0.9,1-1.8c-0.1,0.5-0.1,1.2-0.6,1.4
								c-0.4-5.1-6.4-11.9-9.6-18.3c-6.4-7.1-10.9-16.7-17.1-23.8c0.9,1.1-1.6,2.2-1.7,1c1.9-5.1-3.7-3.6-3-7.9
								c-4.4-3.5-4.1-9.8-9.9-11.9l1-0.8c0-1-0.8-0.6-1.4-1.2l0.3-0.2c-0.7-1.8-3.1-2.9-3.3-4.1l-1.2,0.8c-0.8-0.8,0.6-1.1-0.8-1.6
								l0.6-0.4l-1.9-0.3c2.1-1.4-1.7-2.7-1.3-4.1c-1.2-0.9-3.7-2.5-4.6-4.6c0.8-1.1-0.8-3.3-1.3-5.1c-2.2-2.5-5.4-6.2-7.5-9.9
								l-1.3,1l-0.7-0.8c0.3-0.2,0.4-0.4,0.6-0.4c1-1.8-2-1.7-1.6-3.1c-0.9,1.3,0.3,0.8,0.6,1.3c-0.1,1.2-1.9,1.4-2-0.1l0.3-0.2
								l-1.2-0.2c1-0.8,1-1.8,2-2.6c-2.4-2.8-5.6-3.5-7.4-7c1.4-0.5-1.9-2,0.6-2.8c-2.1-1.3-1.4,1.5-3.4,1.7
								c-0.3-0.5-1.3-0.7-0.6-1.3c0.7-0.1,0.9-1.3,1.4-1l-1-1.1c0.1-0.2,0.5-0.2,0.8-0.1c-3-1.7-1.9-5.4-4.7-6.8
								c-0.8,0.4,0.4,1-0.4,1.4c-3.1-1.2-0.1-2.9-2.7-4.3l1.3-0.3c-1.2-0.2-2.3,0.1-2.3-1.6c1.1-1.1,1.7,0.3,2.6,0.4
								c-0.5-0.8-2.2-2.5-2.9-1.2c-1.1-0.6-0.2-1.7-0.3-2.5c-0.3,0.2-0.2,1.4-1.1,1.3c-0.2-1.7-1.6-3.7-2.6-5.3
								c0.3-0.2,0.7-0.6,0.9-0.6C800,606.6,802.8,604.8,801.2,603.3z"/>
							<path class="st4" d="M737,525l0.3,0.8c0.3-0.2,0.6-0.4,1.1-0.3L737,525z"/>
							<path class="st4" d="M757,555.3c0.2,0,0.3,0,0.5,0C757.3,555.2,757.2,555.2,757,555.3z"/>
							<path class="st4" d="M764.2,561c-0.6-0.3-0.6,0.3-0.7,0.8C763.7,561.7,764,561.5,764.2,561z"/>
							<path class="st4" d="M722.1,510.3c0.2,0,0.4,0,0.6-0.2C722.4,510.1,722.2,510.2,722.1,510.3z"/>
							<path class="st4" d="M690.7,462.9c0,0.1,0,0.2-0.1,0.3C690.7,463.1,690.7,463,690.7,462.9z"/>
							<path class="st4" d="M690.6,466.8c0.1,0.1,0.2,0.3,0.5,0.4C691,466.9,690.8,466.8,690.6,466.8z"/>
							<path class="st4" d="M730.4,521.3c0.2,0.1,0.4,0.3,0.7,0.2C730.9,521.3,730.6,521.3,730.4,521.3z"/>
							<path class="st4" d="M691.7,467.5l0.3,0.7c0.1-0.1,0.1-0.1,0.2-0.1L691.7,467.5z"/>
							<path class="st4" d="M690.2,462c0.1,0.3,0.4,0.6,0.4,0.9C690.8,462.3,690.6,462.1,690.2,462z"/>
							<path class="st4" d="M708.7,494.2C708.7,494.2,708.7,494.2,708.7,494.2C709.6,494.4,709.2,494.2,708.7,494.2z"/>
							<path class="st4" d="M695.7,469c0,0,0,0.1,0,0.1l0.5,0L695.7,469z"/>
							<path class="st4" d="M688.8,458.8c0.1,0.1,0.2,0.2,0.4,0.2c0-0.1-0.1-0.3-0.1-0.5C689,458.7,688.9,458.7,688.8,458.8z"/>
							<path class="st4" d="M703.8,483.1c-0.6,0.1-0.9,0.3-1.2,0.4C702.8,483.7,703.1,483.7,703.8,483.1z"/>
						</g>
					</g>
				</g>
			</g>
		</g>
		<g id="XMLID_22395_">
			<g>
				<g>
					<g>
						<g>
							<path class="st4" d="M363.3,864.5c-0.2,0-0.4,0-0.7,0C362.9,864.5,363.1,864.5,363.3,864.5z"/>
							<path class="st4" d="M359.1,874.9l-0.3-0.1C358.8,874.9,358.9,874.9,359.1,874.9z"/>
							<path class="st4" d="M365.1,858.3c0.1,0,0.1,0,0.2,0c0-0.1,0.1-0.2,0.1-0.4L365.1,858.3z"/>
							<path class="st4" d="M354.3,897.1l0-0.1C354.3,897,354.2,897,354.3,897.1z"/>
							<path class="st4" d="M357.5,883.9c0.3,0,0.4,0.1,0.5,0.2C358,884,357.9,884,357.5,883.9z"/>
							<path class="st4" d="M379.2,855l-1,0.2C378.6,855.2,379.1,855.1,379.2,855z"/>
							<path class="st4" d="M375.3,848.7c-0.1,0-0.1,0-0.2,0C375.2,848.7,375.3,848.7,375.3,848.7z"/>
							<path class="st4" d="M371.5,851.1c0.1,0.1,0.3,0.1,0.4,0.2C371.9,851.2,371.9,851.1,371.5,851.1z"/>
							<path class="st4" d="M372.2,851.4c-0.1,0-0.2-0.1-0.2-0.1C371.9,851.4,372,851.4,372.2,851.4z"/>
							<path class="st4" d="M359,977.6c0,0.2,0.7,0.3,1.3,0.5L359,977.6z"/>
							<path class="st4" d="M353.8,917.2l-0.4,0C353.5,917.2,353.6,917.2,353.8,917.2z"/>
							<path class="st4" d="M367.3,977.8l-0.2,0.1C367.3,977.9,367.3,977.9,367.3,977.8z"/>
							<path class="st4" d="M381.7,858.3c0.9,0.2-0.2,0.6,0.7,0.6C382.3,858.7,383,858.4,381.7,858.3z"/>
							<path class="st4" d="M389,921.4l0,0.1C389.1,921.5,389,921.4,389,921.4z"/>
							<path class="st4" d="M367.3,977.8l0.2-0.1c-0.2,0-0.3,0-0.5,0C367.2,977.8,367.3,977.8,367.3,977.8z"/>
							<path class="st4" d="M353.4,938.1C353.4,938.1,353.4,938.1,353.4,938.1c-0.1,0-0.1,0-0.2,0L353.4,938.1z"/>
							<path class="st4" d="M351.9,939.2c-0.1-0.1-0.2-0.2-0.3-0.2C351.5,939.1,351.6,939.1,351.9,939.2z"/>
							<path class="st4" d="M360.3,978.1l0.7,0.3C360.9,978.3,360.6,978.2,360.3,978.1z"/>
							<path class="st4" d="M353.2,951.1c0,0-0.1-0.1-0.1-0.1C353.1,951.1,353.1,951.1,353.2,951.1z"/>
							<path class="st4" d="M358,883.1c0.1,0,0.1-0.1,0.2-0.1C358,883,357.9,883,358,883.1z"/>
							<path class="st4" d="M382.9,891.4L382.9,891.4C382.9,891.4,382.9,891.4,382.9,891.4C382.9,891.4,382.9,891.4,382.9,891.4z"/>
							<path class="st4" d="M381.7,890.9c-0.2,0.1,0.5,0.3,1.2,0.4C382.9,891.2,382.7,891.1,381.7,890.9z"/>
							<path class="st4" d="M382.4,892.3c0,0,0.1,0,0.1-0.1C382.5,892.3,382.4,892.3,382.4,892.3z"/>
							<path class="st4" d="M384.3,883.4c0,0-0.1,0-0.1,0C384.2,883.4,384.2,883.4,384.3,883.4L384.3,883.4z"/>
							<path class="st4" d="M384.4,885.2c-0.2,0-0.3,0.1-0.4,0.1C384.2,885.3,384.3,885.2,384.4,885.2z"/>
							<path class="st4" d="M385,896.7C385,896.7,385,896.7,385,896.7C385,896.7,385,896.7,385,896.7C385,896.7,385,896.7,385,896.7
								z"/>
							<path class="st4" d="M391.9,913.2c-0.5-1.7-2.4-3.8-1.9-5.5c-1.9-0.4-2-0.9-2.4-1.4l2.6-0.1l-0.8-0.4c0.8-0.2,0.5,0.3,1.4,0
								l-1.6-0.2c0.9,0,0.6-1.1,2.4-0.4l0-1.7c0.1-0.4-2.1-0.2-1.5-0.6c0.7-0.1,0.5,0.1,1.4,0.1c1.9-1.2-4.9-1.4-3.8-2.6l0.3,0.1
								c-0.7-0.2-0.6-0.6-1-0.6c-2.6,0.1,1.4,0.2-0.1,0.6c-2.2,0-1.2-0.4-2.8-0.4c0.8-0.3-0.4-0.4-0.6-0.7c1.4-0.4,0.4-1,2.1-1.3
								c-0.7-0.2-2.8-0.4-2.9-0.8c1.7-0.3,1.6,0.1,2.3-0.3l-1.3-0.1c0.2-0.3,0.5-0.3,1.1-0.3c0.1-0.4-1.7-0.3-0.9-0.8l1.2,0.3
								c-0.5-0.3-0.3-0.5-0.2-0.9c0.7,0,0.7,0.2,0.5,0.3c1.9-0.3-0.8-0.4-0.6-0.6c-0.5,0-0.8,0.4-2,0.2c0.2-0.2-1.7-0.5-0.2-0.7
								l1.2,0.3c-1-0.5-1.6-0.3-1.1-0.8c0.1,0,0.4,0,0.7,0c-1.6-0.4-0.1-0.8,0-1.3l0.3,0.1c-0.4-0.2-1.5-0.3-1.5-0.4
								c-0.7,0.3-1.1,0.2-2.3,0.2c2.1-0.4-2.4-0.6-1.2-1.2c0.7,0,1.6,0.2,0.8,0.3c2.1,0.2,3.9,0.2,4.9,0.6c-0.5-0.2-0.8-0.5,0.1-0.5
								l-2-0.1c-0.1-0.1,0.1-0.3,0.1-0.4c-1.3-0.1-2.1,0.3-2.9,0c-0.6-0.4,2-0.2,1.1-0.3c-0.8-0.5-2.1-0.2-1.5-0.7
								c0.2,0.1,0.5,0.2,0.3,0.2c0.8-0.4-0.4-0.9,2-1c0.5,0.1,1.2,0.1,1,0.2l-0.4,0c1.7,0.4-0.5-0.3,1.7-0.2c-1.3,0-1-0.5-0.8-0.7
								l-1.5,0.1c-4.4-0.8,2.9,0,2.3-0.7c-1-0.5-0.4,0.2-1.4-0.1c0.3-0.3,1.6-0.5,0.9-0.9c0.6-0.1,1.4-0.4,3-0.4
								c-0.7-0.3,0.7-0.9-0.9-1.1c-1.4,0.5,1.7,0.5-0.4,1.1l-1.6-0.2c0.1-0.4-0.7-0.9-0.1-1.2c-0.3,0.1-0.7,0.1-1.1,0
								c-0.6-0.6-2.2-0.7-1.7-1.3c1.5-0.1,1.2,0.3,1.3,0.5c1.2-0.4,0.1-0.4,0.6-0.9c1.3,0-0.1,0.4,1.2,0.4l-0.4-0.6
								c0.1,0,0.2,0,0.3,0c-2.1-0.1,0.2-0.5-0.4-0.9c0-0.9-2.9-1-4.6-1.5c0.6-0.1,1.1-0.2,1.7-0.1c-0.9,0.2-0.2,0.2,0.4,0.3
								c-0.2-0.3,2.1-0.7,3-0.5c-0.6-0.5-1.1,0.2-1.8-0.1l0.1-0.7c-1.1,0.1-1.3,0.3-2.2,0c-0.3-0.3-0.1-0.4,0-0.8
								c0.5,0.1,1.7-0.1,1.6,0.2c0.4-0.2,0.5-0.5-0.6-0.6c-1,0.4-0.9-0.7-2.6-0.4l1-0.4c0,0.1,0.7,0.1,0.5,0.2
								c1.7-0.1-0.5-0.3-0.6-0.5c0.3-0.1,0.5-0.5,1.1-0.6c-0.5-0.1-0.1-0.4,0.8-0.5c-0.3-0.2-1.1,0-1.6-0.1l0.1-0.7
								c0.9,0,3.5-0.1,3.8,0c-0.8-0.2-2.7-0.1-2.6-0.5c1.8,0.2,1.4-0.5,3.5-0.2c1.3-0.2,1.3-0.8,0.8-1.2c-1.4-0.2-0.8,0.4-2.2,0.3
								c-0.5-1-4.5-1-3.8-1.7l-0.4,0.2c-0.8-0.4-0.6-0.4-1.9-0.6c1.8,0.1,4.8-0.5,4.4-1.2c-0.9-0.1-1.7,0.4-3.1,0.3l-0.3-0.5
								c0.1,0,0.4,0,0.7,0.1c-0.6-0.4,2.3-0.8,0.2-0.9l2.6-0.4l-1.1,0.2c-0.9-0.1-1.1-0.5-1.5-0.6c-1-0.5-0.2-0.7,0.9-0.9
								c-0.7,0.1-2.4,0.3-2.7-0.1c2.9,0,1.1-0.8,2.6-0.8c0-0.2,0.9-0.4-0.3-0.4l1.8,0c-2.5,0-2.4-0.6-2.9-1c3.4,0.1-0.3-0.5,2.9-0.7
								c-2.3-0.1-0.9-0.8-2.9-0.8c-0.1-0.3,2.1-0.3,2.8-0.4l-0.9-0.2c1.1-0.2,1.3-0.8,2-1.2l-2.1-0.3l0.9-0.1
								c-0.5-0.1-0.8-0.3-1.6-0.2l0.1-0.2c-2.2,0-0.6-0.3-1.6-0.6c0.4-0.1,0.9-0.1,1.2,0c0-0.2,1.2-0.1,1.9-0.2
								c-0.6,0.1-4-0.7-5-0.2c-0.9,0-1.6-0.3-1.2-0.4l2-0.1L375,860c-0.3-0.3,1-0.4,1.2-0.6c0.1,0.2,3.9,0.5,3.8-0.1
								c0.3,0.3,1.4,0.5,1.8,0.7c0.1-0.1,0.3-0.2,1.1,0c-0.6-0.5-1.2-0.2-1.5-0.6c1.8,0,2.4-0.1,3-0.5l-1.3,0.3
								c-0.2,0-0.4,0-0.5-0.1c-0.2,0.1-0.5,0.2-1.2,0.2c0-0.1-2.2-0.6-1.1-0.6c-2.8,0.5-2.2-0.8-3.9-0.5c-0.5-0.1-0.6-0.4,0.3-0.4
								c1.4,0.4,2.1-0.3,3.3-0.2c-0.5-0.1-1.3,0.3-2,0.1c-0.1-0.2,1-0.4,1.6-0.5l0.3,0.1l0.8-0.4c-0.9-0.1-1.5,0.4-2,0
								c0.4-0.1-0.1-0.4,0.6-0.4c1.2,0.2,2.9,0,3.2,0.3c-0.1-0.2-0.3-1-2-0.7l0.1-0.3c-0.8,0.2-2.1,0.7-2.4,0.1l0.4,0l-1.4-0.4
								l0.9-0.2c-0.5,0-0.9-0.1-0.8-0.2c0.5,0,0.8-0.2,1.5-0.2c-0.1-0.4-1-0.4-1.5-0.4c-0.1-0.2,0.3-0.3,1.3-0.2
								c0.2-0.3,0-0.9,1-1.1c-0.8-0.4-0.4,0.1-1.6-0.2c3.2-0.4,1.2-1.4,0.8-2.2c-2.8,0.2-0.3-0.2-2.8-0.3c0.9,0.2,2.1-0.7,2.9-0.1
								l-0.3-0.4c1.5-0.3,1.1,0.6,3.2,0.2c-0.1-0.4-3.1-0.7-2.1-1.2c2,0.2-0.6-0.4,1.5-0.3c0.7,0.1,0.5,0.2,0.6,0.4l0.4-0.1
								c0.6-0.9-2.3-0.3-3.6-0.8c-0.2-0.6,1.5-0.5,2.5-0.5c0.4-0.1,0.1-0.4-0.4-0.5c1.2,0.3-1.2,0.6-2.5,0.5c2.2-0.3,0.2-0.8-0.7-1
								c-2.4,0.8-0.1,0.6-2.6,1.3c0.7,0.1,2.7,0.1,1.9,0.5c-1-0.3-1.1,0-1.4,0.1c1.2-0.1,0.5,0.3,1,0.5c-0.9,0.1-2.7-0.3-3.1,0.2
								l2.7,0.1c-0.4,0.2-2-0.1-1.3,0.3c-1.4-0.2-2.2,0.1-2.6-0.5c-2.3,0.6,1.2,1,2.2,1.4c-0.2,0-0.5-0.1-0.7-0.1
								c0.7,0.1,0.7,0.3,0.8,0.4c-0.6,0.3-1.2-0.3-2-0.2l0.1,0.5c-0.1,0-0.1,0-0.2,0c0.4,0.1,0.6,0.3-0.1,0.3
								c-0.9-0.2-1.8-0.2-2.5-0.3l1.9,0.5c-0.9-0.1-1.5,0.5-2.2,0.1l0.4,0.8l-1.8,0.1c0.3,0.2,0.7,0.2,0.9,0
								c-0.4,0.3,3.2,1.2-0.4,1.1c1.5,0.6,0.9,0.9,1.8,1.6c-1.7-0.6-2.1,0.7-2.9,0.1c-0.8,0.4,1.2,0.4,1.5,0.7
								c-0.8,0.3-2.6,0.2-3.2-0.1l0.8,0.3l-0.4,0l1,0.3c-1,0.3-1.8,0.1-2.1,0.4l1.6,0.1l-0.9,0.2c0.7-0.1,1.1,0.1,1.2,0.3l-0.4,0
								l0.3,0.3c-1-0.3-0.3,0.3-1.5,0.1c-0.1,0.2-0.1,0.3,0.2,0.7l1.1-0.1c1,0.6-1.6,0-1.7,0.5l1.3,0c-2.1,0.7,1.2,1.2-0.2,1.7
								c-0.3-0.3-1.8-0.2-1.4-0.2c0.5,0.4,0.1,1.1,1.6,1.6c-1.8,0.2-2.4,0.2-3.2,0.7c0.1,0.3,0.3,0.4,1.4,0.5
								c-0.7,0.3,0.3,0.9-1,0.9c1.1,0.1-0.2,0.3,0.7,0.5l-0.5,0l1.3,0c-2.8,0.6,1.6,1-0.9,1.5l-0.3-0.1l0.5,0.2
								c-0.6,0-0.9-0.1-1.6-0.1l-0.2,1.1l1-0.2c0.1,0.2,1.4,0.4,0.6,0.7c-1.9-0.5-0.1,0.4-1.5,0.4l-0.5-0.2c0.1,0.3,0.1,0.3,1.4,0.3
								c0.4,0.4-2.4,0.3-1.1,0.7l0.1-0.3c0.7-0.1,1.8,0.1,1.7,0.3c-0.2,0-0.8,0.2-0.9,0c0.5,0.3-0.2,0.8,0.3,1
								c-0.4,0.2-1.3,0.1-1.6,0c1.1,0.7-0.2,0.3,0.9,1.1l-0.7,0l0.9,0.2l-1.5,0.4l0.9-0.1c0.1,0.2,0.6,0.4,0.2,0.7l-1.1-0.1
								c0.6,0.7-1.8,0.8-0.3,1.4c-0.2,0-0.5-0.1-0.7-0.1c1.7,0.6-1.9,0.4,0.1,1c-0.4,0-0.8,0-1.1,0l0.7,0.3l-1.4,0l2.1,0.2l-1.5,0.2
								l0.7,0.1c-2.8,0.3-0.7,0.7-2.8,1.1l1.8-0.1c3.8,1-2.1,2.3-0.4,3.5l-1.4,0l1.7,0.5c-1.1,0.3-1.2-0.2-2-0.1
								c0.8,0.5,2.1,0.2,2.5,0.8c-1,0.3-1.1-0.1-1.6-0.3c0.7,0.6,1.5,1.4,0.7,1.8c0.2,0,0.4,0,0.5,0c0.6,0.4,0,0.9,0.1,1.3
								c-0.7,0-0.8-0.1-0.9-0.2c-0.1,0.2-0.5,0.4,0.1,0.5l-1.2-0.2c-0.3,0.3,0.9,1-0.6,1c0.6,0,1.6,0,1.6,0.3
								c-2.2,0.2,0.9,0.8-0.3,1.2c-0.5-0.1-0.6-0.4-0.7-0.3c-0.6,0.2,0.4,0.4,1.1,0.6l-0.9-0.1l1.2,1.1c-2.2,0.2,0.3,1-1.3,0.9
								c-0.1,0.4,1-0.3,1.2,0.2c-0.9,0.1,0.4,0.4-1,0.4l-0.2-0.1l0.1,0.3l-1.4-0.2c0.3,0.3,1.7,0.5,2.8,0.5
								c-0.8,0.3-0.1,0.7-1.4,0.8l-0.3-0.1c0.6,0.8-3.9,1.3-1.5,1.9c-0.2,0-0.6,0-0.5-0.1l-0.1,0.5l-1.1-0.1l1.6,0.8l-0.7,0
								c-0.3,0.5,0.1,1.3,0.3,2l-0.3-0.1c1.1,0.7-0.7,0.7,0.1,1.2c-0.2,0-0.3,0-0.3-0.1l0,0.5l-0.7-0.1c1.6,0.4-2,1-0.7,0.8
								c0.7,0.2,1.5,0.5,2.4,0.6c0.1,0.5-0.9,0.1-1.5,0.4c-0.1,0.4,1.2,0.4,0.5,1l-0.7,0c0.1,0.2,0.6,0.4,0.8,0.7l-0.3-0.1
								c1.5,0.5-2.1,0.7,1,1.1c-0.6,0.2-0.1,0.7-1.6,0.6c0.9,0.7,1.4,1.2,2,1.9c-2.4,0.1,0.2,0.1-1.2,0.6l1.3,0c0.2,0.9-3,2-2.5,3.1
								l-1.3,0l1.4,0.2c-0.6,1.1-1.1,2.6-1.1,3.5c0.7,0.3,2.2,0.7,1.7,1.2l-0.2,0c0.7,0.8,1.3,1.7,0.5,2.6c-0.5-0.1-0.9,0-1.3-0.1
								c1.4,0.2,0.1,0.5,0,0.7l1-0.2c1.2,0.3,0,0.6-0.9,0.7l1.4,0.4c-0.1,0-0.3,0.1-0.5,0.1l0.7,0.1l-1.7,0.2
								c0.3,0.1,0.8,0.6,2.4,0.8c-0.6,0-1,0.4-1.3,0.1l-0.5,1.5l0.6-0.2c1.3,0,2.1,0.4,1.5,0.6c-1-0.3-1.8,0-2.7,0.1
								c0.7,0.2,1.1-0.2,1.8-0.1c0.9,0.2,1.3,0.8,0.7,0.9l-0.5-0.1c0.5,0.3-1.7,0.5-1.6,0.8c1,0.3,0.1,0.5,2.3,0.5
								c0.4,0.4-1.5,0.2-1.7,0.3c1,0.2,0.4,0.8-0.7,0.9c3.2,0.2-1.2,1.2,1.5,1.3l-1.5,0.4c0.7,0,2.3,0.1,2.6,0.4
								c-0.8,0.3-2,0.2-2.8,0.3l2.7,0.2c-2.9,1.6-1,3.6-3.3,5.3c0.6,0.8,1.8,1.7,1.4,2.6l-0.3-0.1l-0.7,0.9l1.2-0.6
								c0.3,0.2,0.8,0.3,0.8,0.5c-1.1,1-2.5,2.3-1.1,3.5c3.1,0.8-2.7,0.5-0.5,1.3c-0.3-0.1-0.7-0.1-1-0.1c1,0.8,1.6,1.2,3.4,2
								c-3.1-0.1,0.1,0.5-1.5,0.5l1.2,0.1c-0.8,0.2-1,0.6-1.9,0.5l1.6,0.4l-1.3,0c-0.1,0.5,0.9,1.5-1.6,1.7c1.9,1.2,1.3,3,0.8,4.5
								c1,0.2,1.1,0.6,1.2,1l-1.5,0.4c0.5,0.3,2.4,0.7,1.4,1c-0.2,0-0.3,0-0.4,0c0.3,0.3-0.5,0.7,0.9,1c-0.1,0.4-0.9,0.7-2.3,0.6
								c2.5,0-0.4,0.8-0.4,0.8s-6.2,19.4,7.6,24.1c1.2,0.2,2.1,0.6,3.5,0.4c0.5,0.3-1.7,0.5-0.5,0.6c0.8-0.5,3.2,0.1,4.8-0.3
								l0.3,0.3c0.9,0.1-1-0.4,0.6-0.3l-2.3-0.1c0.4-0.2,0.8-0.4,1.6-0.4c-0.9-0.2-4.1-0.4-2.7-0.9l0.1,0.1
								c-0.1-0.4,1.5-0.3,1.9-0.4l0,0.1l1.2-0.4c-0.8,0.3,1.1,0.7,1,0.5c0.7-0.5-0.6,0.1-0.9-0.3c-0.1-0.2,1.1-0.2,1.8-0.2l-0.1-0.4
								c1.1,0-0.1,0.3,1.1,0.1l-1.2-0.5c2.7-0.1-1.3-0.6,1.3-0.8c0.6,0.4,0.9,0,1.8,0l-0.2-0.9c0.4-0.1,0.8,0.2,0.7,0.1
								c0.8-0.2-0.7-0.3-0.6-0.4c0.8-0.1,0-0.7,1.8-0.7c1.2-0.6-2.3-0.3-1.3-0.9c1.1-0.1,0.3,0.5,1.4,0.2l-0.4-0.6
								c0.5,0.1,1.8,0.1,1.6,0.4c1.5-1.7,7.3-2.6,5.8-4.1c1.3-0.2,0.9,0.2,1.7,0.3c-1.7-1.1,2.9-1.6,2.7-2.5l-1.1,0
								c3.4-1.3,1.4-2.9,2.8-4.4l-0.8,0.2c-1-0.2-1.2-0.5-1.6-0.8c0.5,0,2.3,0.2,1.9-0.3c-0.4,0.1-0.8,0.3-1.3,0.2
								c2.8-1.3,2.1-4,3.5-6.1c-0.8-2.8,1.3-5.9,0.6-8.7c0.1,0.4-2.6,0.2-2-0.1c4.5-0.9-0.8-1.5,2.3-2.4c-1.5-1.6,2.5-3.1-1-4.6
								l1.3,0c0.6-0.2-0.3-0.3-0.4-0.5l0.4,0c0.5-0.6-0.8-1.2-0.2-1.6l-1.4,0c-0.1-0.3,1.1-0.2,0.3-0.5l0.7,0l-1.4-0.4
								c2.5,0,0.2-0.9,1.3-1.2c-0.5-0.4-1.5-1.3-1-1.9c1.3-0.1,1.3-0.9,1.9-1.4c-0.3-1-0.7-2.4-0.3-3.7l-1.6,0l-0.1-0.3
								c0.4,0,0.5,0,0.7,0c1.9-0.3-0.6-0.8,0.6-1c-1.5,0.2-0.2,0.2-0.3,0.4c-0.8,0.3-2.4,0-1.6-0.4l0.4,0l-0.9-0.3
								c1.3,0,1.9-0.3,3.1-0.3c-0.3-1.1-2.5-1.8-1.9-3c1.4,0.1-0.4-0.8,2.1-0.6c-0.9-0.7-2,0.1-3.8-0.2c0-0.2-0.6-0.4,0.3-0.4
								c0.6,0.1,1.5-0.2,1.7,0l-0.2-0.5c0.2,0,0.5,0.1,0.7,0.1c-1.4-0.9,1.6-1.6,0.2-2.5c-0.9-0.1-0.3,0.3-1.2,0.3
								c-1.8-0.8,1.6-0.7,0.3-1.5l1.2,0.2c-0.9-0.3-1.9-0.4-0.9-0.8c1.5-0.1,1.2,0.3,1.9,0.5c0.1-0.3-0.3-1-1.6-0.8
								c-0.5-0.3,0.8-0.5,1.2-0.6c-0.4,0-1,0.3-1.7,0.1c0.8-0.5,0.8-1.2,0.9-1.7c0.4,0,0.9,0,1.1,0
								C389.1,913.8,392.3,913.9,391.9,913.2z"/>
							<path class="st4" d="M384.5,883.2l-0.2,0.2c0.3,0,0.7,0,1,0.1L384.5,883.2z"/>
							<path class="st4" d="M383.6,894c0.1,0,0.2,0.1,0.4,0.1C383.9,894,383.7,894,383.6,894z"/>
							<path class="st4" d="M386.1,896.6c-0.3-0.2-0.7,0-1.1,0.1C385.3,896.7,385.7,896.7,386.1,896.6z"/>
							<path class="st4" d="M380.6,877.1c0.1,0,0.3,0.1,0.6,0.1C381,877.1,380.8,877.1,380.6,877.1z"/>
							<path class="st4" d="M381.7,860.2c-0.1,0-0.1,0-0.2,0.1C381.6,860.3,381.7,860.2,381.7,860.2z"/>
							<path class="st4" d="M379.4,861.1c0,0,0,0.1,0.2,0.2C379.7,861.2,379.6,861.2,379.4,861.1z"/>
							<path class="st4" d="M381.2,881.2c0,0.1,0.2,0.1,0.5,0.2C381.6,881.3,381.4,881.2,381.2,881.2z"/>
							<path class="st4" d="M379.9,861.5l-0.2,0.2c0.1,0,0.2,0,0.3,0L379.9,861.5z"/>
							<path class="st4" d="M381.9,859.9c0,0.1,0,0.2-0.2,0.3C382.1,860.1,382.1,860,381.9,859.9z"/>
							<path class="st4" d="M378.8,870.9C378.8,870.9,378.8,870.9,378.8,870.9C379.4,871.1,379.2,871,378.8,870.9z"/>
							<path class="st4" d="M382.4,862.6C382.4,862.6,382.4,862.6,382.4,862.6l0.3,0.1L382.4,862.6z"/>
							<path class="st4" d="M382.4,858.9c0,0,0.1,0.1,0.3,0.1c0.1,0,0.1-0.1,0.2-0.1C382.7,858.9,382.6,858.9,382.4,858.9z"/>
							<path class="st4" d="M381,867.4c-0.5-0.1-0.9-0.1-1.2-0.1C379.9,867.3,380.1,867.4,381,867.4z"/>
						</g>
					</g>
				</g>
			</g>
		</g>
	</g>
</g>
</svg>
