<?xml version="1.0" encoding="utf-8"?>
<!-- Generator: Adobe Illustrator 26.5.0, SVG Export Plug-In . SVG Version: 6.00 Build 0)  -->
<svg version="1.1" id="Calque_1" xmlns="http://www.w3.org/2000/svg" xmlns:xlink="http://www.w3.org/1999/xlink" x="0px" y="0px"
	 viewBox="0 0 1024 1024" style="enable-background:new 0 0 1024 1024;" xml:space="preserve">
<style type="text/css">
	.st0{fill:#FFFFFF;stroke:#2EA836;stroke-width:20;stroke-miterlimit:10;}
	.st1{font-family:'MyriadPro-Bold';}
	.st2{font-size:420px;}
</style>
<g>
	<path class="st0" d="M1020.9,1003.8c-21.9-2.8-44-1-66-1.1c-5.8,0-11,3.3-16.3-2.7c-5.9-6.7-1-10.8,1.4-16.4
		c5-11.6,2.6-24.1,2.8-36.3c0.1-6.5-0.1-12,6.7-16.4c9-5.7,7.3-12.3,2-21.6c-9.4-16.4-21.5-30.9-31.3-46.9c-3.4-5.6-8.4-8.9-13.6-12
		c-8.4-5-9.1-9.7-2.9-17.7c9.4-12.1,9.7-27.8,1.5-37.4c-6.8-8-16-14.2-26.7-11.9c-11.9,2.5-15.3,13.8-17.2,23.9
		c-1.6,8.2-0.6,17-0.2,25.5c0.3,6.5,4.5,8.2,10.6,9.8c9.7,2.5,11.1,7.9,4,14.3c-11.5,10.2-23.9,19.2-35.7,28.5
		c-15.8-2.7-19.5-13.1-21-27c-1.4-13.1-7.6-25.1-14.6-36.3c-3.7-6-9.7-10.1-17.3-9.4c-4.2,0.4-7.1-1-9.4-4.1
		c0.9-1.8,1.5-3.9,2.7-5.3c12.5-14.1,12.7-14.3-0.1-28.2c-6.1-6.6-11.9-14-22.6-16.5c-11.7,11-16.9,26.6-24.5,40.6
		c-5.6,10.4,6.9,11.3,9.7,18.3c-15.6,4.2-19.3,21.7-33.4,29.6c-5.6-7.5-10.1-16.1-19.4-18.8c0-1.8-0.4-3,0.1-3.5
		c5-6,12.3-10.4,10.8-20.2c-2.1-14.1-3.9-28.4-12.5-40.2c-5.5-7.6-13.7-7.8-21.3-1.5c-16.1,13.3-28.7,29.7-41.8,44.9
		c0,5,4.2,7,5.2,10.3c1.4,4.7-0.1,9.5-6.4,7.8c-5.5-1.5-9.8-5.9-16.4-1.4c-6.7,4.6-8.7,11.6-11.6,17.9c-2.8,6-2.8,13.4-4,20.1
		c-5.3,3.1-12.1-1.1-16.5,4"/>
	<path class="st0" d="M315.4,441.5c-20.4,16.4-26.3,46-16.3,74c10.4,29.2,31.3,44.6,60.8,49.6c8.4,1.4,12.8,4.3,12.2,13.6
		c-1.2,18.6,10.4,34.8,29.5,43.1c14.2,6.2,29.2,8.1,45.6,8.5c-0.1,7.7,2,14.2-5,20c-3.5,3-4.7,8.7-7,13.2
		c-7.9,16.1-5.5,24.1,9.4,33.7c4.3,2.8,8.2,6.1,13.6,10.1c-19.6,19.3-33.1,40.2-11.3,66c-5.4,7.9-16.5,9.3-17.4,20.6
		c-0.7,9.5,7.8,14.5,7.2,24.1c-7.1,5.1-18.3,8.6-19.2,21.6c-0.1,1.7-2.9,2.3-5.2,2.9c-10.1,2.3-17.5,8.7-22.3,17.4
		c-10.6-1.8-16.7-6.3-17.1-17.6c-0.2-7.4-6.3-10.8-13.1-13.7c-15-6.3-16.1-12.9-5.5-25.3c7.4-8.6,9.4-19.9,3.9-26.8
		c-4-5.1-9.2-11-16-9.2c-9.1,2.4-16.4,8.7-18.8,18.5c-1.3,5.2-1.4,10.7-1.4,16.1c-0.1,21.9-7.4,27.5-29.3,21.2
		c-10.8,9.5-17.7,22.8-29.2,35.4c-7.7-13.5-13-31.7-34.8-23.6c0.8-11.1,7-15.8,10-22.2c4.9-10.4,3.7-28.4-8.3-36.3
		c-5.8-3.8-11-4.5-16.3,2.4c-7.2,9.4-9,20.1-10.6,31.1c-0.4,2.8,0.8,4.6,2.6,6.8c7.3,8.8,5.4,16.9-5.3,16.9
		c-19.5,0.1-20.9,15.8-26.7,27.5c-3,6.1-3.4,13.4-5,20c-6.5,0.5-7.3-4.5-8.6-8.1c-6.6-18.1-14-34.2-37.8-33.9
		c-10.2,0.1-13.2-8.9-5.1-15.5c8.8-7.1,9.3-15.9,7.4-24.4c-1.9-8.9-0.3-15.9,5-22.3c-2.5-5.6-6.5-6.7-9.8-3.2
		c-6.4,6.6-12.6,6.1-20.4,2.7c-9.9-4.3-16.9-0.1-22.8,11.9c-7.5,15.1-5.4,27.5,6.7,40.4c7.4,7.8,7.9,16.1-0.1,18.5
		c-24.6,7.1-31.5,29.1-42.9,47.5c-3,4.8-6.2,9.6-8,14.8c-4.2,12.8-6.6,26.1,5.4,36.1c8.8,7.4,14.9,14.8,16.5,27
		c1.5,10.9,8.5,20.5,17.6,29.1c-19.7,4-39.1,4.6-58.5,4.6"/>
	<path class="st0" d="M459.5,828.9c-6.9,25.7-19.8,48.8-30.4,72.9c-16.1,36.9,3.3,71.1,41.2,85.6c6.3,2.4,13.4-1.3,18.6-5.3
		c13.6-10.3,20.1-24.8,21.5-41.6c0.5-5.2,1.1-10,5.5-13.4c11.4,2.3,10.7,12,12,20.2c0.8,4.7-0.8,10.6,5.5,11.9
		c5.5,1.2,10.5-0.7,14.9-5.1c12.4-12.3,15.9-45.4,1.3-60.7c-11.9-12.5-24.7-24.7-32.1-40.4c-9.3-19.4-12.2-40.3-8.3-61.8
		c1.4-8,2.6-16.1-0.1-24.1c-11.3,6.4-17.2,39.2-13.3,75.3"/>
	<path class="st0" d="M71.7,923.1c2.5-9.6,8.6-17.1,14.9-24.1c13.3-14.9,21.9-6.3,26.4,6.8c1.1,3.3,2.1,7.3,3.5,10.5
		c2.1,4.9,7.3,6.4,11.7,2.7c5.4-4.5,10.6-9.1,16.1-13.5c6.5-5.2,14.6-6,20.1-3.3c7.9,3.9,13.5,12.8,12.1,22.3
		c-2.4,17.5-6.9,34.6-13.4,51.1c-1,2.5-0.3,4.6-1.3,6.6c3.4,4.9,8.2,2.7,12.3,2.9c9.8,0.4,16.8,4.4,17.3,14.9
		c0.2,4.7,3.3,5.4,5.6,5.2c40.4-3.7,80.8,2.2,121.2,0.2c5.8-0.3,11.7-0.8,17.5-1.3c9.7-1,8.5-13,18.5-15.6c15.9,3.5,34.2,5.7,52.9,5
		c6-0.2,12.1,0.8,18.2,1.2"/>
	<path class="st0" d="M825.7,285.5c16.4,24.4,23,51.6,22.9,80.7c0,9.4,0.1,18.8,0,28.2c-0.3,27.1-32.6,63.6-65.9,53.8
		c-0.5-0.2-0.9-0.9-1.8-1.8c-3.8,3.4-9,6.3-4.8,12.6c15.8,23.4,0.6,49.7-17.6,61.9c-6.2,4.2-13.4,7.2-18.7,12.3
		c-8.7,8.4-18.3,10.6-28.3,4.8c-4.6-2.7-9.6-0.8-13.7-3.7c-3.6,2.9-3.4,7.2-2.5,10.7c4.1,16.2-2.4,28.4-13.6,39
		c-11.5,10.8-25.8,16.9-40.5,21.1c-7.2,2-16.4,2.6-22.8-4.9c-3.1-3.7-6.9-5.9-12.1-2.8c-5,2.9-2.4,7.3-2.5,10.9
		c-0.7,20.3-9.2,29-29.8,29.5c-6,0.1-10.8,0.7-10.8,9.5c9,5.6,13.9,14.3,16.5,25.5c5.7,24.4,1.1,33.6-23.2,40.5
		c-2.9,0.8-6.2,1.4-6.7,5.3"/>
	<path class="st0" d="M796.1,898.9c-7.6,14.4-30.6,23.8-44.1,15.6c-6.8-4.1-10.3-3.1-15.1,0.6c-2.9,2.2-4.9,5.9-9.5,2.7
		c-5.5-3.8-9.8-1.2-11.9,4c-2.4,5.7-2.2,11.3,0.9,17.6c3.5,7.1,8.8,5,13.8,5.2c12.1,0.4,22.4-6.4,33.7-9.1c3.6-0.9,7.9-0.2,12.1,0.7
		c7.8,1.7,8.8,5,5.3,11.1c-7.1,12.6-14,25.3-21.7,37.6c-4.4,7-20.9,10.5-29.5,8.3c-13-3.4-26,1.3-39,1.7c-9.9,0.3-20,2.1-29.6-0.6
		c-11.3-3.2-22.4-4-33.6-0.8c-0.8-4.6-0.6-8.6,1.3-12.5c-4-4.5-9.7-5.8-15.5-8c-3.9,1.5-5.4,5.7-6.5,7.5c-22.9,2.3-45-2.8-66.9,3.2"
		/>
	<path class="st0" d="M530.8,982.3c15.4,4.2,27.4,14.5,41.1,22.7c-5.1,11.9-15.1,11.8-23.4,7.9c-11.9-5.7-24.8-8.8-36.3-14.8
		c-11.6-6-21.8-4-31,2c-20.3,13.1-42.3,19.8-66.1,21.2c-4.9,0.3-11.8,2.5-13.3-5.3c-1.4-6.9,3.2-8.1,9.2-9.8
		c7-1.9,14.8-4.9,15.6-14.4"/>
	<path class="st0" d="M856.7,995.8c-12.7-13.7-25.4-27.5-38.5-41.5c-16.8,10.4-21.4,29.4-34.3,41.5"/>
	<path class="st0" d="M867.5,998.4c-3.6-0.1-6-2.9-10.9-1.8c-22.2,5.4-44.8,4.8-67.2,0.4"/>
	<path class="st0" d="M460.8,818.2c10.3,17.5,5.3,38.2,11.9,56.6c2.6,7.1,4.5,14.1,11,18.8"/>
	<path class="st0" d="M483.7,820.9c3.7,7.2-0.4,14.3-0.2,21.5c0.4,25.1,3.4,50.2,0.2,75.3"/>
	<path class="st0" d="M538.9,715.9c22,4.1,21.9,24,13.4,39c-5.1,9.1-14.7,14-21.5,21.5"/>
	<path class="st0" d="M167.3,570.7c-12.8-3.4-25.5-6.9-40.4-14c0,20.3,0,38.7,0,57.1"/>
	<path class="st0" d="M874.2,919.1c5.8,6.3,6.9,13.6,3.7,22.3c-8.9,2-15.1-1.5-18.6-9c0-9.4,9.3-8.2,12.2-13.3"/>
	<path class="st0" d="M530.8,819.5c9.7-5.7,16.6-0.5,21.3,6.9c4.7,7.3,0,18.7-7.8,22.7"/>
	<path class="st0" d="M135,519.5c0,10.8-6.9,21.1-2.7,32.3"/>
	<path class="st0" d="M101.3,545.1c9,4.5,18,9,26.9,13.5"/>
	<path class="st0" d="M553.7,843.7c15.6,7.2,22.6,19.1,20.2,36.3"/>
	<path class="st0" d="M125.6,562.6c-9.2,5.8-14.6,14.6-18.8,24.2"/>
	<path class="st0" d="M222.5,355.4c0.3,8.1,5.3,15.9,0.4,25.2c8.8,3.5,13.3,12.5,22.5,15.2"/>
	<path class="st0" d="M156.5,530.3c-6.1,11.3-19.9,15.3-25.6,26.9"/>
	<path class="st0" d="M528.2,777.8c21.2,10.1,22,13.1,9.4,38.3"/>
	<path class="st0" d="M991.3,602.9c-9.4,6.7-18.8,13.5-28.3,20.2"/>
	<path class="st0" d="M899.8,473.8c0.9,7.2,1.8,14.3,2.7,21.5"/>
	<path class="st0" d="M921.3,465.7c-12.8,2.8-24.2,10.4-37.7,10.8"/>
	<path class="st0" d="M965.7,597.6c0.7,6.3-2,13.1,2.7,18.8"/>
	<path class="st0" d="M946.9,632.5c4.4-3.2,8.9-6.5,14.2-10.4c5.5,11.9,15,17.6,27.5,18.4"/>
	<path class="st0" d="M226.6,385c-3.9,4.2,2.5,12.1-5.4,14.8"/>
	<path class="st0" d="M885,457.7c1.1,8.8,14.1,5.6,14.8,14.8"/>
</g>
<text transform="matrix(1 0 0 1 168.8661 320.0636)" class="st1 st2">CO2</text>
</svg>
