<?xml version="1.0" encoding="utf-8"?>
<!-- Generator: Adobe Illustrator 26.5.0, SVG Export Plug-In . SVG Version: 6.00 Build 0)  -->
<svg version="1.1" id="Capa_1" xmlns="http://www.w3.org/2000/svg" xmlns:xlink="http://www.w3.org/1999/xlink" x="0px" y="0px"
	 viewBox="0 0 490 490" style="enable-background:new 0 0 490 490;" xml:space="preserve">
<g>
	<g>
		<g>
			<path d="M245,490C109.9,490,0,380.1,0,245S109.9,0,245,0s245,109.9,245,245S380.1,490,245,490z M245,52C144.1,52,52,144.1,52,245
				s92.1,193,193,193s193-92.1,193-193S345.9,52,245,52z"/>
		</g>
		<g>
			<g>
				<ellipse transform="matrix(0.1602 -0.9871 0.9871 0.1602 45.5037 371.8832)" cx="241.3" cy="159.2" rx="29.1" ry="29.1"/>
			</g>
			<g>
				<polygon points="285.1,359.9 270.4,359.9 219.6,359.9 204.9,359.9 204.9,331 229.6,331 229.6,244.8 205.1,244.8 205.1,215.9 
					219.6,215.9 263.1,215.9 260.4,215.9 260.4,331 285.1,331 				"/>
			</g>
		</g>
	</g>
</g>
</svg>
