<?xml version="1.0" encoding="utf-8"?>
<!-- Generator: Adobe Illustrator 26.3.1, SVG Export Plug-In . SVG Version: 6.00 Build 0)  -->
<svg version="1.1" id="Layer_1" xmlns="http://www.w3.org/2000/svg" xmlns:xlink="http://www.w3.org/1999/xlink" x="0px" y="0px"
	 viewBox="0 0 512 512" style="enable-background:new 0 0 512 512;" xml:space="preserve">
<style type="text/css">
	.st0{fill:#3180FF;stroke:#3180FF;stroke-width:20;stroke-miterlimit:10;}
	.st1{fill:#3180FF;stroke:#4DA0FF;stroke-miterlimit:10;}
</style>
<g>
	<g>
		<path class="st0" d="M435.7,150.6h-111v25.1h98.7v301.2H102.7V175.7h98.7v-25.1h-111c-6.8,0-12.3,5.6-12.3,12.6v326.3
			c0,6.9,5.5,12.6,12.3,12.6h345.3c6.8,0,12.3-5.6,12.3-12.6V163.1C448,156.2,442.5,150.6,435.7,150.6z"/>
	</g>
</g>
<g>
	<g>
		<g>
			<path class="st1" d="M345.6,77.2l-74-73.7c-4.9-4.8-12.7-4.8-17.4,0.2l-73.8,73.5c-4.9,4.9-5,12.8-0.2,17.8
				c4.8,4.9,12.6,5,17.4,0.2l53-52.8v269.7c0,6.9,5.5,12.6,12.3,12.6c6.8,0,12.3-5.6,12.3-12.6V42.4l53,52.8
				c4.9,4.9,12.7,4.8,17.4-0.2C350.6,90,350.5,82.1,345.6,77.2z"/>
		</g>
	</g>
</g>
</svg>
