<?xml version="1.0" encoding="utf-8"?>
<!-- Generator: Adobe Illustrator 27.2.0, SVG Export Plug-In . SVG Version: 6.00 Build 0)  -->
<svg version="1.1" id="LOGO_UNI" xmlns="http://www.w3.org/2000/svg" xmlns:xlink="http://www.w3.org/1999/xlink" x="0px" y="0px"
	 viewBox="0 0 75.5 80.4" style="enable-background:new 0 0 75.5 80.4;" xml:space="preserve">
<style type="text/css">
	.st0{fill:#8C8C8C;}
</style>
<g>
	<path class="st0" d="M18.8,18.9l1.7,2.2l1.3-1L19,16.5l-1,0.8c0.4,0.6-0.2,1.3-0.9,1.9l0.5,0.6L18.8,18.9z"/>
	<path class="st0" d="M23.3,16.9c0.1-0.4,0.3-0.6,0.7-0.8c0.5-0.3,1-0.2,1.2,0.2s-0.1,0.8-0.6,1.1c-0.4,0.2-1,0.3-1.1-0.1L22.2,18
		c0.6,0.9,1.7,0.8,2.9,0.2c1.3-0.7,2-1.6,1.5-2.6c-0.4-0.8-1.4-1-2.5-0.4c-0.4,0.2-0.7,0.5-0.9,0.8l0,0L23,15.2l2.4-1.2L25,13.2
		L21.6,15l0.6,2.6L23.3,16.9z"/>
	<path class="st0" d="M52.1,15.5c-0.4-0.2-0.8-0.3-1.2-0.2l0,0l0.6-0.6l2.4,1.2l0.4-0.8l-3.5-1.7l-1.7,2l1.2,0.6
		c0.3-0.1,0.7-0.1,1,0.1c0.5,0.3,0.7,0.7,0.5,1.1c-0.2,0.4-0.7,0.5-1.2,0.2c-0.4-0.2-0.8-0.6-0.6-1l-1.3-0.7c-0.4,1,0.4,1.8,1.6,2.4
		c1.3,0.6,2.5,0.6,3-0.4C53.7,16.9,53.3,16,52.1,15.5z"/>
	<path class="st0" d="M57.6,17.2c-1-0.8-2.3-0.9-2.9-0.1c-0.5,0.7-0.3,1.7,0.7,2.5c0.4,0.3,1,0.6,1.4,0.5l0,0
		c-0.4,0.5-1,0.7-1.6,0.2c-0.1-0.1-0.3-0.3-0.4-0.4c-0.1-0.1-0.1-0.3,0-0.4l-1.1-0.9c-0.3,0.8,0.1,1.6,0.9,2.3
		c1.5,1.2,2.8,0.7,3.6-0.3C59,19.6,59,18.3,57.6,17.2z M57.5,19.1c-0.3,0.3-0.8,0.4-1.3,0s-0.6-0.9-0.3-1.2c0.2-0.3,0.8-0.3,1.2,0
		C57.6,18.3,57.7,18.8,57.5,19.1z"/>
	<path class="st0" d="M7.5,35.8c0.8,0.3,1.4-0.5,1.8-1.3c0.5-0.8,0.8-1.6,1.2-1.5c0.3,0.1,0.2,0.5,0.1,0.9c-0.2,0.5-0.5,0.9-0.9,0.8
		l-0.5,1.6c1,0.3,1.8-0.7,2.2-1.9c0.4-1.1,0.4-2.6-0.5-2.9C10.1,31.2,9.5,32,9,32.8s-0.8,1.6-1.2,1.5c-0.3-0.1-0.3-0.6-0.1-1.1
		c0.2-0.7,0.5-1,1.1-0.9l0.5-1.6c-1.1-0.4-2,0.7-2.4,2.1C6.4,34.1,6.4,35.5,7.5,35.8z"/>
	<path class="st0" d="M7,43.7l0.1-1.6c-0.5-0.1-0.8-0.6-0.8-1.3c0.1-1.1,0.8-1.4,1.5-1.3c0.7,0.1,1.3,0.5,1.3,1.6
		c-0.1,0.7-0.3,1.2-0.8,1.2l-0.1,1.6c1.1,0,1.9-1.4,2-2.7c0.1-1.9-0.8-3.2-2.2-3.3s-2.5,1-2.7,2.9C5.2,42.2,5.8,43.5,7,43.7z"/>
	<polygon class="st0" points="10.5,48.9 8.9,49.2 8.5,47.1 10.2,46.8 9.9,45.2 5.3,46 5.6,47.6 7.5,47.3 7.8,49.4 6,49.7 6.2,51.3 
		10.8,50.5 	"/>
	<path class="st0" d="M12.5,54.5c-0.8-1.8-2.2-2.4-3.5-1.8c-1.2,0.6-1.8,2-0.9,3.8c0.8,1.8,2.2,2.4,3.5,1.8
		C12.8,57.7,13.3,56.3,12.5,54.5z M10.9,56.8C10.3,57.1,9.5,57,9,56c-0.4-1,0-1.6,0.7-1.9c0.6-0.3,1.4-0.2,1.9,0.8
		C12,55.8,11.5,56.5,10.9,56.8z"/>
	<polygon class="st0" points="15.4,59.6 14.4,58.3 10.7,61.1 13.4,64.8 14.3,64.1 12.5,61.8 	"/>
	<path class="st0" d="M14.3,65.8l1.3,1.1l0.8-0.4l1.7,1.4l-0.2,0.9l1.3,1.1l1.2-5.1l-1.3-1.1L14.3,65.8z M18.4,67l-1.1-0.9l1.6-0.8
		l0,0L18.4,67z"/>
	<path class="st0" d="M32.1,71.4c0.6,0.1,1.1,0.5,1.1,0.9l1.6,0.3c0.1-1.2-1.2-2-2.4-2.2c-1.9-0.4-3.3,0.4-3.6,1.7s0.7,2.6,2.6,3
		c0.6,0.1,1.3,0.1,1.8-0.2v0.5l1,0.2l0.5-2.5l-2.6-0.5l-0.2,0.9l1.1,0.2c-0.2,0.4-0.8,0.6-1.6,0.4c-1-0.2-1.3-1-1.1-1.6
		C30.5,71.8,31,71.2,32.1,71.4z"/>
	<polygon class="st0" points="38.8,74.7 38.8,73.8 41.8,73.6 41.8,72.7 38.7,72.8 38.7,72 42,71.9 42,70.9 37,71.1 37.2,75.8 
		42.3,75.5 42.3,74.5 	"/>
	<polygon class="st0" points="47.4,69.4 48.3,72.2 48.3,72.2 45.3,70.1 43.7,70.6 45.1,75 46.6,74.6 45.7,71.8 45.8,71.8 48.7,73.9 
		50.3,73.4 48.9,69 	"/>
	<polygon class="st0" points="53.9,70.4 53.4,69.6 56.1,68 55.6,67.2 52.9,68.8 52.5,68.1 55.4,66.4 54.9,65.5 50.6,68.2 53.1,72.1 
		57.4,69.5 56.8,68.6 	"/>
	<polygon class="st0" points="58.8,61.9 60.4,65.2 60.3,65.2 57,63.6 55.8,64.9 60.5,66.7 61.8,65.4 60,60.7 	"/>
	<polygon class="st0" points="64.7,60.1 63.9,59.6 65.5,57 64.7,56.5 63.1,59.2 62.4,58.7 64.1,55.8 63.3,55.3 60.7,59.6 64.7,62 
		67.3,57.7 66.4,57.1 	"/>
	<polygon class="st0" points="65.2,50 67.9,50.8 67.9,50.8 64.5,52.1 64.1,53.7 68.5,55.1 69,53.6 66.2,52.8 66.2,52.7 69.6,51.5 
		70.1,49.9 65.6,48.5 	"/>
	<path class="st0" d="M69.3,41.7c-0.8,0-1.2,0.9-1.4,1.8c-0.2,0.9-0.3,1.8-0.7,1.8c-0.3,0-0.4-0.5-0.4-0.8c0-0.5,0.2-1,0.6-1
		l0.1-1.6c-1,0-1.6,1.2-1.6,2.4c-0.1,1.2,0.3,2.6,1.3,2.6c0.9,0,1.2-0.9,1.4-1.8c0.2-0.9,0.3-1.8,0.8-1.8c0.3,0,0.5,0.5,0.4,1
		c0,0.7-0.2,1.1-0.8,1.2l-0.1,1.6c1.2,0,1.7-1.2,1.8-2.7C70.8,43.1,70.5,41.7,69.3,41.7z"/>
	<rect x="65.7" y="37.8" transform="matrix(0.9898 -0.1427 0.1427 0.9898 -4.8137 10.0996)" class="st0" width="4.7" height="1.6"/>
	<path class="st0" d="M66.6,35.9c0.8-0.3,0.8-1.3,0.7-2.2s-0.3-1.8,0.1-1.9c0.3-0.1,0.6,0.3,0.8,0.8c0.2,0.7,0.2,1.1-0.3,1.4
		l0.5,1.5c1.1-0.4,1.2-1.8,0.7-3.1c-0.4-1.3-1.2-2.5-2.4-2.1c-0.8,0.3-0.8,1.2-0.7,2.2c0.1,0.9,0.4,1.8,0,1.9
		c-0.3,0.1-0.5-0.3-0.6-0.6c-0.2-0.5-0.2-1,0.2-1.1l-0.5-1.5c-1,0.3-1,1.7-0.6,2.9C64.8,35,65.6,36.2,66.6,35.9z"/>
	<path class="st0" d="M23.3,69.8c-0.4,0.5-0.3,1.2,0.2,1.6c0.5,0.4,1.2,0.3,1.6-0.2c0.4-0.5,0.3-1.2-0.2-1.6
		C24.4,69.3,23.7,69.4,23.3,69.8z"/>
	<path class="st0" d="M14.2,25.5c0.4-0.5,0.3-1.2-0.2-1.6c-0.5-0.4-1.2-0.3-1.6,0.2c-0.4,0.5-0.3,1.2,0.2,1.6
		C13.2,26.1,13.9,26,14.2,25.5z"/>
	<path class="st0" d="M61.4,24.2c-0.4,0.5-0.3,1.2,0.2,1.6c0.5,0.4,1.2,0.3,1.6-0.2c0.4-0.5,0.3-1.2-0.2-1.6
		C62.5,23.6,61.8,23.7,61.4,24.2z"/>
	<polygon class="st0" points="40.7,12.1 39.8,13.5 42,13.5 42,12.8 41.1,12.8 41.6,12.1 41.1,11.4 41.9,11.4 41.9,10.7 39.8,10.7 	
		"/>
	<polygon class="st0" points="35.9,12.8 35.3,12.8 35.3,11.4 35.8,11.4 35.8,10.7 34,10.7 34,11.4 34.5,11.4 34.5,12.8 34,12.8 
		34,13.5 35.9,13.5 	"/>
	<polygon class="st0" points="38.5,11.7 37.3,11.7 37.3,10.7 36.5,10.7 36.5,13.5 37.3,13.5 37.3,12.4 38.5,12.4 38.5,13.5 
		39.3,13.5 39.3,10.7 38.5,10.7 	"/>
	<path class="st0" d="M37.5,9c0-0.2,0.2-0.3,0.4-0.3s0.3,0.2,0.3,0.3v1h1.6V9.2h-1V9c0-0.6-0.3-1.1-1-1.1c-0.5,0-0.9,0.3-1,0.8
		c0,0.1,0,0.2,0,0.3v0.2h-1V10h1.6L37.5,9z"/>
	<path class="st0" d="M37.9,14.2c-0.3,0-0.5,0.2-0.5,0.5s0.2,0.5,0.5,0.5s0.5-0.2,0.5-0.5S38.2,14.2,37.9,14.2z"/>
	<path class="st0" d="M45.7,7.5l0.7-0.9l-4.3,0.6l0.7-4.3l-3.4,2.8l-1.6-4.1l-1.6,4.1l-3.4-2.8l0.7,4.3l-4.3-0.7L30,7.4
		C13.7,11,1.5,25.6,1.5,42.9c0,20.1,16.3,36.4,36.4,36.4S74.3,63,74.3,42.9C74.3,25.6,62,11.1,45.7,7.5z M37.9,6.6c2.8,0,5,2.2,5,5
		s-2.2,5-5,5s-5-2.2-5-5S35.1,6.6,37.9,6.6z M42.5,17.9c5.4,1,10.3,3.7,13.9,7.6h-2.3v1.7H52v-1.7h-2.9v2.4h-1.7v-3.7
		c0-0.8-0.7-1.5-1.5-1.5s-1.5,0.7-1.5,1.5v19.5l-3,2.7v1.4c-1.3,0.2-2.4,1-2.9,2.2V20.4l1-2.9l3.4,2.7L42.5,17.9z M43.9,59.8
		c-0.7,0.3-1.3,1-1.3,1.8c0,1.1,0.9,2,2,2h2.5c1.1,0,2-0.9,2-2c0-0.8-0.5-1.6-1.3-1.8c3.4-1.2,5.8-4.4,5.8-8.2c0-2-1.5-3.6-3.3-3.8
		v-1.4l-3-2.7V38H49v2.4h2.9v-1.9H54v1.8h2.9v-6.4H54v1.6h-2.1v-1.6h-2.4v-2h2.4v-1.6H54v1.6h2.9v-5.8c4,4.5,6.5,10.5,6.5,17
		c0,13.9-11.2,25.3-25,25.6V54.3C39.3,56.8,41.3,58.9,43.9,59.8z M40,51.6c0-0.9,0.7-1.7,1.6-1.9c0.1,1.1,1,2,2.1,2H48
		c1.1,0,2-0.9,2.1-2c0.9,0.2,1.6,0.9,1.6,1.9c0,3.6-2.5,5.7-5.8,6.6C42.5,57.4,40,55.2,40,51.6z M20.7,32.7
		c-0.1,0.2-0.2,0.4-0.2,0.6c0,0.2,0,0.3,0.1,0.5H14c0.3-0.7,0.6-1.5,1-2.2L20.7,32.7z M16.5,28.8c0.7-1.1,1.6-2.2,2.5-3.2
		c0.5,1.6,1.5,3.1,2.8,4.1c-0.2,0.1-0.3,0.3-0.4,0.5c-0.1,0.1-0.1,0.3-0.1,0.4L16.5,28.8z M14.2,37.3c0,0,3.2-0.6,6.6-1.2
		c0,0.2,0,0.4,0,0.5s0.1,0.2,0.2,0.3l-6.5,2.5c-0.9,0.6-1.2,1.7-0.6,2.5c0.3,0.4,0.7,0.7,1.1,0.8c0.5,0.1,1,0,1.4-0.2l5.7-3.5
		c0,0.2,0.1,0.3,0.2,0.5c0.1,0.1,0.2,0.2,0.3,0.2l-5.2,4.7c-0.6,0.8-0.5,2,0.3,2.6s1.9,0.4,2.5-0.4l4.1-5.4c0.1,0.1,0.2,0.3,0.4,0.4
		c0.1,0,0.2,0.1,0.3,0.1c0,0,0,0,0.1,0l-2.9,5.8c-0.3,1,0.2,2,1.2,2.2c0.9,0.3,1.9-0.3,2.2-1.2l1.7-5.8c0.7,0.2,1.5,0.3,2.2,0.3
		c0.6,0,1.1-0.1,1.6-0.2c0,1,0,2,0,2.1c-0.1,0.2-5.2,5.7-5.2,5.7c-0.9,0.7-1.2,0.8-1.8,0.2l-0.2-0.2l-1.6,1.3l0.2,0.2
		c0.6,0.6,1.2,1,1.9,1.1c-1.1,0.6-2.1,1.1-2.2,1.2c-0.2-0.2-1-1-1.4-1.5c-0.1-1.1-1-2-2.2-2s-2.2,1-2.2,2.2v0.1l0.8,0.8v-0.7
		c0-0.1,0.1-0.3,0.2-0.4c0.2-0.2,0.6-0.2,0.8,0c0,0,0.6,0.7,1.1,1.2l0,0l0.2,0.2c0.1,0.1,0.2,0.2,0.2,0.2l0,0l0.5,0.5h-0.6
		c-0.4-0.3-0.9-0.5-1.5-0.5s-1.1,0.3-1.5,0.7c-0.3,0.3-0.5,0.7-0.5,1.1c-2.4-3.9-3.8-8.5-3.8-13.4c0-2.1,0.2-4,0.7-6
		C13.3,37.3,13.7,37.4,14.2,37.3z M17.1,57.5c0-0.2,0.1-0.3,0.2-0.5c0.1-0.1,0.3-0.2,0.5-0.2h1.6c-0.8,0.2-1.5,0.7-1.8,1.4
		C17.3,58,17.1,57.7,17.1,57.5L17.1,57.5z M19.1,59.8c0-0.1,0.1-0.3,0.2-0.3l3.3-1.8l0.9,0.9l0,0l0.2,0.2l0.2,0.2l0,0l1.2,1.1
		c0.2,0.2,0.2,0.6,0,0.8c-0.1,0.1-0.2,0.2-0.4,0.2H24l0.8,0.8h0.1c0.6,0,1.1-0.2,1.5-0.6c0.4-0.4,0.6-1,0.6-1.5c0-1.2-0.9-2.1-2-2.2
		c-0.3-0.3-0.6-0.6-0.8-0.8c0.5-0.3,9.6-6.1,10.4-6.6c-0.3,3.2-3,6.9-5.6,9.1c-1.2,1.2-1.6,2.5-1.6,3.6c0,1,0.4,1.9,0.9,2.4
		s1.1,0.6,1.7,0.3l0.4-0.2l-0.3-0.3c-0.5-0.5-0.6-1.3-0.6-1.8c0-1.2,0.3-1.8,0.9-2.4c0.1,0.1,0.4,0.4,0.7,0.7
		c-0.2,0.7-0.4,1.3-0.4,2c0,1.3,0.4,2.4,1.2,3.2c0.2,0.2,1.8,1.5,2.5,1.3l0.5-0.2l-0.4-0.3c-0.2-0.2-1-1.1-1.3-1.6
		c-0.2-0.4-0.3-1-0.3-1.5c0-0.9,0.4-2,1.2-2.8c0-0.1,1.9-4.5,2.8-6.7v0.4c0,0.5,0,1,0,1.5c0,2.6-0.2,4.9-1.3,6c-0.7,0.7-2,1.1-2,1.1
		l0.3,0.4c0,0,0.6,0.9,1.5,0.9c0.2,0,0.4-0.1,0.6-0.2c0,2,0.4,2.8,1.1,3.6c-6.8-0.2-13-3.1-17.4-7.6l-0.5-0.8
		c-0.1-0.1-0.1-0.2-0.1-0.3C19.1,59.9,19.1,59.8,19.1,59.8z M32.8,23.5l0.6-1h-2.5l0.3-1.1c0-0.5-0.4-1-1-1c-0.1,0-0.2,0-0.4,0.1
		c0-0.1,0-0.2,0-0.3c0-0.3-0.3-0.6-0.6-0.6s-0.6,0.3-0.6,0.6c0,0.1,0,0.2,0,0.3c-0.1,0-0.2-0.1-0.4-0.1c-0.5,0-1,0.4-1,1l0.3,1.1
		h-0.7c-0.5,0-0.8,0.3-0.9,0.8c-0.1,0-0.3-0.1-0.4-0.1c-0.9,0-1.6,0.7-1.6,1.6c0,0.3,0.1,0.5,0.2,0.7c0.3-0.5,0.8-0.8,1.4-0.8
		c0.5,0,1,0.3,1.3,0.7l0.1,0.1c0.1,0.1,0.1,0.3,0.2,0.5h-3.2c-0.9,0-1.6-0.7-1.6-1.6v0.3v0.4v0.3c0,0.9,0.7,1.6,1.6,1.6h3
		c-0.3,0.5-0.8,0.8-1.4,0.8h-0.1c0.3,0.4,0.8,0.7,1.3,0.7c0.7,0,1.2-0.4,1.5-1h4.2c0.9,0,1.6,0.7,1.6,1.6c0,0.4,0,1-0.4,1.4
		l-0.4,0.6l-2.7,4.1c-0.5,0.7-1.5,0.9-2.2,0.4s-0.9-1.5-0.4-2.2c0.6-0.3,0.9-1.1,0.7-1.8c-0.1-0.9-1-1.5-1.9-1.5h-0.5
		c-3.3,0-5.8-2.3-6.2-5.5c3.5-3.4,8-5.7,13-6.7l-0.4,2.3l3.4-2.8l1.1,2.9v4.6L32.8,23.5z M37.8,77.3C18.9,77.3,3.6,61.9,3.6,43
		c0-16.7,12-30.7,27.9-33.6L32,10l-4.1,1.6l4.1,1.6l-2.8,3.3l4.3-0.7l-0.1,0.9C20.8,18.8,11.2,29.8,11.2,43
		c0,14.7,12,26.7,26.7,26.7s26.7-12,26.7-26.7c0-13.2-9.6-24.1-22.2-26.3l-0.1-0.9l4.2,0.7L43.8,13l4-1.5l-4-1.7l0.4-0.5
		c15.9,3,27.9,16.9,27.9,33.7C72.1,61.9,56.7,77.3,37.8,77.3z"/>
</g>
</svg>
