<?xml version="1.0" encoding="UTF-8"?>
<svg id="Calque_1" data-name="Calque 1" xmlns="http://www.w3.org/2000/svg" viewBox="0 0 361.65 376.25">
  <defs>
    <style>
      .cls-1 {
        fill: #42a735;
      }
    </style>
  </defs>
  <path class="cls-1" d="M361.65,191.91c0-15.59-2.1-30.69-6.02-45.04,.53-.45,.97,.68,1.46,2.13,.52,1.83,1.07,4.15,2.04,4.53,.27-1.11,.17-2.68-.12-4.4-.33-1.7-.95-3.52-1.55-5.15l-.1,.75c-.28-.71-.62-1.61-.98-2.6-.17-.5-.35-1.02-.53-1.56-.2-.53-.4-1.07-.59-1.62-.75-2.2-1.32-4.48-1.29-6.26,1,.47,1.1-1.12,2.02,.97l-.62-2.04-.71-2.01c-.44-.41-.88-.84-.6,.37-1.31-1.64-1.72-3.62-1.85-5.24,.17-.2-.52-1.51-1.67-3.33-.57-.91-1.25-1.96-1.97-3.06-.36-.55-.74-1.11-1.12-1.68-.41-.55-.83-1.11-1.24-1.67-1.68-2.22-3.26-4.42-4.53-5.96-1.26-1.54-2.02-2.52-1.83-2.44-.72-1.21-.93-2.14-1.19-3,1.57,2.2,3.87,5.36,5.97,8.52,.95,1.43,1.89,2.83,2.75,4.1,.83,1.29,1.53,2.48,2.12,3.42,1.17,1.88,1.78,2.81,1.3,1.91-.07-.68-1.2-2.93-2.96-5.86-1.87-2.88-4.18-6.53-6.8-9.93-2.47-3.5-5.24-6.73-7.18-9.36-2.04-2.56-3.44-4.41-3.38-5.04-.68-.89-1.43-1.87-2.09-2.48-.68-.6-1.22-.87-1.4-.4-1.99-3.22,2-.1,.97-2.72-.14,.04-.2,.44-.71-.26l-.76-2.73c-.6-.47-1.15-1.03-1.75-1.6-.6-.56-1.19-1.18-1.78-1.82-1.18-1.28-2.35-2.69-3.54-4.1-1.25-1.35-2.52-2.7-3.83-3.91-.65-.61-1.31-1.18-1.98-1.7-.68-.51-1.39-.94-2.1-1.32,1.97,.54,4.53,.88,7.93,3.24l.16,.82c.29,.12,1.08,.72,1.84,1.24,.74,.53,1.49,.95,1.78,.63-1.02-1.67-2.23-3.01-3.53-4.29-1.32-1.26-2.74-2.46-4.49-3.57-.38-.68-.85-1.45-1.11-2.03-.07,.09-.09,.2-.19,.29-.59-1.3-.43-1.27,.15-1.17,.09,0,.2,0,.34,.05-.02-1.74-3.03-4.18-6.77-6.59-3.64-2.55-8.04-4.95-10.43-7.67-1.91-.92-.42,.23-2.81-.89-1.33-1.25-2.55-2.41-3.73-3.52-1.2-1.08-2.4-2.07-3.6-3.08-1.21-.99-2.42-2.02-3.75-3.02-1.35-.97-2.78-1.98-4.36-3.06-2.65-.27-2.99,.03-1.03,2.46l-2.38-1.57c-.8-.51-1.63-.98-2.44-1.47,2.99-.09,.94-1.91-1.1-3.73-2.03-1.82-4.06-3.61-.81-3.58-1.23-1.4-4.44-2.92-7.62-3.87-.6,.54-1.5,1.33-5.32-.15-4.98-2.99-3.81-2.22-8.02-4.62-.77-1.26,1.02-1.05,1.07-1.82-7.41-1.26-5.56-3.98-12.45-5.77-4.36-.89-12.96-2.62-13.48-.94-5.81-1.11-5.64-2.31-4.84-3.53-1.59-.37-3.2-.57-4.81-.86,3.93,.39,7.86,1.21,11.83,1.95,1.98,.37,3.94,.93,5.91,1.4,1.97,.52,3.96,.95,5.9,1.6,1.95,.61,3.9,1.23,5.85,1.85,.98,.3,1.94,.65,2.9,1.02l2.88,1.09c3.86,1.38,7.59,3.1,11.31,4.74-7.63-4.72-16.14-8.92-25.1-12.34-8.98-3.39-18.47-5.67-27.83-6.87-2.35-.24-4.68-.44-7-.6-1.16-.1-2.31-.12-3.46-.11-1.15,0-2.29,.02-3.43,.03-4.54,0-8.97,.57-13.2,1.23-2.12,.34-4.18,.9-6.18,1.41-1,.27-1.99,.55-2.96,.85-.49,.15-.97,.31-1.45,.46-.47,.18-.95,.36-1.42,.54-1.87,.74-3.67,1.53-5.4,2.38-.86,.43-1.71,.84-2.52,1.33-.82,.49-1.61,.99-2.39,1.51-.99-1.43-3.9-2.36-7.77-2.76-3.84-.27-8.68-.23-13.33,.49-9.38,1.16-18.04,4.24-18.06,5.11-1.61,.94-3.22,1.89-4.83,2.83-1.58,.99-3.17,1.98-4.76,2.98-3.21,1.9-6.27,4.09-9.41,6.11-19.57,13.25-38.11,28.91-54.26,47.86-16.13,18.88-29.68,41.25-38.28,66.29-.57,1.74-1.19,3.68-1.88,5.77-.57,2.13-1.18,4.43-1.84,6.87-.7,2.43-1.18,5.07-1.76,7.8-.28,1.37-.59,2.77-.85,4.21-.23,1.44-.46,2.91-.69,4.41-1.88,11.96-2.71,25.7-1.97,39.47,.69,13.77,2.99,27.52,6.13,39.47,3.1,11.97,7.01,22.09,9.86,29.25,.91,2.04,1.83,4.07,2.74,6.1,.47,1.01,.91,2.05,1.42,3.04,.52,.99,1.03,1.99,1.55,2.99-.8-1.7-1.42-2.95-1.89-4.02-.45-1.08-.82-1.94-1.18-2.81-.36-.86-.72-1.72-1.17-2.8-.44-1.08-1.03-2.35-1.64-4.11,.56,1.03,1.18,2.02,1.8,2.99,.62,.98,1.23,1.95,1.85,2.92,.61,.96,1.22,1.92,1.83,2.87,.6,.95,1.28,1.85,1.91,2.77,1.28,1.82,2.56,3.62,3.82,5.4,1.33,1.72,2.66,3.43,3.97,5.12,.66,.84,1.29,1.69,1.97,2.5,.68,.81,1.37,1.61,2.05,2.41,1.37,1.59,2.67,3.2,4.05,4.73,2.82,3.01,5.47,6.07,8.36,8.87-.58-1.36-.77-2.28-1.24-3.58-.44-1.32-1.12-3.07-2.66-6.04l2.25,3.35,1.13,1.68,1.2,1.62c1.71,.96,3.66,2.47,5.73,4.28,2.15,1.72,4.43,3.72,6.68,5.76,2.33,1.95,4.67,3.91,6.81,5.7,2.22,1.69,4.25,3.17,5.91,4.24-1.07-.03-.52,1.05,.88,2.54,1.42,1.46,3.64,3.36,5.74,5.13l-1.15-2.06c8.03,6.55,17.57,12.55,27.34,17.4,9.78,4.86,19.7,8.72,28.5,11.55,.61,.2,1.17,.43,1.69,.66,.52,.21,1,.43,1.43,.65,.86,.44,1.54,.89,2.04,1.28l4.35,.95c1.45,.31,2.93,.52,4.39,.78l4.38,.74c1.46,.26,2.94,.37,4.4,.56-.85,.79,2.71,1.85,5.44,2.64,2.49,.62,4.26,1.07,1.3,1.16,3.07-.07,6.11,.07,9.13,.14,1.68,.02,3.35,.07,5.02,.12,1.67,.06,3.33,.15,4.99,.1,6.63,.03,13.21-.27,19.43-1.82,11.23-.77,22.58-2.66,33.71-5.74,11.12-3.09,22.02-7.36,32.36-12.71,20.71-10.68,39.12-25.81,53.3-43.59l-1.27,.34c1.28-1.51,2.38-3.14,3.49-4.73,1.08-1.61,2.2-3.16,3.18-4.82,1.96-3.31,3.93-6.57,5.74-10.03,.91-1.73,1.95-3.39,2.85-5.19,.93-1.78,1.91-3.57,2.95-5.37,1.02-1.82,2-3.72,3.12-5.62,.54-.96,1.16-1.89,1.7-2.89,.55-.99,1.13-2,1.74-3.01,1.91-6.02,3.96-13.18,5.36-19.72,6.87-18.5,10.63-38.52,10.63-59.41"/>
</svg>